<?xml version="1.0" encoding="utf-8"?>
<!-- Generator: Adobe Illustrator 21.0.2, SVG Export Plug-In . SVG Version: 6.00 Build 0)  -->
<svg version="1.1" id="Layer_1" xmlns="http://www.w3.org/2000/svg" xmlns:xlink="http://www.w3.org/1999/xlink" x="0px" y="0px"
	 viewBox="0 0 500 121" style="enable-background:new 0 0 500 121;background-color:black" xml:space="preserve">
<style type="text/css">
	.st0{fill:#FFFFFF;}
	.st1{enable-background:new    ;}
</style>
<g>
	<path class="st0" d="M54.6,96.1c-0.2,0.2-0.2,0.4-0.4,0.4"/>
	<path class="st0" d="M58.6,66.6c0.4,0,0.8-0.4,0.8-0.8S58.9,65,58.6,65c-0.4,0-0.8,0.4-0.8,0.8S58,66.6,58.6,66.6L58.6,66.6z"/>
	<path class="st0" d="M95.2,33.1L95.2,33.1H66.6l0,0l0,0v23.1c0,2.2,1,4.1,2.2,4.7l11,6.5c0.2,0.2,0.6,0.4,1,0.4s0.6-0.2,1-0.4
		L93,60.7c1.4-0.6,2.2-2.6,2.2-4.7V33.1L95.2,33.1L95.2,33.1z M76.1,39.8h-2.6v-5.9h2.6V39.8L76.1,39.8z M74.3,41.7l0.4-0.4L74.5,41
		h0.4l0.2-0.4l0.2,0.4h0.4l-0.2,0.4l0.4,0.4h-0.4v0.4l-0.4-0.4l-0.4,0.4v-0.4L74.3,41.7L74.3,41.7z M67.4,49.2v-5.5h3v5.5H67.4
		L67.4,49.2z M68,41h0.4l0.2-0.4l0.2,0.4h0.4L69,41.4l0.4,0.4H69v0.4l-0.4-0.4l-0.4,0.4v-0.4h-0.4l0.4-0.4L68,41L68,41z M71.4,46.7
		h0.4l0.2-0.4l0.2,0.4h0.4l-0.2,0.4l0.4,0.4h-0.4v0.4L72,47.5l-0.4,0.4v-0.4h-0.4l0.4-0.4L71.4,46.7L71.4,46.7z M73.3,42.1
		c0-0.2-0.2-0.2-0.4-0.2c-0.2,0-0.4,0.4-0.6,0.4s-0.2,0-0.2-0.2s0.4-0.2,0.4-0.4c-1.8,0-2,0.8-2.2,0.8c-0.4,0,0.4-1,0.6-1.2
		c-0.4,0-0.6-0.6-1-0.8c0.2-0.2,0.4-0.2,0.6,0c0-0.2,0.2-0.4,0.6-0.4c0.8,0,0.6,0.8,0.8,0.8c0.2,0,0-0.8,0.6-0.8
		c0.8,0,1.8,2.2,1,2.2C72.9,42.5,73.3,42.3,73.3,42.1L73.3,42.1z M71.2,36l0.4-0.4l-0.2-0.4h0.4l0.2-0.4l0.2,0.4h0.4l-0.2,0.4
		l0.4,0.4h-0.4v0.4L71.9,36l-0.4,0.4V36H71.2L71.2,36z M70.4,33.9v5.9h-3v-5.9H70.4L70.4,33.9z M76.1,64.4l-6.9-4.1
		c-1.2-0.8-1.8-2.2-1.8-3.7V50h8.7L76.1,64.4L76.1,64.4z M73.7,49.2v-5.5h2.6v5.5H73.7L73.7,49.2z M85,64.8l-3.2,2l0,0
		C81.6,67,81.2,67,81,67s-0.6-0.2-0.8-0.4l-3.2-2V49.8h8.1L85,64.8L85,64.8z M85,49.2h-8.1V33.9H85V49.2L85,49.2z M94.4,56.3
		c-0.2,1.6-0.8,3-1.8,3.7l-6.9,4.1V49.8h8.7L94.4,56.3L94.4,56.3z M94.4,49.2h-8.7V33.9h8.7V49.2L94.4,49.2z"/>
	<path class="st0" d="M75.7,55.1c0-0.2-1,0.4-0.8,0.4c0-0.4,0.6-1,0.8-1.2c0-0.4-0.6,0-1,0.2c1.6-2.4,0.6-1.4-0.4-1.2
		c1.4-1.6,1-1.6,0-1c0.8-0.6,1-1.4,1-1.8c-0.8,1-1.6,0.8-1.6,1.8c0,0.6-0.2,1.8-0.6,2c-0.4,0.4-0.2-1.8-1.2-1.8
		c-0.4,0-1.2,0-1.4,0.4c0.2,0,0.6,0.6,0.6,0.8s0.2,0.8-0.2,0.8c-0.4,0-0.8-0.8-0.8-1.2s0-0.2,0-0.8c0-1-1.6-2.2-2.2-2.2
		c0,0.6,0.8,0.8,0.8,1.6c-0.4,0-0.8-0.6-0.8-0.2c0,0.4,0.6,0.4,0.6,0.8c0,0.4-0.6-0.2-0.6,0.2s0.4,0.2,0.4,0.6c-0.2,0-0.4,0-0.6,0
		c0,0.2,0,0.2,0.2,0.4c0,0-0.2,0.2-0.2,0.8c0,1.8,1.2,2.8,2,2.8c0.6,0,0.6-0.4,0.6-0.6c0,0.4,0.4-0.2,0.4,0.4c0,0.6-0.6,0.4-0.6,0.8
		c0,0.6,1,0,1,0.8S71,59.5,71,59.9c0,0.2,1-0.4,1-0.4c0.2,0,0.2,0.8,0.6,0.8c0.2,0,0.4-0.8,0.6-0.8c-0.2,0,0.8,0.6,0.8,0.4
		c0-0.8-0.4-0.4-0.4-1s1.2-0.4,1-0.8c-0.2-0.2-0.2,0-0.4-0.4c0,0-1-1.4,0.2-0.6C75.5,57.9,75.7,55.3,75.7,55.1L75.7,55.1z"/>
	<path class="st0" d="M106,61.2c0.6,0,1-0.4,1-0.8s-0.4-0.8-1-0.8s-1,0.4-1,0.8C105.2,60.9,105.6,61.2,106,61.2L106,61.2z"/>
	<path class="st0" d="M102.3,63.4c0.6,0,1-0.4,1-0.8c0-0.4-0.4-0.8-1-0.8s-1,0.4-1,0.8S101.9,63.4,102.3,63.4L102.3,63.4z"/>
	<path class="st0" d="M57.2,68.7c0.6,0,1-0.4,1-0.8s-0.4-0.8-1-0.8s-1,0.4-1,0.8S56.6,68.7,57.2,68.7L57.2,68.7z"/>
	<path class="st0" d="M60.1,68.9c0.6,0,1-0.4,1-0.8s-0.4-0.8-1-0.8s-1,0.4-1,0.8S59.5,68.9,60.1,68.9L60.1,68.9z"/>
	<path class="st0" d="M141.3,29.5c1.4,1.6,1.8,4.3,0.8,6.3c-0.6,0-0.4-0.8-0.6-1.2c-1-1.8-1.8-4.1-1-6.3
		C141.3,28.3,140.9,29.3,141.3,29.5L141.3,29.5z"/>
	<path class="st0" d="M22.1,31.9c-0.4,1.2-0.4,3,0,3.9c-0.2,0.2-0.2-0.2-0.4-0.2c-2-1.4-1-4.1-1.6-6.1c0.2-0.2,0.4-0.2,0.4-0.2
		C21.5,29.9,21.9,30.9,22.1,31.9L22.1,31.9z"/>
	<path class="st0" d="M145.6,32.1c0.2,0.6-0.2,1.2-0.6,1.4c-0.4,0.2-1-0.2-1.2-0.6c-0.2-0.6,0.2-1,0.6-1.4
		C144.8,31.5,145.2,31.5,145.6,32.1L145.6,32.1z"/>
	<path class="st0" d="M19.1,34.3c-0.2,0.4-0.2,1-0.6,1.2c-0.4,0-0.8,0-1-0.2c-0.4-0.2-0.4-0.8-0.2-1c0.2-0.4,0.6-0.4,1-0.4
		C18.6,33.7,19,33.9,19.1,34.3L19.1,34.3z"/>
	<path class="st0" d="M147.6,35c0.2,0.4,0.2,0.6,0,0.8c-0.4,0.4-0.8,0.6-1.4,0.4c-0.4-0.2-0.4-0.6-0.6-0.8c0.2-0.4,0.4-0.8,0.8-1
		C147,34.5,147.2,34.8,147.6,35L147.6,35z"/>
	<path class="st0" d="M144.6,35c0.4,0.2,0.2,0.8,0,1s-0.6,0.6-1,0.6c-0.2-0.2-0.6-0.2-0.6-0.6c0-0.6,0.2-1,0.8-1.2
		C144.3,34.8,144.5,34.8,144.6,35L144.6,35z"/>
	<path class="st0" d="M141.1,35.8c0,0.6,0,1.2-0.6,1.4s-1-0.4-1.2-0.8c0-0.6,0.2-1,0.8-1.2C140.5,35.2,140.9,35.6,141.1,35.8
		L141.1,35.8z"/>
	<path class="st0" d="M24.5,36c0.2,0.6-0.4,0.8-0.6,1c-0.4,0.2-0.8-0.2-1-0.6c-0.4-0.4,0.2-0.6,0.2-1C23.7,35.2,24.3,35.6,24.5,36
		L24.5,36z"/>
	<path class="st0" d="M21.5,36.2c0,0.4-0.2,0.8-0.6,1s-0.8-0.2-1-0.4c-0.2-0.4,0-1,0.4-1.2C20.9,35.4,21.3,35.8,21.5,36.2L21.5,36.2
		z"/>
	<path class="st0" d="M129.1,36.4c0.4,1,1,2.4,1,3.5c-0.2,1,0.2,2.2-0.6,3c-0.8-0.2-0.8-1.2-1.2-1.6c-1-1.8-0.2-3.7,0.2-5.5
		C128.9,35.6,128.9,36.2,129.1,36.4L129.1,36.4z"/>
	<path class="st0" d="M19.1,37c0.2,0.6-0.2,1-0.6,1.2c-0.6,0.2-1-0.4-1.2-0.8c0-0.4,0.2-1,0.6-1.2C18.6,36.4,19,36.6,19.1,37
		L19.1,37z"/>
	<path class="st0" d="M137,38.6c0.6,1.4,0.8,3.2,0.2,4.7l-0.4,0.2c-0.8-1.4-1.8-2.6-2-4.1c0-1,0.2-2,0.6-3c0.4-0.2,0.6,0,0.8,0.4
		C136.2,37.6,136.4,38.2,137,38.6L137,38.6z"/>
	<path class="st0" d="M143.3,37.6c0,0.6-0.2,1-0.8,1.2c-0.4,0.2-1,0-1.2-0.6s0.2-1,0.6-1.2C142.5,36.6,142.9,37.2,143.3,37.6
		L143.3,37.6z"/>
	<path class="st0" d="M21.7,39.2c0,0.4-0.4,0.8-0.8,1c-0.4,0.4-0.8-0.2-1-0.4c-0.2-0.4-0.2-0.8,0-1.2s0.4-0.4,0.8-0.4
		C21.1,38.4,21.5,38.6,21.7,39.2L21.7,39.2z"/>
	<path class="st0" d="M23.9,39c0.2,0.4-0.4,0.8-0.6,1c-0.6,0.2-1-0.2-1.2-0.6c-0.2-0.6,0.2-0.8,0.6-1.2C23.3,38,23.5,38.4,23.9,39
		L23.9,39z"/>
	<path class="st0" d="M144.6,38.8c0,0.6-1,1.4-1.2,2c-0.6,1.4-1.8,2.4-3.2,2.8c-0.2,0.2-0.8,0.6-1.2,0.6c-0.2-1,0.8-2,1.4-2.8
		C141.7,40,143.1,39.2,144.6,38.8L144.6,38.8z"/>
	<path class="st0" d="M20.7,41c0.8,0.8,1.2,1.6,2,2.4c0,0.2-0.2,0.6-0.4,0.6c-2.4-0.2-4.1-2.6-5.3-4.3c0.2-0.6,0.8-0.2,1.2-0.2
		C19,39.8,19.9,40,20.7,41L20.7,41z"/>
	<path class="st0" d="M145.2,41.5c-0.2,2.2-1.2,4.3-3.2,5.3c-0.6,0.2-1.2,0.8-1.8,0.4c1-2.2,2.6-3.9,4.3-5.9h0.6L145.2,41.5
		L145.2,41.5z"/>
	<path class="st0" d="M135.8,42.9c0.2,0.8-0.2,1.2-0.8,1.4c-0.6,0-1-0.4-1.2-0.8c0-0.4,0.2-1,0.8-1.2c0.2-0.2,0.4-0.2,0.6-0.2
		C135.4,42.5,135.4,42.7,135.8,42.9L135.8,42.9z"/>
	<path class="st0" d="M18,43.5c1,0.6,1.8,1.6,2.8,2.4c-0.6,0.4-1.4,0-2.2,0c-1.8-0.6-2.8-2-4.5-2.6c0-0.6,0.8-0.4,1-0.6
		C16,42.7,16.8,43.1,18,43.5L18,43.5z"/>
	<path class="st0" d="M71.2,28.5c-2.8-1.2-4.7,1.8-7.5,1.4c-0.4,0.2-0.2,0.6-0.4,0.8c-0.2,0.2-0.4,0-0.6,0c-0.2-1.2-0.6-2.4-0.8-3.5
		c-0.2-0.4-0.2-1.2-0.4-1.8c-1.6-4.3,3.9-1,4.9-3.5c1-2.2-1.8-2.4-2.8-3.9v-0.6c-0.8-0.8-1.6-1-2.2-2.2c0.4-1.2,0.4-2.6,0.2-3.9
		c0-0.4-0.2-0.8-0.8-0.6c-1,1.4-1.6,2.4-2.6,3.5c-1-0.8-1.8-1.6-3-2.2c-0.8-0.2-1.4-0.8-2.4-0.6c-0.2,0.4,0,0.6,0.2,0.8
		c0,2,1,3.5,2.4,4.9l0.2,0.8c-1,2-0.6,4.3-1,6.7c-2.2,5.7-5.9,11.2-10.8,15.2c-2.8,3.2-6.3,6.3-6.7,10.6c-0.2,0.8,0.2,1.6-0.4,2
		C35.1,51.8,33.4,51,32,50c-2.4-1.6-5.5-1.4-7.1-4.3c-0.6-1.2,0.2-2.4,0.8-3.2c1.8-1.6,1.4-4.5,0.6-6.5c-0.2,0-0.2,0.2-0.4,0.2
		c-0.2,3-2.6,4.9-1.6,8.3c0.2,1,0.8,1.6,1,2.4c-0.4-0.2-0.8-0.2-1.2-0.2c-1.2-0.2-2.2-0.6-3.3-0.4c-2.4,1-5.5-0.2-7.3,1.8
		c-0.4,0-0.8,0.2-0.6,0.6c1.2,0,2.2,0.4,3.2,0.2c1.8,0.4,3-1.2,4.1-1.8h0.4c0.4-0.6,1.4-0.2,2-0.4c3.2,0.4,5.5,1.8,8.1,3.3v0.2
		c-1,0.4-2.2,0.8-3.2,1.4c-1.2,0.8-2.4,2-2.8,3.3c-0.8,1.2,0.2,2.4,0.8,3.3c0,0.6,0.2,1.2,0.6,1.4c1.6-1.8,0.2-3.7,0.4-5.7
		c0.4-1.6,1.8-2.2,3.2-2.6c2.8-1.2,4.9,1.2,7.1,2.4c0,2.4,0.2,4.5-0.2,6.7c-0.8,0.2-1.6,0.4-2.4,0.4c-3.9,0.4-7.1,2.4-10.6,3.7
		c-1.6,0.6-3.5,0.6-5.1,1.2c1.2,0.4,2.6-0.2,3.7-0.2c4.9-0.8,8.7-4.5,13.8-3.7l0.2,0.2c-0.6,1.2-1.4,2.4-2.4,3.3
		c-0.2-0.6-0.2-1-0.8-1.4c-0.4-0.2-0.8,0-1.2,0.4c-0.2,0.2-0.2,0.6,0,0.8c0.2,0.4,0.6,0.6,1,0.8c-0.2,0.4-0.6,0.6-1,1
		c-1.4,2.4-4.3,1.4-5.9,3.2c-0.2,0.4-1.2,0.6-0.8,1.2c2,0.2,3.7-0.4,5.1-1.4c1.8-2,3.7-3.9,5.7-5.9c0.4,1.6-0.2,3.3-1.2,4.5
		c-0.4-0.2-0.8-0.6-1.4-0.8c-0.6,0.2-0.8,0.6-1,1c0.2,0.4,0.4,0.8,0.8,1c-1.8,1.2-3.7,1.4-5.7,1.8c-3.5,0.4-7.1,0.8-10.8,0.8
		c-1.8-0.2-3.7,0.6-5.3,0c-2,0.4-3.9-0.2-5.5,0.8c-0.2,0.2,0,0.6,0,0.8c2.4,1.6,5.5,0.4,8.1,0.8h19.7c1.4,0,3-0.2,4.1-0.8
		c2.6-1.4,3.9-4.1,5.3-6.7c0.4-1,0.8-2,1-3c0.4-1.8,2-3,3.7-3.2c0.2,2.6-0.2,5.1-0.8,7.7c-0.4,1.6-1.4,3.2-0.8,4.9
		c0.2,0.8,1,0.8,1.6,1c6.1-0.2,12-0.4,18.3,0.2c1.2,0.2,2.2,0.6,3.3,0.6c0.2-0.2,0.4-0.2,0.4-0.6c-0.2-0.6-0.6-1.2-1.2-1.4
		c-0.2-0.4-0.6-0.2-0.8-0.4c-3.2-1.8-7.1-0.8-10.8-0.8c-2,0.2-3.9,0.6-5.5-0.6c-0.8-1-0.2-3.7-0.2-3.7c0-1.2,2.8-9.1,3.2-9.7
		c0.2-0.8,0.4-1.4,0.4-2.4c1.4-1,1.4-2.2,1.4-3.3c0.2-1.6,1-3.2,1.6-4.7c0.2-0.8,0.6-1.6,0.8-2.4c0.4-1,0.4-1.8,1-2.6
		c1.6,1,3.2,1,3.9,2.8l0.8,4.1c0,0.2,0.2,0.8,0.6,0.4c1.4-0.8,1-2.8,1-4.1c0.2-1.6-0.8-2.4-1.2-3.7c-0.4-0.2-1-1.4-1-1.4
		c-0.2-1.2-2.6-1.8-2-3.2c0.4-1.2,0.6-2.2,1.8-3c0.2,0.2,0.2,0.2,0.2,0.4h0.4V31c1.6,0,3.9,0.2,5.7,0.2c0.4,0.2,0.8,0.6,1.4,0.6
		l0.4-0.6l3.9-0.8C73.9,30.5,72.7,28.5,71.2,28.5L71.2,28.5z"/>
	<path class="st0" d="M75.5,30.3c0.2,0,0.2,0,0.4,0H75.5L75.5,30.3z"/>
	<path class="st0" d="M32.2,44.3c0,0.6-0.4,1-0.8,1.2c-0.4-0.2-0.8-0.2-1-0.6c-0.2-0.6,0.4-1,0.8-1.2C31.6,43.9,32.2,43.9,32.2,44.3
		L32.2,44.3z"/>
	<path class="st0" d="M29,44.3c0.4,0.4,0.4,0.8,0.2,1.2c-0.4,0.4-1,0.6-1.2,0.2c-0.4-0.4-0.6-0.6-0.4-1C28,44.3,28.6,43.9,29,44.3
		L29,44.3z"/>
	<path class="st0" d="M98.3,44.9L98.3,44.9"/>
	<path class="st0" d="M136.2,45.7c0.2,0.6-0.2,1-0.6,1.2c-0.6-0.2-1.2-0.2-1.2-1c0-0.4,0.4-0.6,0.8-0.8
		C135.6,45.1,136,45.5,136.2,45.7L136.2,45.7z"/>
	<path class="st0" d="M138.9,45.7c0.2,0.2,0.4,0.6,0.2,1c-0.2,0.2-0.4,0.2-0.4,0.4c-0.6,0.2-1-0.2-1.2-0.6c-0.2-0.6,0.4-0.8,0.8-1
		C138.3,45.3,138.5,45.5,138.9,45.7L138.9,45.7z"/>
	<path class="st0" d="M16.4,46.3c-0.2,0.6-0.8,0.8-1.4,0.6c-0.2-0.2-0.4-0.4-0.4-0.6c0-0.4,0.2-0.8,0.6-0.8
		C15.8,45.5,16.4,45.7,16.4,46.3L16.4,46.3z"/>
	<path class="st0" d="M33.3,47.1c0,0.4-0.6,0.8-0.8,1c-0.6,0-0.8-0.4-1.2-0.8c0-0.4,0.2-1,0.6-1C32.5,46.1,33.1,46.7,33.3,47.1
		L33.3,47.1z"/>
	<path class="st0" d="M30.4,46.9c0.2,0.2,0.4,0.6,0.2,0.8c-0.4,0.2-0.8,0.8-1.2,0.4c-0.4-0.2-0.6-0.4-0.6-1c0.2-0.2,0.4-0.6,0.8-0.6
		C29.8,46.3,30,46.7,30.4,46.9L30.4,46.9z"/>
	<path class="st0" d="M146.4,47.5c0,0.4-0.4,0.8-0.6,1c-0.4,0.2-0.8,0-1.2-0.2c-0.2-0.2-0.2-0.6-0.2-0.8c0.2-0.4,0.6-0.6,1-0.6
		C146,46.9,146.2,47.1,146.4,47.5L146.4,47.5z"/>
	<path class="st0" d="M149.8,47.9c-0.2,0.4-0.4,0.8-1,1c-0.4,0-0.8-0.2-0.8-0.6c0-0.4,0.2-0.8,0.4-0.8
		C149,47.1,149.6,47.3,149.8,47.9L149.8,47.9z"/>
	<path class="st0" d="M22.1,48.4c0.2,0.6-0.2,1-0.6,1.2s-0.8,0-1-0.2s-0.4-0.6-0.2-1s0.6-0.4,0.8-0.6C21.7,48,21.9,48.2,22.1,48.4
		L22.1,48.4z"/>
	<path class="st0" d="M24.7,49c0.2,0.4-0.4,0.6-0.4,0.8c-0.2,0.2-0.6,0.4-1,0.2c-0.4-0.4-0.8-0.8-0.4-1.2C23.3,48,24.3,48.4,24.7,49
		L24.7,49z"/>
	<path class="st0" d="M143.5,48.8c0,0.4-0.4,0.8-0.8,1.2c-0.4,0.2-1-0.2-1-0.6c0-0.4,0.2-0.8,0.6-1
		C142.9,48.2,143.3,48.2,143.5,48.8L143.5,48.8z"/>
	<path class="st0" d="M147.6,49.6c-0.2,0.4,0,1-0.6,1.2c-0.4,0.2-1,0-1.2-0.2s-0.4-0.8-0.2-1c0.2-0.4,0.8-0.8,1.2-0.6
		C147.2,49,147.4,49.4,147.6,49.6L147.6,49.6z"/>
	<path class="st0" d="M20.3,50.6c0.2,0.4-0.2,0.6-0.4,0.8c-0.4,0.2-0.8,0-1-0.2c-0.4-0.2-0.2-0.8-0.2-1C19.1,49.4,20.1,50,20.3,50.6
		L20.3,50.6z"/>
	<path class="st0" d="M144.5,51.6c0.2,0,0.2,0.4,0,0.4c-1.2,0.6-3,0.8-3.9-0.2c-0.6-0.6-1.4-0.8-2-1.2c0.2-0.6,1.2-0.6,1.8-0.8
		C141.7,50.2,142.9,51.6,144.5,51.6L144.5,51.6z"/>
	<path class="st0" d="M22.7,51c0.2,0.4-0.2,0.6-0.4,0.8c-0.2,0.4-0.6,0.2-0.8,0.2c-0.4-0.4-0.6-0.8-0.4-1.2
		C21.7,50.2,22.3,50.6,22.7,51L22.7,51z"/>
	<path class="st0" d="M27,51.4c0.2,0.4-0.2,0.8-0.4,1.2c-0.4,0.2-0.6-0.2-1-0.2c-0.2-0.4-0.8-0.8-0.2-1.2
		C25.8,50.4,26.6,50.8,27,51.4L27,51.4z"/>
	<path class="st0" d="M84.6,53.6c-0.2,1-1.8-0.2-1.6,1.2c0.2,1,0.4,2.2,1,2.8c0.4,0.6,0.2,1.8,0.2,2.6c-0.4,0.8-1.2,1.2-2,1.6
		c-1.4-0.2-3.5,0.8-4.1-1c-0.2-0.8-0.8-1.6-0.8-2.4c0.2-0.2,0.4-0.2,0.4-0.2c0-0.4-0.4-0.6-0.4-0.8c1.6-0.2-0.6-1.8,0.8-1.8
		c1.2,1.2,3,0.8,3.9,2.2c0.2,0.2,0.4,0.4,0.8,0.6c-0.2-1.2-0.8-2.4-1-3.7C81.6,54,82,53.2,82.4,53C83.4,52,84.2,53,84.6,53.6
		L84.6,53.6z"/>
	<path class="st0" d="M31.4,53.2c0.2,0.6-0.2,0.8-0.6,1s-0.8-0.4-1-0.6c-0.2-0.6,0.2-0.8,0.6-1C30.8,52.8,31.2,52.8,31.4,53.2
		L31.4,53.2z"/>
	<path class="st0" d="M62.1,53.8c0.6,2,0.4,3.9-0.6,5.7c0,0.4,0.2,1-0.4,1c-1.4-1.8-0.4-4.5,0.2-6.5C61.3,53.4,62.1,53.2,62.1,53.8
		L62.1,53.8z"/>
	<path class="st0" d="M104.9,54.6c0.8,1.4,0.8,3.3,0.2,4.7l-0.4,0.4c-0.6-1.2-1-2.4-1.2-3.5c0.2-1,0.6-1.8,0.6-2.6
		C104.7,53.4,104.7,54.4,104.9,54.6L104.9,54.6z"/>
	<path class="st0" d="M35.3,55.1c-0.4,0.6-1.2,0.8-1.8,1.2c-1.2,1-3,1.2-4.3,0.8c1.4-1.8,3.3-3,5.7-2.4
		C34.9,55.1,35.3,54.9,35.3,55.1L35.3,55.1z"/>
	<path class="st0" d="M14.8,56.9c1.8,1.4,2.4,3.2,3.3,4.9c0.2,0.2,0.6,0.2,0.4,0.6c-0.4,0.4-0.8-0.4-1.4-0.2c-2-0.8-3.2-3-3-5.1
		C14.4,56.9,14.6,56.9,14.8,56.9L14.8,56.9z"/>
	<path class="st0" d="M102.9,58.5c0,0.6,0,1-0.4,1.2c-0.6,0.2-1-0.2-1.2-0.6c-0.2-0.4,0.2-0.6,0.2-0.8
		C101.9,57.9,102.5,58.1,102.9,58.5L102.9,58.5z"/>
	<path class="st0" d="M123.8,61.2c0-1,0.2-1.8,0.4-2.8c0.2-0.4,0.2-0.6,0.2-1c1.2-1.6,3.5-1.2,5.5-1c0.8,0.4,1.8,0.4,2.6,0.6
		c0.4-0.2,0.8-0.4,1.2-0.2c1.6-0.8,0.6-2.8,0.6-4.1l-0.6-1.6c-0.2-0.4-0.4-0.6-0.4-1c-0.2-0.4-0.4-1-0.8-1.4
		c-0.8-2.2-2.6-3.5-3.9-5.1c-2.6-3.3-6.5-5.1-10.4-6.5s-7.9,0.4-11.4,1.6c-1-0.4-1.6-1.2-2-2.2c-0.2-2,0.2-3.7,1-5.3
		c0.2-1.2,1-2.2,1.4-3.3c1-2.8,1.8-5.5,2-8.7c0.2-1.8-1.4-3.2-2.8-3.9c-1-0.2-2-0.2-2.8,0.6c-0.6,1.4-2,2.4-3.2,3
		c-0.2,0.8,1,0.4,1.4,0.6c1.2,0.2,2.4-0.2,3.2,0.6c0.2,2-1,3.7-2.2,5.1c-1.8,2.6-3.5,5.1-4.5,7.9L98,32.9l0.2,12.2
		c1.6,2.6,3.5,5.7,6.5,6.7c1.6,1.4,3.5,3,5.7,1.8c1.2-0.4,1.2,1.2,1.8,2c0.6,1.8-0.8,3.2-0.8,4.9l-1.4,2.8c-1.6,3-2.8,6.1-5.1,8.5
		c-0.8,0-1.2,0.8-2,0.8c-0.4,0.6-1.2,0.2-1.8,0.4c-1.6,0.6-3.7,0.2-4.7,1.8c0.2,0.2,0.2,0.2,0.4,0.2c3,0,6.5,0.2,9.7,0.2
		c0.4-0.2,0.8-0.6,0.8-1c-0.4-0.8,0.2-1.6,0.6-2.2c0.2-1.2,1-2,1.4-3.2c1-2,2.2-4.1,3.3-6.1l1.6-2.6c0.4-0.8,1-2,1.6-2.8
		c0.4-0.4,0.6-0.8,1-1.4c0-0.6-0.2-0.8-0.4-1c0.4-0.4,1-0.2,1.4-0.4c1.2,0.8,2.6,2,2.8,3.3l0.4,1.4l0.2,0.6l-0.2,1.6V63
		c0.2,2.4-0.2,4.9-0.4,7.3c-0.8,3-4.1,2.6-6.5,3.3c-0.6,0.4-1.8,0.2-1.8,1.2c3,0.6,6.3,0.2,9.3,0.2c0.4-0.2,0.6-0.6,0.8-1.2
		c0.2-0.6,0.8-1.2,0.6-2c-0.6-0.8,0-1.8-0.2-2.8c0.2-0.2,0.2-0.6,0-1c0.4-1.4,0.4-3.2,0.6-4.5L123.8,61.2L123.8,61.2z"/>
	<path class="st0" d="M148.4,59.3c-1.6,2.2-3.3,4.7-6.1,5.7c-0.2,0-0.4,0.2-0.4-0.2c1.8-1.8,2.6-4.5,5.3-5.3
		C147.4,59.3,148,59.1,148.4,59.3L148.4,59.3z"/>
	<path class="st0" d="M12.5,61.6c-0.2,0.2,0,0.6-0.4,0.8s-0.8,0-1-0.4c-0.2-0.6,0.2-1,0.6-1.2C11.9,61.1,12.3,61.2,12.5,61.6
		L12.5,61.6z"/>
	<path class="st0" d="M26.8,62.4c0.2,0.4-0.4,0.4-0.6,0.6c-2.2,0.8-4.1,0-5.7-1.4c0-0.2,0-0.4,0.2-0.4
		C22.7,61.6,25.1,61.2,26.8,62.4L26.8,62.4z"/>
	<path class="st0" d="M15.2,61.8c0.2,0.2,0.2,0.6,0.2,0.8C15,63,14.6,63.2,14.2,63c-0.4-0.2-0.4-0.4-0.6-0.6c0-0.6,0.4-0.8,0.8-1
		C14.6,61.4,14.8,61.4,15.2,61.8L15.2,61.8z"/>
	<path class="st0" d="M61.7,62c0.2,0.4-0.4,0.8-0.6,1c-0.4,0.2-0.8-0.2-1-0.4c-0.2-0.4,0-0.8,0.4-1C60.9,61.4,61.7,61.6,61.7,62
		L61.7,62z"/>
	<path class="st0" d="M150.2,62.2c0.2,0.4-0.2,0.8-0.6,1c-0.4,0.2-0.6,0-1-0.2c0-0.2-0.4-0.4-0.2-0.8c0.2-0.4,0.6-0.6,1.2-0.6
		C149.8,61.8,150,62,150.2,62.2L150.2,62.2z"/>
	<path class="st0" d="M153.5,62c0.4,0.4,0,0.8-0.2,1.2s-0.6,0.4-1,0.4c-0.4-0.4-0.8-0.4-0.8-1c0-0.4,0.4-0.8,0.8-0.8
		C152.9,61.4,153.1,62,153.5,62L153.5,62z"/>
	<path class="st0" d="M10.3,63.4c0,0.4-0.2,0.6-0.4,0.8c-0.2,0.2-0.4,0.4-0.8,0.2c-0.4-0.2-0.6-0.4-0.8-0.8c0.2-0.4,0.4-0.8,1-1
		C9.7,62.8,10.1,63,10.3,63.4L10.3,63.4z"/>
	<path class="st0" d="M115.1,63.4c0.2,0.2,0,0.4,0,0.6c-0.4,0.4-0.8,0.8-1.2,0.4c-0.4-0.4-0.6-0.6-0.4-1
		C113.9,63,114.7,62.8,115.1,63.4L115.1,63.4z"/>
	<path class="st0" d="M18.4,64.2c-0.2,0.4-0.2,0.8-0.8,0.8s-0.6-0.4-0.8-0.6c0-0.4,0-1,0.4-1.2C17.8,63,18.4,63.6,18.4,64.2
		L18.4,64.2z"/>
	<path class="st0" d="M13.6,64.4c0.2,0.6-0.2,0.8-0.4,1.2c-0.6,0.2-1.2-0.2-1.4-0.8c0-0.4,0.4-1,1-1.2C13,63.6,13.2,64,13.6,64.4
		L13.6,64.4z"/>
	<path class="st0" d="M118.4,64.2c0.2,0.4,0,1-0.6,1.2s-1.2-0.4-1.4-0.8c0.2-0.4,0.4-1,1-1C117.9,63.6,118.2,63.8,118.4,64.2
		L118.4,64.2z"/>
	<path class="st0" d="M15.8,64.4c0.2,0.4-0.2,0.6-0.2,0.8c-0.2,0-0.4,0.4-0.8,0.2c-0.2-0.2-0.6-0.4-0.6-0.8c0-0.6,0.4-0.8,0.6-1
		C15.4,63.6,15.8,64,15.8,64.4L15.8,64.4z"/>
	<path class="st0" d="M147.4,64.8c-0.2,0.4-0.4,0.6-0.8,0.8c-0.4,0.2-0.6-0.2-1-0.4c-0.2-0.2-0.2-0.6,0-1
		C146,63.4,147.4,63.8,147.4,64.8L147.4,64.8z"/>
	<path class="st0" d="M151.2,65c-0.2,0.6-0.8,0.8-1.2,0.8c-0.4-0.2-1-0.6-0.6-1.2c0.2-0.2,0.2-0.4,0.6-0.4
		C150.6,64,151.2,64.6,151.2,65L151.2,65z"/>
	<path class="st0" d="M127.7,65.4c0.2,0.6-0.4,0.8-0.8,1.2c-0.4,0-0.6-0.2-1-0.4c-0.2-0.6,0.2-1,0.8-1.4
		C127.1,64.8,127.3,65,127.7,65.4L127.7,65.4z"/>
	<path class="st0" d="M113.9,66c0.2,0.2,0.2,0.4,0.2,0.6c-0.4,0.2-0.8,0.8-1.2,0.4c-0.4-0.2-0.6-0.6-0.6-1
		C112.5,65.6,113.7,65.4,113.9,66L113.9,66z"/>
	<path class="st0" d="M116.7,66.4c0,0.4,0,0.6-0.4,0.8c-0.4,0.4-0.8,0-1.2-0.2c-0.2-0.2-0.2-0.6,0-0.8s0.4-0.4,0.6-0.4
		C116.1,66,116.5,66,116.7,66.4L116.7,66.4z"/>
	<path class="st0" d="M32.2,66.4c0.4,0.4,0,0.6-0.2,1s-0.8,0.6-1.2,0.2c-0.4-0.2-0.4-0.8-0.4-1.2c0.4-0.2,0.4-0.4,0.8-0.4
		C31.8,66,32,66.2,32.2,66.4L32.2,66.4z"/>
	<path class="st0" d="M133,66.6c0.2,0.6-0.4,0.8-0.8,0.8c-0.6,0.2-1-0.2-1.2-0.6c0-0.4,0.2-0.4,0.4-0.8
		C132,65.8,132.6,66.2,133,66.6L133,66.6z"/>
	<path class="st0" d="M130.3,66.6c0.2,0.6-0.4,0.8-0.6,1c-0.4,0.2-0.8,0.2-1.2-0.2c-0.2-0.2-0.2-0.4-0.2-0.8
		c0.4-0.2,0.4-0.6,0.8-0.6C129.7,66,130.1,66.2,130.3,66.6L130.3,66.6z"/>
	<path class="st0" d="M152.7,67.2c0.2,0.8-0.8,0.4-1.2,0.6c-2.2,1.2-4.7,0.4-6.7-0.4c0.2-0.6,1-0.4,1.4-0.6
		C148.2,65.2,150.4,67,152.7,67.2L152.7,67.2L152.7,67.2z"/>
	<path class="st0" d="M16.4,66.6L16.2,67c-1.8,1.2-4.1,1.8-6.5,1.2l-0.2-0.4C11.5,66.4,13.8,66.2,16.4,66.6L16.4,66.6L16.4,66.6z"/>
	<path class="st0" d="M138,67c0,0.4-0.2,0.8-0.4,1c-0.4,0.2-1.2,0-1.4-0.6c-0.2-0.4,0.2-0.8,0.6-1C137.2,66.4,137.8,66.4,138,67
		L138,67z"/>
	<path class="st0" d="M25.3,67.2c-0.2,0.4-0.2,0.8-0.6,1s-1.2-0.2-1.2-0.6c-0.2-0.6,0.2-0.8,0.4-1C24.7,66.2,25.1,66.8,25.3,67.2
		L25.3,67.2z"/>
	<path class="st0" d="M21.9,67.4c0.2,0.4-0.2,0.6-0.2,0.8c-0.2,0.4-0.8,0.2-1,0.2c-0.4-0.4-0.8-0.6-0.6-1.2c0.4-0.2,0.4-0.4,0.8-0.6
		C21.3,66.8,21.7,67,21.9,67.4L21.9,67.4z"/>
	<path class="st0" d="M141.5,68.5c0,0.4-0.4,0.8-0.8,1c-0.4,0-0.8-0.2-1-0.6s-0.2-0.8,0.2-1c0.2-0.2,0.4-0.2,0.6-0.2
		C141.1,67.8,141.5,68.1,141.5,68.5L141.5,68.5z"/>
	<path class="st0" d="M18.2,67.9c0.2,0.4-0.2,0.6-0.2,0.8c-0.2,0.8-0.8,1.4-1,2.2c-1,1.2-2.4,1.2-3.5,1.6l-0.2-0.4
		C14.4,70.3,16,68.7,18.2,67.9L18.2,67.9L18.2,67.9z"/>
	<path class="st0" d="M138.9,69.1c0.2,0.6-0.4,0.8-0.8,1c-0.4,0-0.8-0.2-1-0.6c-0.2-0.6,0.4-0.8,0.6-1
		C138.3,68.3,138.9,68.7,138.9,69.1L138.9,69.1z"/>
	<path class="st0" d="M23.9,69.1C23.9,69.3,23.9,69.3,23.9,69.1c0.2,0.8-0.2,1-0.6,1.2c-0.4,0-0.8-0.2-1.2-0.4c-0.2-0.4,0-1,0.4-1.2
		C23.1,68.5,23.7,68.5,23.9,69.1L23.9,69.1z"/>
	<path class="st0" d="M148.2,70.5c0.4,0,0.6-0.6,1.2-0.8c0.4-0.2,1,0.2,1.2,0.6c0.2,0.6-0.2,1-0.6,1.2c-0.4,0.2-1.2-0.4-1,0.4
		c0.4,0.2,0.6,0.6,0.8,1c-0.2,0.2-0.4,0.2-0.6,0c-1.4-0.6-3-1.6-3.5-3.2c-0.2-0.4-1.2-0.8-0.6-1.2C146.2,68.5,147.4,69.7,148.2,70.5
		L148.2,70.5z"/>
	<path class="st0" d="M152.9,69.1c0.2,0.2,0.2,0.8,0,1c-0.2,0.6-1,0.4-1.4,0.2c-0.2-0.2-0.4-0.6-0.4-1c0.2-0.4,0.4-0.4,0.8-0.6
		C152.3,68.5,152.5,68.7,152.9,69.1L152.9,69.1z"/>
	<path class="st0" d="M134.8,71.7c0.4,0.6,1,1.4,1.2,2c-0.2,0.2-0.4,0.2-0.4,0.2c-1.8-1-3.9-2-4.5-3.9c-0.2-0.2-0.6-0.4-0.4-0.8
		c1.4-0.2,2.6,0.8,3.3,1.4C134.2,70.9,134.6,71.3,134.8,71.7L134.8,71.7z"/>
	<path class="st0" d="M21.1,69.9c0.2,0.4-0.2,0.8-0.4,1c-0.6,0.2-0.8-0.2-1.2-0.4c-0.4-0.6,0.4-1,0.8-1.2
		C20.5,69.1,20.7,69.5,21.1,69.9L21.1,69.9z"/>
	<path class="st0" d="M141.1,71.1c0,0.4-0.4,0.6-0.4,0.8c-0.4,0-0.8,0.2-1.2-0.2c-0.2-0.2-0.4-0.6,0-1
		C139.9,69.9,140.7,70.5,141.1,71.1L141.1,71.1z"/>
	<path class="st0" d="M153.5,71.7c0.2,0.6-0.4,1-0.8,1.2s-1-0.2-1.2-0.4c-0.2-0.4,0-0.6,0-1c0.4-0.4,0.8-0.6,1.4-0.4
		C153.1,71.3,153.3,71.5,153.5,71.7L153.5,71.7z"/>
	<path class="st0" d="M119,78.6c0,0.6-1.2,0.4-1.6,1c-1.6,0.8-3.3,0.8-5.3,0.8V80C114.1,78.4,116.7,78,119,78.6L119,78.6z"/>
	<path class="st0" d="M46.3,80.8c0,0.4-0.4,0.8-0.8,0.8c-0.4,0-0.8-0.2-0.8-0.4c-0.2-0.6,0.4-0.8,0.6-1.2
		C45.9,80.2,46.3,80.4,46.3,80.8L46.3,80.8z"/>
	<path class="st0" d="M118.2,81.3c-0.2,0.4-0.2,1-0.8,1.2c-0.4,0.2-0.8-0.2-1.2-0.4c-0.2-0.2-0.2-0.6-0.2-0.8
		C116.5,80.4,117.9,80.4,118.2,81.3L118.2,81.3z"/>
	<path class="st0" d="M128.1,81.5c-1.2,0.8-2.6,1.8-4.3,1.8H121l-0.2-0.2C122.4,81.1,125.5,81.1,128.1,81.5L128.1,81.5L128.1,81.5z"
		/>
	<path class="st0" d="M32.7,82.7c0,0.4-0.2,0.8-0.6,1c-0.4,0.2-0.8-0.2-1-0.4c-0.2-0.4,0-1,0.4-1.2C32,81.7,32.5,82.3,32.7,82.7
		L32.7,82.7z"/>
	<path class="st0" d="M35.3,83.3c0.2,0.2-0.2,0.4-0.2,0.6c-0.2,0.2-0.8,0.2-1,0c-0.4-0.2-0.4-0.6-0.4-0.8c0.2-0.4,0.4-0.2,0.6-0.4
		C34.7,82.7,35.1,82.9,35.3,83.3L35.3,83.3z"/>
	<path class="st0" d="M16.2,88.2c-0.4,0.6-1.4-0.2-1.8-0.4c-1.8-1-1.8-3-3.3-4.1c0.2-0.6,0.6,0,1,0c0.4,0.2,0.8,0.4,1,0.6
		C14.6,85.3,15,86.9,16.2,88.2L16.2,88.2z"/>
	<path class="st0" d="M161.4,68.9c-0.8-1.4-2.2-2-3.7-2c-1.4,0.2-2.2,1-2.8,2c-0.4,1.2,0.2,2.2,1,2.8c0.4,0.2,0.8,0.2,1-0.2
		c0.2-0.6-0.4-0.6-0.6-1.2c-0.2-0.8,0-1.4,0.6-1.8c0.4-0.6,1.4-0.2,2-0.2c0.6,0.4,1.2,0.8,1.6,1.4c0.4,0.8,0.4,1.8,0,2.6
		c-0.6,1.2-1.8,2.2-3.2,2.6c-4.1,0.6-49.5,0.4-49.5,0.4c-5.3,0.6-11.4-1-16,1.8c-2.2,1-3.2,3.3-3.7,5.3c-1.4,1.2-2.8,2.6-3.9,3.9
		L84,86.1c0.2-1.2,0.8-2.4,1-3.5c0.8-1,0.8-2.4,1.4-3.5c2-3.2,3.7-6.1,6.7-8.3c1.2-1.6,3.3-1.4,5.3-1.4c2,1,4.3,1.2,6.9,1
		c0.2-0.2,0.2-0.2,0.2-0.4c-0.8-0.6-1.8-1-2.6-1.6c-2-1-3.9,0.4-5.9,0.2c-0.2-0.2-0.2-0.2-0.2-0.4c2-1.4,4.1-2.4,6.1-3.3
		c1.8-1,3.5-1.4,5.5-2.2c0.8,0,1.4-0.6,2.2-0.2l2.6-0.8c0.2,0,0.2,0.2,0.4,0.2c2.2-0.8,5.1,0,7.7-0.2l0.4,0.4l2.4,0.6
		c1,0.2,1.4,1.2,2.2,1.2c0.4-0.8-0.6-1-0.8-1.4c1.2-0.2,2.4,0,3.3,0.6l-0.4,0.6c-0.2,0.6,0.2,1,0.6,1.2c0.4,0.2,0.6-0.2,0.8-0.2
		c0.6-0.4,0-1,0.2-1.4c3.7,0.6,7.3,1.6,10.6,3c1,0.4,1.8,1,3,1c-1-1-2.6-1.4-3.7-2c-0.8-0.6-2-0.6-2.8-1.2c0.2-0.2,0.4-0.2,0.6-0.4
		c1.8-0.2,3.2-1.4,4.3-2.8c0.2-0.4,0.6-0.2,0.6-0.6c-0.4-0.6-1.2,0.2-1.8,0.2c-2.2,0.4-3,3-5.1,3.3c-2.6-0.6-5.1-1.2-7.7-1.8
		c-1.2-0.2-2.6-0.4-3.7-0.8l-2.8-0.2h-5.1c0-0.2-0.2-0.2-0.2-0.4c1.8-0.4,3.3-1.6,5.1-2l13.4-6.1c1.4-1.2,2.6-2.6,3.7-4.1
		c0-0.4-0.2-0.8-0.6-1c-0.4-0.2-0.8-0.2-1,0.2c-0.6,0.4,0,1,0,1.6c-0.6,0.8-1.6,1.6-2.4,2c-0.2,0-13.8,6.1-13.8,6.1
		c-2,0.8-3.9,1.8-6.1,2.2l-3,0.4c-0.2,0.6-0.8,1-1.2,1.2c-0.8,0.2-1.4,0.6-2.4,0.6c-6.5,2.6-13.2,5.1-18.3,10.2
		c0.4-0.6,0.4-1.4,0.4-2.2c-0.2-0.8,0-1.6-0.6-2.2c-0.2-0.2-0.4-1-0.4-1.4l-0.8,0.4c-0.4,1.2-0.8,3.2-0.4,4.3c0.2,1,1,2,0.2,2.8
		c-2.4,3-3.7,6.5-5.3,9.7c-0.6-0.2-1-0.6-1.2-1.2c1.8-2.2,3-4.5,3.5-7.3c0.4-0.2,0.2-1,0.4-1.2c-0.2-0.8,0.4-1.6,0-2.4
		c0.4-1-1.4-2.2-0.4-2.8l-1,0.4c-2.2,2.8,1.2,7.1-1.4,9.7v0.2c-0.8,1-1,1.8-2,2.4c-1.2-0.4-1.6-1.8-2.4-3c-1.2-1-1.2-3.2-0.4-4.7
		c0.4-1.4-0.4-2.8-0.4-3.9L77,69.1c-1.2,1.6-1.6,3.9-0.8,5.9c0.4,1,0.6,2.2,1.4,3c0.4,1.4,1.4,2.4,2.2,3.7c0.2,0.6-0.4,0.6-0.6,0.8
		c-0.6-0.4-0.4-1.2-1-1.6c-1.6-3.5-3.7-6.3-6.3-9.3c-0.2-0.4-0.6-0.8-0.4-1.4c1-1,1.2-2.6,0.6-3.7c-0.2-0.2-0.4-0.6-0.4-0.8
		l-0.8-0.6c0.2,1.8-1,3.3-0.6,5.1v0.2c-5.1-3.9-10.8-7.3-16.5-10l-0.4,1.2c1.4,0.4,5.3,2.8,5.3,2.8c1.8,0.6,3.3,1.8,4.9,2.6
		c6.7,3.7,11.2,10,14.4,16.9c0,0.6,0.6,1.2,0.2,1.8c-1-1.6-2.6-2.6-3.7-3.7c-0.4-2.4-1.8-4.5-3.7-5.5c-0.8-1.2-2.4-1.2-3.5-1.6
		l-18.1-0.2C34.5,74.4,21.1,75,6.5,74.8c-2-0.2-4.5-1-5.1-3.2c-0.4-0.8-0.4-2,0-2.8C2,67.9,3,67.8,4,67.6c0.8,0.2,1.4,0.8,1.8,1.4
		c0,0.6-0.6,1.2-0.8,1.8c0,0.2,0.2,0.6,0.6,0.4c0.6-0.2,1.2-1,1.4-1.6c0-0.4,0.2-0.8-0.2-1.2c-0.4-1-1.4-1.8-2.4-2
		c-1.2-0.2-2.6,0.2-3.3,1.2c-1.2,1-1.2,2.8-0.8,4.1c0.8,2.2,3.2,3.7,5.3,4.1L54,76c4.7,0.2,10-0.6,14.8,0.4c1.8,0.6,3.5,1.8,4.1,3.7
		c0,0.2-0.2,0-0.4,0c-3.9-2.6-9.1-3.5-14.2-3c-2-0.2-3.7,0.6-5.5,1.2c-1,0.2-1.8-0.2-2.4-0.8c-1.8-1.6-4.9-1.6-7.3-1
		c0,0.2,0,0.4,0,0.4c2.4-0.2,3.9,2,6.1,2.2c0.4,0.2,1-0.4,1.4,0c-2.4,1.2-4.5,2.4-6.9,3.2c-0.8-0.2-1.2-0.8-1.8-1.2
		c-1-1-2.8-0.6-3.9-0.8c-0.4,0.2-0.8-0.2-1.2,0c0.4,0.8,1.4,1.2,2.2,1.6c1.2,0.6,2.8,0,3.7,0.8c-0.4,0.4-0.8,0.4-1,0.8
		c-2.4,1-4.3,3-6.9,3c-2.8,0.4-5.5-0.6-7.3-2.4c-0.8-2-2.8-3-4.9-3c-0.2,0.2-0.4,0.2-0.4,0.4c1.2,0.6,2,2,3,2.8c0.8,0.8,2,0,2.8,1
		c1,0.6,2.2,1.2,3.2,1.4c0.8,0.4,1.8,0.6,2.6,0.8l-0.4,0.2c-4.5,1.6-9.9,1.6-14.8,1.4c-1.6,0-3-0.4-4.3-0.4c0.2,0.4,0.8,0.6,1.2,0.8
		c-0.4,0.2-0.8,0.4-1.4,0.4c-0.6,0.2-1.4,0.2-2,0.6c-0.8,0-1.6,0.2-2.2,0.4c-0.8,1-1.8,1.8-2.8,2.4c0,0.2,0,0.6,0.2,0.6
		c1-0.4,2.2-0.2,3.2-0.6c1.6-0.2,2.6-2,3.9-2.8c1.4-1.2,3.3-0.8,5.1-0.6c1,0.2-0.2,0.6,0.2,1.4c0.4,0.4,0.8,0.8,1.4,0.6
		c0.2-0.2,0.2-0.2,0.4-0.2c0.4-0.4,0.2-0.8,0-1.2c0.8-0.4,1.6,0,2.4-0.2c2,0,3.7-0.4,5.7-0.6c0.4,0,0.6-0.4,1,0
		c-0.2,0.4-0.6,0.4-0.4,1c0.2,0.4,0.6,0.6,1,0.8c0.4-0.2,1-0.6,0.8-1.2c-0.2-0.4-0.4-0.4-0.8-0.6c1-0.6,2.2-0.6,3.3-1.2
		c0.8-0.2,1.4-0.4,2.2-0.8c0.6,0,1.2-0.6,1.8-0.4c-0.2,0.8-0.6,1.6-1,2.4c-0.8,2.6-1.4,6.1,0,8.7c0.2,0,0.2,0,0.4-0.2
		c-1-2.6-0.4-5.7,0.4-8.3c0.8-4.3,5.1-5.5,8.3-7.1l0.2,0.2c-0.8,2.2-2.2,4.3-2,6.9c0.2,0.4-0.2,1,0,1.2c0.8-0.4,1.4-1.4,1.8-2.4
		c0.4-2.2-1-5.1,1.4-6.7c4.1-1.6,7.9-3.7,12.6-3.7c0.2,0.2,0.4-0.2,0.6,0.2c-1,1.2-2.4,2.2-3,3.5c-1.6,2.2-1.6,5.9-0.8,8.7
		c0.4,1.6-1,2.4-1.6,3.5c-0.4,0.4-0.4,1.2-0.6,1.6l1,0.2c0.8-1,1.6-2,1.8-3.3c0.2,0.6,0.6,1,1,1c0.4-0.6-0.4-1-0.4-1.6
		c0.8-0.4,1.2,0.6,1.8,0.8c1,0.2,2,0.8,3,0.8l0.4-0.4c-1.2-1.8-3.3-2-5.1-2.2c-1-1.6-1-3.7-1-5.7c0.2-1,0.4-2.2,1-3.2
		c0.2-0.8,1-1.4,1.4-2c1-0.8,2-1.4,3.2-1.8h0.2c0,0.2,0,0.2,0,0.2c-1.4,1-1.6,2.6-2.4,3.7c-0.8,1.2-1.2,3-0.4,4.3
		c0.4,0.6,0.2,1.6,0.8,2.2c0.6-1,0.8-2,1-3.2c-0.2-1.6-1.2-3.2-0.2-4.7c0.4-1.2,1.6-1.8,2.8-2.2c2.8-0.2,5.1,1.2,7.5,2.2
		c0.4,0.4,1.4,0.6,1.4,1.4c0,1.4-0.8,2.8-1.8,3.3c-1.4,0.8-3.3,1-4.5,0c-0.8-0.8-1-2-0.8-3.2c0.6-0.6,1.4-1.2,2.2-0.8
		c0.6,0.2,1,0.8,1.6,0.4c0.2-0.2,0.4-0.6,0.2-0.8c-0.6-0.4-0.8-1-1.6-1.2c-1-0.2-2.2-0.2-2.8,0.6c-1,1-1.4,2.4-1.2,3.5
		c0.4,1.6,1.6,2.8,3.2,3.2c2.4,0.6,4.7-0.2,6.1-2.2c0.6-0.6,0.8-1.4,1.2-2.2c2.4,1.4,4.1,3.9,5.1,6.7c0,0.8,0.2,1.8,0,2.6l1.8,0.2
		c-0.2-0.4,0-0.8,0.2-1.2c0.6-3.3,2.8-6.1,5.1-8.3c0.8-0.6,0.6,0.6,0.8,1c0.8,2,2.6,3.3,4.3,3.7c2.2,0.4,4.1-0.2,5.3-1.8
		c0.6-1.2,1.4-3,0.4-4.1c-0.8-0.8-1.6-1.4-2.8-1.4c-1.4,0-2.2,1-2.8,1.8c0,0.4,0,0.8,0.4,1c0.2,0,0.6,0,0.8-0.2
		c0.2-0.8,0.8-1.2,1.4-1.6s1.2,0,1.6,0.4c0.6,0.4,0.6,1.2,0.8,2c-0.2,1-0.8,2-1.6,2.4c-1.4,0.8-3.5,0.4-4.7-0.4
		c-0.6-0.6-1-1.4-1.4-2.2c-0.2-0.8-0.4-1.6,0-2.4c2.2-1.4,4.5-2.2,7.1-2.6c1,0.2,2,1,2.6,1.6c2.4,2.4-0.4,5.7,1.2,8.3
		c0.6-0.2,0.6-1,0.8-1.4c0.8-1.8-0.2-3.7-0.6-5.5c-0.6-1.2-1-2-2-3c0.2-0.2,0.4-0.2,0.6-0.2c1,0.8,2.2,1.6,3,2.6
		c1.4,2.4,2.2,5.1,2,8.3c-0.4,1.6-2,2.2-3.2,2.8c-0.4,0.4-1.2,1-1.4,1.6c0.6,0.4,1.4,0,2-0.2c1-0.4,1.6-1.6,2.2-2.2
		c0.2,0,0,0.2,0.2,0.4c0,0.6-0.2,1.4,0.2,1.4c0.2-0.8,0.4-1.8,0.4-2.6c0.6,0.8,0.8,1.6,1,2.6c0.4,1,1.2,2.2,2.4,2.2
		c0.4-0.4,0-1-0.2-1.4c-0.2-1.2-1.2-2-2-2.8c-1.8-2.4-1-6.1-2.4-8.9c-0.4-1.4-1.6-2.6-2.8-3.7l0.2-0.2c2.4,0,4.5,0.8,6.7,1.2
		c2.8,1.4,6.7,1,8.1,4.5c0.6,2,1.4,3.9,2.8,5.3l0.2-0.2c0.4-0.4,0.4-1.4,0-1.8c-0.4-2.6-2.6-3.2-3.5-5.1l0.2-0.2
		c1.2,0.4,2.4,0.6,3.5,1.2c3.9,1.2,6.7,4.9,7.3,9.1c0,3.2-0.6,5.9-1.8,8.7c-0.2,0.4-0.8,0.8-0.4,1.2c0.6-0.4,0.6-1,1-1.6
		c1.6-2.8,2.6-6.5,1.6-10c0-0.6-0.8-1.2-0.4-1.8c0.2,0.4,0.6,0.4,0.8,0.4c0.4-0.2,0.8-0.2,1-0.6c0-0.4,0.2-0.6,0-1
		c-0.4-0.4-1-0.4-1.4-0.4c-0.2,0.4-0.6,0.8-0.6,1.2c-0.4-0.8-1-2-1.8-2.6l0.2-0.2c2.2,0.8,4.3,1.8,6.5,2.4c0.4,0.4,1,0.6,1.8,0.6
		c2,0.8,4.1,1,6.1,1.6c1.6-0.2,2.8,0.6,4.1,0.2v-0.2l0,0c-0.6-0.8-1.8,0-2.4-0.6c-3.3-0.4-6.7-1.2-9.9-2.4c0-0.2,0.2-0.2,0.4-0.2
		c0.4-0.2,0.8-0.8,0.8-1.2c-0.2-0.4-0.6-0.6-1.2-0.6c-0.4,0.2-0.8,0.4-0.8,0.8s0.4,0.8,0.8,1c-0.2,0.2-0.4,0-0.4,0
		c-1.6-0.8-3-1.4-4.5-2c-0.6-0.2-1-0.6-1.6-0.6c-1.2-0.6-2.4-1.2-3.3-1.6c-3.2-1.6-6.7-2.6-10-3.7c-0.8-0.2-1.4-0.4-2.2-0.6
		c-1.2-0.4-2.6-0.6-3.7-1c-4.1-1-9.9-1.2-13.6,1.2c-0.6-0.2-1,0.8-1.2,0.2c1-2.8,4.1-3.7,6.9-3.7c19.9-0.2,38.6-0.4,58.3-0.6
		c2.4,0,4.5-0.8,5.7-3C161.8,72.3,162,70.1,161.4,68.9L161.4,68.9z M82.2,87.3c-0.2,0.6-0.6,1.2-0.6,1.8l-0.2,0.2
		c0.2-0.8-0.6-1.2-0.4-2c-0.4-0.6-0.4-1.4-0.8-2c-0.4-0.8,0.4-1.2,0.8-1.8c0.8,0.4,1,1,1.4,1.6C82.8,85.9,82.2,86.5,82.2,87.3
		L82.2,87.3z"/>
	<path class="st0" d="M136.2,84.1c0,0.2,0.4,0.2,0.2,0.4c-1.8,1.6-4.1,2-6.7,2.2c-0.2,0-0.4,0.2-0.6,0.2c-0.2-0.2-0.2-0.2-0.2-0.4
		C130.7,84.5,133.4,83.5,136.2,84.1L136.2,84.1z"/>
	<path class="st0" d="M128.1,85.1c0.2,0.8-0.2,1.2-0.8,1.4c-0.6,0-0.8-0.4-1.2-0.8c-0.2-0.4,0.2-0.6,0.4-0.8
		C126.9,84.3,127.9,84.3,128.1,85.1L128.1,85.1z"/>
	<path class="st0" d="M33.5,85.1c0.2,0.4,0,0.8-0.2,1s-0.6,0.4-1,0.2c-0.4,0-0.6-0.4-0.6-0.8s0.2-0.8,0.6-1
		C32.7,84.7,33.1,84.7,33.5,85.1L33.5,85.1z"/>
	<path class="st0" d="M24.7,88.4v0.4c-1.2,0.2-2.4,0-3.2-0.8c-0.8-1-1.6-2-2.6-2.6c0-0.2-0.4-0.4,0-0.4
		C21.3,85.1,22.7,87.1,24.7,88.4L24.7,88.4z"/>
	<path class="st0" d="M143.7,85.1c-1.2,1.8-2.2,3.7-4.1,4.5c-0.4,0-0.6,0.6-1,0.2c0.8-2,2.6-3.9,4.3-4.7
		C143.3,85.1,143.5,84.9,143.7,85.1L143.7,85.1z"/>
	<path class="st0" d="M36.5,85.7c0,0.6-0.4,0.6-0.8,1c-0.4,0-0.6-0.2-0.8-0.6c-0.2-0.6,0.2-0.8,0.6-1C35.7,85.1,36.3,85.3,36.5,85.7
		L36.5,85.7z"/>
	<path class="st0" d="M150,85.9c-0.4,0.6-0.2,1.6-0.8,2.4c-1,1.2-1.8,2.4-3.3,2.8c-0.2-0.4,0.4-1,0.6-1.4c0.8-1.6,1.8-3.2,3.3-3.9
		L150,85.9L150,85.9z"/>
	<path class="st0" d="M9.1,86.5c0.2,0.4,0.4,0.8,0,1.2c-0.2,0.2-0.8,0.4-1.2,0.2c-0.4-0.2-0.6-0.8-0.4-1.2
		C7.9,86.1,8.9,85.9,9.1,86.5L9.1,86.5z"/>
	<path class="st0" d="M6.3,87.1c0,0.2,0.2,0.4,0.2,0.8c-0.2,0.2-0.4,0.6-0.8,0.6c-0.6,0.2-1-0.2-1.2-0.6c0-0.4,0.2-0.8,0.4-1
		C5.6,86.5,6.1,86.7,6.3,87.1L6.3,87.1z"/>
	<path class="st0" d="M12.3,87.3c0.2,0.4,0.2,1.2-0.4,1.2c-0.8,0.4-1.2-0.2-1.6-0.6c0-0.4,0.2-0.8,0.6-1
		C11.5,86.9,11.9,86.9,12.3,87.3L12.3,87.3z"/>
	<path class="st0" d="M20.3,88c0,0.4,0,0.8-0.4,1c-0.2,0.2-0.8,0.2-1,0.2c-0.2-0.4-0.6-0.6-0.4-1c0.2-0.2,0.4-0.4,0.8-0.6
		C19.7,87.6,20.1,87.5,20.3,88L20.3,88z"/>
	<path class="st0" d="M154.9,88.2c-0.2,0.4-0.4,0.8-0.8,0.8s-1-0.2-1.2-0.6c-0.2-0.6,0.2-0.8,0.6-1
		C154.1,87.5,154.7,87.8,154.9,88.2L154.9,88.2z"/>
	<path class="st0" d="M145.6,88.6c0,0.4-0.4,0.8-0.6,0.8c-0.8,0.4-1.4-0.2-1.6-0.8c0.2-0.4,0.4-0.8,0.8-1
		C145,87.6,145.4,88,145.6,88.6L145.6,88.6z"/>
	<path class="st0" d="M151.9,88.4c0,0.4-0.2,0.8-0.4,0.8c-0.4,0.2-1,0.2-1.2-0.2c-0.4-0.4-0.2-0.8,0.2-1
		C151,87.8,151.7,87.8,151.9,88.4L151.9,88.4z"/>
	<path class="st0" d="M7.9,89.2c0.2,0.6-0.2,1-0.6,1.2c-0.4,0-1-0.2-1.2-0.8c0-0.4,0.2-1,0.4-1C7.1,88.6,7.5,89,7.9,89.2L7.9,89.2z"
		/>
	<path class="st0" d="M143.3,89.8c0.2,0.6-0.2,1-0.8,1.4c-0.4,0.2-0.6-0.2-1-0.4c-0.2-0.2-0.4-0.8,0-1
		C141.9,89,142.9,89.2,143.3,89.8L143.3,89.8z"/>
	<path class="st0" d="M34.7,90.4c0.2,0.6-0.4,0.6-0.6,1c-0.2,0.2-0.6,0.2-0.8,0c-0.2-0.4-0.6-0.6-0.4-1c0.2-0.2,0.4-0.4,0.6-0.4
		C34.1,89.6,34.3,90,34.7,90.4L34.7,90.4z"/>
	<path class="st0" d="M153.9,90.8c0.2,0.4-0.2,0.6-0.2,0.8c-0.4,0.2-0.8,0.4-1.2,0.2c-0.4-0.2-0.4-0.6-0.4-1.2
		c0.2-0.2,0.4-0.4,0.8-0.6C153.1,90,153.7,90.2,153.9,90.8L153.9,90.8z"/>
	<path class="st0" d="M150.8,91c0.2,0.6-0.4,1-0.8,1c-0.2,0-0.4-0.2-0.6,0.2c1.4,0.6,2.2,1.8,3.2,2.6v0.4c-1.8,0-3.5-0.4-4.9-2
		c-0.4-0.2-1-0.2-1.4-0.6c0.6-0.6,1.8-0.4,2.8-0.4c0.6-0.8-0.8-1.2,0.2-1.8c0.4,0,0.4-0.4,1-0.2C150.4,90.4,150.6,90.6,150.8,91
		L150.8,91z"/>
	<path class="st0" d="M130.5,91c0.2,0.2-0.2,0.6-0.2,0.8c-0.4,0.4-0.8,0.4-1.2,0.2c-0.2-0.4-0.6-0.6-0.4-1.2
		C129.1,90,130.3,90.2,130.5,91L130.5,91z"/>
	<path class="st0" d="M19.1,92.8c-0.2,0.4-0.4,0.8-0.8,0.8s-0.8-0.2-1-0.6c0-0.4,0.2-0.6,0.2-0.8C18.2,91.6,19.1,92,19.1,92.8
		L19.1,92.8z"/>
	<path class="st0" d="M23.1,92c0,0.8-0.8,1.2-1,1.8c-0.8,1.6-2.2,3.2-3.9,3.3c-0.2-0.4,0.6-1,0.8-1.4c0.8-1.8,2.4-2.6,3.7-3.7
		L23.1,92L23.1,92z"/>
	<path class="st0" d="M129.3,92.8c0,0.6-0.4,1-0.8,1.2c-0.4,0.2-0.8-0.2-1-0.4c-0.4-0.4-0.2-0.8,0-1.2
		C128.1,91.8,128.9,92.2,129.3,92.8L129.3,92.8z"/>
	<path class="st0" d="M132.4,93.2c0,0.6-0.4,1-1,1.2c-0.2-0.2-0.4,0-0.4-0.2c-0.4-0.2-0.6-0.6-0.6-1c0.2-0.2,0.4-0.6,0.8-0.8
		C131.4,92.4,132.2,92.6,132.4,93.2L132.4,93.2z"/>
	<path class="st0" d="M31,93c0,0.6-0.4,0.8-0.8,1c-0.4,0-0.8-0.2-1-0.6s0.4-0.8,0.6-1C30.4,92.4,30.6,92.8,31,93L31,93z"/>
	<path class="st0" d="M34.3,93.2c-0.2,0.4-0.4,0.8-1,0.8c-0.4-0.2-0.8-0.2-1-0.6c0-0.6,0.4-0.8,0.8-1C33.7,92.6,34.1,92.8,34.3,93.2
		L34.3,93.2z"/>
	<path class="st0" d="M143.1,96.7c0.2,0.2,0.8,0.4,0.6,0.8c-0.8,0.4-1.4-0.6-2.2-0.8c-1.2-1.2-2.2-2.6-2.6-3.9
		c0.4-0.4,1,0.2,1.4,0.2C141.3,94.2,142.5,95.3,143.1,96.7L143.1,96.7z"/>
	<path class="st0" d="M144.8,93.2c0.2,0.4,0.2,0.8-0.2,1.2c-0.4,0.6-1,0.4-1.4,0.4c-0.2-0.4-0.8-0.8-0.4-1.2c0.2-0.4,0.6-0.6,1-0.6
		C144.3,92.8,144.5,93.2,144.8,93.2L144.8,93.2z"/>
	<path class="st0" d="M38.9,94.5c0,0.4,0.2,1-0.4,1.2c-0.4,0.2-1,0-1.2-0.6s0.2-0.8,0.6-1C38.3,94.2,38.7,94.3,38.9,94.5L38.9,94.5z
		"/>
	<path class="st0" d="M132.2,97.9c0.8,1,1.2,2.2,1.4,3.5c-0.2,0.4,0.2,0.8,0,1h-0.4c-2.2-1.6-2.8-3.9-3.5-6.1
		c-0.2-0.2-0.2-0.4-0.2-0.6c0.4-0.4,0.8,0.4,1.4,0.6L132.2,97.9L132.2,97.9z"/>
	<path class="st0" d="M45.4,96.1C45.4,96.1,45.4,96.3,45.4,96.1c-2,1.6-4.7,2.4-7.1,1c0-0.2,0-0.4,0.2-0.4c1.4-0.4,2.8-1.2,4.3-1
		L45.4,96.1L45.4,96.1z"/>
	<path class="st0" d="M33.9,96.3c-1.8,1-3.2,3.2-5.3,3.5c-0.4,0.2-0.6,0.8-1.2,0.4c1-2.8,3.7-4.1,6.5-4.3V96.3L33.9,96.3z"/>
	<path class="st0" d="M129.3,98.7c0.2,0.4,0,1-0.4,1c-0.2,0.2-0.8,0.2-1,0c-0.4-0.2-0.4-0.6-0.4-1c0.2-0.4,0.4-0.4,0.8-0.6
		C128.7,98.3,129.1,98.3,129.3,98.7L129.3,98.7z"/>
	<path class="st0" d="M125.1,98.9c-0.4,0.8-1.2,1.2-1.8,1.4c-1.8,0.6-3.2-0.2-4.7-0.6c0-0.4,0.6-0.2,0.8-0.4
		c1.6-0.4,3.3-0.8,5.1-0.2C124.6,98.7,124.9,98.7,125.1,98.9L125.1,98.9z"/>
	<path class="st0" d="M33.9,100.3c-0.2,0.2-0.2,0.6-0.6,0.8c-0.4,0.2-0.8,0-1-0.2c-0.2-0.4-0.4-0.6-0.2-1c0.2-0.4,0.4-0.4,0.8-0.6
		C33.5,99.5,33.9,99.9,33.9,100.3L33.9,100.3z"/>
	<path class="st0" d="M36.9,100.8c-0.2,0.4-0.4,0.8-0.8,1c-0.4,0.2-0.8-0.2-1-0.4c-0.2-0.4-0.4-0.6-0.2-1c0.2-0.2,0.4-0.4,0.8-0.4
		C36.3,99.9,36.7,100.5,36.9,100.8L36.9,100.8z"/>
	<path class="st0" d="M128.3,101.2c0,0.4-0.2,0.6-0.4,1s-0.8,0.4-1.2,0.2c-0.4,0-0.4-0.4-0.6-0.8c-0.4-0.4,0.2-0.6,0.4-1
		C127.1,100.3,128.1,100.5,128.3,101.2L128.3,101.2z"/>
	<path class="st0" d="M130.5,101.2c0,0.2,0.2,0.4,0.2,0.8c-0.4,0.2-0.4,1-1.2,0.6c-0.2,0.2-0.4-0.4-0.6-0.4c-0.2-0.6,0-1.2,0.6-1.4
		C129.9,100.7,130.3,101,130.5,101.2L130.5,101.2z"/>
	<path class="st0" d="M35.1,102.6c0.2,0.6-0.2,1-0.4,1.4c-0.6,0.2-1.2,0.2-1.4-0.6c0-0.4,0-1.2,0.6-1.4
		C34.3,102,34.9,102,35.1,102.6L35.1,102.6z"/>
	<path class="st0" d="M38.1,102.4c-0.2,1.4-0.4,3.2-1.8,3.9c-0.8,0.2-1.6,1-2.4,0.4v-0.2C34.9,105,36.7,103.8,38.1,102.4L38.1,102.4
		z"/>
	<path class="st0" d="M120.4,103.6c0.2,0.4-0.2,0.6-0.2,0.8c-0.2,0.4-0.8,0.2-1.2,0c-0.4-0.2-0.4-0.6-0.2-1c0.2-0.4,0.4-0.4,0.6-0.6
		C119.8,102.8,120.2,103.2,120.4,103.6L120.4,103.6z"/>
	<path class="st0" d="M43,106c0.8,1.2,0.4,2.8,0.8,3.9c-0.8,0.2-1.2-0.8-1.8-1.4c-1.2-1.6-1-3.5-1.4-5.3c0.2-0.2,0.2-0.2,0.4-0.2
		c0.8,0.4,1.4,1.4,2,2.2C42.6,105.6,43,105.6,43,106L43,106z"/>
	<path class="st0" d="M123,104c0,0.4-0.4,0.6-0.8,0.8c-0.4,0-0.6-0.2-1-0.4c-0.2-0.4,0.2-0.6,0.4-1C122.4,103.2,122.8,103.4,123,104
		L123,104z"/>
	<path class="st0" d="M128.9,108.5c0,0.2,0,0.4-0.4,0.4h-0.2c-1.4-1.4-3-2.8-2.8-4.7h0.4C127.3,105.2,128.9,106.4,128.9,108.5
		L128.9,108.5z"/>
	<path class="st0" d="M125.1,106.8c0,0.4-0.2,0.8-0.4,1c-0.6,0.2-1.4,0.2-1.6-0.6c0-0.6,0.6-0.8,0.8-1
		C124.6,106,124.9,106.4,125.1,106.8L125.1,106.8z"/>
	<path class="st0" d="M121.8,107.9c-0.8,1.8-2.6,2.8-3.9,4.1c-0.2-0.2-0.2-0.6-0.2-0.8c0.4-2,2-3.7,3.7-4.5
		C122.6,107,121.8,107.5,121.8,107.9L121.8,107.9z"/>
	<path class="st0" d="M125.5,109.3c0,0.4-0.4,0.6-0.8,1c-0.4,0-0.8-0.2-1.2-0.6c0-0.6,0.4-0.6,0.6-1
		C124.9,108.7,125.3,108.9,125.5,109.3L125.5,109.3z"/>
	<path class="st0" d="M88.5,18.3c0.6,0,1.2,0.6,1.2,1.2s-0.6,1.2-1.2,1.2H73.7c-0.6,0-1.2-0.6-1.2-1.2s0.6-1.2,1.2-1.2H88.5
		L88.5,18.3z M78.1,20.5c1.4,0,0-1.8-0.8-1.8h-1.2c-1.4,0,0,1.8,0.8,1.8H78.1L78.1,20.5z M84.2,20.5c1.4,0,0-1.8-0.8-1.8H82
		c-1.4,0,0,1.8,0.8,1.8H84.2L84.2,20.5z M88.7,18.7h-0.6c-1.4,0-0.2,1.8,0.6,1.8C89.7,20.5,89.7,18.7,88.7,18.7L88.7,18.7z"/>
	<path class="st0" d="M87.3,35.2l2.8,1l2.8-1l-1.2,4.1l2.2-0.4L93,41.5l0.8,2.4l-2-0.6l0.8,4.5l-2.8-1l-2.8,1l1.2-4.5L86,43.9
		l0.6-2.6L86.1,39l2.2,0.4L87.3,35.2L87.3,35.2z M91.5,42.7c0.6,0,0.8-0.8,0.8-1.6c0-1.8-1.4,0-2-1.6c-0.6,1.4-2,0.2-2,1.6
		c0,1,0,1.6,1,1.6H91.5L91.5,42.7z M88.7,41.4c0,0.6,0.8,0.2,1.6,0.2c0.6,0,1.6,0.4,1.6-0.2c0-1-0.8-0.6-1.6-0.6
		C89.5,40.6,88.7,40.4,88.7,41.4L88.7,41.4z"/>
	<polygon class="st0" points="80.6,41.4 80.6,41 80.2,40.8 80.6,40.4 80.4,40 80.8,40 81.2,39.6 81.4,40 81.8,40 81.6,40.4 82,40.8 
		81.6,41 81.6,41.4 81.2,41.2 	"/>
	<polygon class="st0" points="78.5,44.3 78.5,43.7 78.1,43.5 78.5,43.3 78.3,42.7 78.6,42.9 78.8,42.3 79.2,42.9 79.6,42.7 
		79.4,43.3 79.8,43.5 79.4,43.7 79.4,44.3 78.8,43.9 	"/>
	<polygon class="st0" points="82.2,43.9 82.2,43.3 81.8,43.3 82.2,42.9 81.8,42.5 82.4,42.5 82.6,41.9 83,42.5 83.4,42.5 83.2,42.9 
		83.6,43.3 83.2,43.3 83.2,43.9 82.6,43.5 	"/>
	<polygon class="st0" points="82.6,46.1 82.6,45.7 82.4,45.7 82.6,45.5 82.4,45.1 82.8,45.3 83,44.9 83,45.3 83.4,45.1 83.2,45.5 
		83.4,45.7 83.2,45.7 83.2,46.1 83,45.9 	"/>
	<polygon class="st0" points="79.2,48.4 79.2,47.5 78.5,47.3 79,46.7 78.6,45.9 79.4,46.1 80,45.1 80.4,46.1 81.2,45.9 80.8,46.7 
		81.6,47.3 80.8,47.5 80.8,48.4 80,47.9 	"/>
	<polygon class="st0" points="81,1.2 82.8,5.5 87.1,4.1 85,8.3 88.7,10.8 84.2,11.6 84.4,16.3 81,13.2 77.5,16.3 77.9,11.6 
		73.1,10.8 77.1,8.3 74.7,4.1 79.2,5.5 	"/>
	<path class="st0" d="M64.9,97.7c-0.6,0.2-0.8,0.4-0.6,1l0.6,2.6c0.2,0.4,0.2,1.2-0.2,1.8s-1.2,1-1.8,1c-0.4,0.2-1.4,0.2-2.2,0
		c-0.4-0.2-0.8-0.4-1-1.4l-0.6-2.8c-0.2-0.8-0.4-0.6-1-0.6v-0.2l3.3-0.8v0.2c-0.6,0.2-1,0.2-0.8,1l0.6,2.8c0.2,0.4,0.4,1.6,1.8,1.2
		c1.8-0.4,1.4-1.8,1.4-2.2l-0.6-2.6c-0.2-0.6-0.4-0.8-1.2-0.6v-0.2l2.2-0.6L64.9,97.7L64.9,97.7z"/>
	<path class="st0" d="M69.8,98.3c-0.4-0.6-1.2-1.4-2.4-1.2c-0.6,0.2-1,0.4-0.8,1c0.2,0.4,0.4,0.6,1.2,0.8l1.6,0.2
		c0.4,0,1.2,0.4,1.4,1.4c0.2,0.8-0.2,2-2.2,2.4c-1,0.2-1.4,0-1.8,0.2c-0.2,0-0.2,0.2-0.2,0.4h-0.2l-0.4-2h0.2
		c0.4,0.8,1.2,1.6,2.4,1.4c1.2-0.2,1-1.2,1-1.2c-0.2-0.6-0.6-0.6-1.4-0.8l-0.8-0.2c-1.8-0.4-2-1-2.2-1.4c-0.2-0.6,0-1.8,1.8-2.2
		c0.8-0.2,1.4,0,1.6,0s0.2-0.2,0.2-0.4h0.4l0.4,1.8L69.8,98.3L69.8,98.3z"/>
	<path class="st0" d="M76.5,101.6L73,102v-0.2c0.8-0.2,1-0.2,1-0.8l-0.4-4.5c-0.8,0.2-1.8,0.2-1.8,1.6h-0.2l-0.2-1.8l6.1-0.6
		l0.2,1.8h-0.2c-0.4-1.4-1.4-1.4-2.2-1.2l0.4,4.5c0,0.8,0.4,0.8,1,0.8L76.5,101.6L76.5,101.6z"/>
	<path class="st0" d="M84.8,101.6h-2.2l-2-2.8h-0.2v1.6c0,0.6,0.2,0.8,0.8,0.8v0.2h-3.3v-0.2c0.8,0,1,0,1-0.8v-3.7
		c0-0.8-0.4-0.8-0.8-0.8v-0.2h3.3c0.8,0,3,0.2,2.8,1.6c0,1-1,1.4-1.6,1.4l2,2.6c0.2,0.2,0.2,0.2,0.4,0.2L84.8,101.6L84.8,101.6z
		 M80.4,98.7c1.4,0,1.8-0.2,2-1.2c0-0.8-0.4-1.2-1.2-1.2c-0.6,0-0.6,0-0.6,0.4L80.4,98.7L80.4,98.7z"/>
	<path class="st0" d="M91.5,102.4l-3.3-0.4v-0.2c0.6,0,0.8,0,0.8-0.2s-0.2-1-0.4-1.2l-2.4-0.2c-0.4,0.6-0.6,1-0.6,1
		c0,0.4,0.4,0.4,0.8,0.4v0.2l-2-0.2v-0.2c0.6,0,0.8-0.2,1.2-0.8l2.8-4.3h0.2l1.8,4.7C90.9,102,91.1,102.2,91.5,102.4L91.5,102.4
		L91.5,102.4z M88.7,100.1l-0.8-2.2l-1.2,2L88.7,100.1L88.7,100.1z"/>
	<path class="st0" d="M97.4,103.6l-5.7-1v-0.2c0.6,0,0.8,0,1-0.4l0.8-4.1c0.2-0.6-0.4-0.6-0.8-0.8v-0.2l3.5,0.6v0.2
		c-0.8-0.2-1-0.2-1.2,0.6l-0.8,3.9c0,0.4,0.2,0.6,0.8,0.6c1.6,0.2,2.2-0.4,2.8-1.2H98L97.4,103.6L97.4,103.6z"/>
	<path class="st0" d="M101.3,104.6l-3.5-0.8v-0.2c0.6,0,1,0.2,1-0.4l0.8-4.1c0.2-0.6-0.4-0.6-0.8-0.8v-0.2l3.5,0.8v0.2
		c-0.4,0-1-0.2-1,0.4l-0.8,4.1C100.3,104.2,100.7,104.2,101.3,104.6L101.3,104.6L101.3,104.6z"/>
	<path class="st0" d="M108.4,105.4L105,105v-0.2c0.6,0,0.8,0,0.8-0.2s-0.2-1-0.4-1.2l-2.4-0.2c-0.4,0.6-0.6,1-0.6,1
		c0,0.4,0.4,0.4,0.8,0.4v0.2l-2-0.2v-0.2c0.6,0,0.8-0.2,1-1l2.8-4.3h0.2l1.8,4.7c0.4,1,0.4,1.2,1,1.4L108.4,105.4L108.4,105.4z
		 M105.4,103.2l-0.8-2.2l-1.2,2L105.4,103.2L105.4,103.2z"/>
	<path class="st0" d="M82.4,36.6c0-2-1.2-0.2-1.8-1.8c-0.4,1.4-1.8,0.2-1.8,1.8c0,0.6,0.2,1,0.4,1.2v0.6c0,0.2,0.2,0.2,0.2,0.2h2.2
		c0.2,0,0.2-0.2,0.2-0.2v-0.6C82.2,37.6,82.4,37.2,82.4,36.6L82.4,36.6z M80.6,37c-0.6,0-1.4,0.4-1.4-0.2c0-1,0.6-0.8,1.4-0.8
		c0.6,0,1.6-0.2,1.6,0.8C82,37.4,81.2,37,80.6,37L80.6,37z"/>
	<path class="st0" d="M100.1,61.8c0.6,0,1-0.4,1-0.8c0-0.4-0.4-0.8-1-0.8s-1,0.4-1,0.8S99.7,61.8,100.1,61.8L100.1,61.8z"/>
	<path class="st0" d="M95.8,31.5l-0.4,0.8c0,0.2,0.2,0.4,0.4,0.4s0.4-0.2,0.4-0.4L95.8,31.5L95.8,31.5z"/>
	<path class="st0" d="M65.6,31.5l-0.4,0.8c0,0.2,0.2,0.4,0.4,0.4s0.4-0.2,0.4-0.4L65.6,31.5L65.6,31.5z"/>
	<path class="st0" d="M73.1,31.5l-0.4,0.8c0,0.2,0.2,0.4,0.4,0.4s0.4-0.2,0.4-0.4C73.7,32.3,73.1,31.5,73.1,31.5L73.1,31.5z"/>
	<path class="st0" d="M80.6,31.5l-0.4,0.8c0,0.2,0.2,0.4,0.4,0.4s0.4-0.2,0.4-0.4C81.2,32.3,80.6,31.5,80.6,31.5L80.6,31.5z"/>
	<path class="st0" d="M88.3,31.5l-0.4,0.8c0,0.2,0.2,0.4,0.4,0.4c0.2,0,0.4-0.2,0.4-0.4L88.3,31.5L88.3,31.5z"/>
	<path class="st0" d="M65.6,41.7l0.4,0.8c0,0.2-0.2,0.4-0.4,0.4s-0.4-0.2-0.4-0.4C65.3,42.7,65.6,41.7,65.6,41.7L65.6,41.7z"/>
	<path class="st0" d="M65.6,51.8l0.4,0.8c0,0.2-0.2,0.4-0.4,0.4s-0.4-0.2-0.4-0.4C65.3,52.8,65.6,51.8,65.6,51.8L65.6,51.8z"/>
	<path class="st0" d="M66.8,59.7l0.4,0.8c0,0.2-0.2,0.4-0.4,0.4s-0.4-0.2-0.4-0.4C66.4,60.7,66.8,59.7,66.8,59.7L66.8,59.7z"/>
	<path class="st0" d="M73.1,64l0.4,0.8c0,0.2-0.2,0.4-0.4,0.4s-0.4-0.2-0.4-0.4L73.1,64L73.1,64z"/>
	<path class="st0" d="M96.2,41.7l-0.4,0.8c0,0.2,0.2,0.4,0.4,0.4c0.2,0,0.4-0.2,0.4-0.4C96.6,42.7,96.2,41.7,96.2,41.7L96.2,41.7z"
		/>
	<path class="st0" d="M96.2,51.8l-0.4,0.8c0,0.2,0.2,0.4,0.4,0.4c0.2,0,0.4-0.2,0.4-0.4C96.6,52.8,96.2,51.8,96.2,51.8L96.2,51.8z"
		/>
	<path class="st0" d="M95,59.7l-0.4,0.8c0,0.2,0.2,0.4,0.4,0.4c0.2,0,0.4-0.2,0.4-0.4C95.4,60.7,95,59.7,95,59.7L95,59.7z"/>
	<path class="st0" d="M88.7,64l-0.4,0.8c0,0.2,0.2,0.4,0.4,0.4c0.2,0,0.4-0.2,0.4-0.4L88.7,64L88.7,64z"/>
	<path class="st0" d="M81,68.5l-0.4,0.8c0,0.2,0.2,0.4,0.4,0.4c0.2,0,0.4-0.2,0.4-0.4L81,68.5L81,68.5z"/>
	<path class="st0" d="M93.2,53.6c0.2,0.2,0.4,0.2,0.6,0l0.2-0.8c0,0-0.4-0.4-0.6-0.4c-0.8,0.2-1.6,0.2-2.2,1c0,0.6,0.4,1,0.8,1.2
		c0.2-0.2,0.4,0.2,0.6,0.4c0,0.2-0.2,0.4-0.4,0.4c-0.6-0.6-1.6,0.2-2-0.6c0.2-0.8,0.6-1.6,0-2.2c0-0.2,0.2-0.2,0.2-0.4
		c-0.2-0.6-1-0.2-1.4-0.2c-0.8-0.2-1.4,0.2-1.8,0.8c0,0.2,0.2,0.4,0.4,0.8c0.2,0,0.2,0,0.4,0.2L87.7,54c0.2,0.2,0.2,0.4,0.2,0.6
		c-0.4,0.2-0.6-0.4-0.8-0.6c0-0.4,0-1-0.4-1.2c-0.2,0-0.4,0.2-0.4,0.2c-0.2,0.2-0.2,0.4-0.2,0.8s0.2,0.8,0.2,0.8s1.4,1,1.8,1.8
		c-0.4,0.8-0.4,2-1.4,2.6c-0.2,0.2-0.2,0.4-0.2,0.8l0.2,0.2c0.6-0.4,1.8-0.4,1.8-1.4c0.2-0.4,0.4-1,1-1.2c0.4-0.2,1,0.2,1,0.6
		c-0.2,0.8-0.6,1.2-1.2,1.4c0,0.2,0,0.2,0,0.4c0.2,0.4,0.8,0.2,1,0.2c0.8-0.6,1.2-1.4,1.8-1.8c0.2,0.4-1,0.6-0.2,1.2
		c0.4-0.2,1,0,1.4-0.6c-0.4-0.8,1.2-1.2,0.2-2c0-0.8,0.8-1,0.8-1.8c-0.2-0.8-1.2-0.8-1.4-1.4C92.4,53.4,92.8,53.4,93.2,53.6
		L93.2,53.6z"/>
	<path class="st0" d="M58.6,62.2c0.6,0,1-0.4,1-0.8c0-0.4-0.4-0.8-1-0.8s-1,0.4-1,0.8C57.8,61.8,58.2,62.2,58.6,62.2L58.6,62.2z"/>
	<path class="st0" d="M9.9,90.6c0.6,0,1-0.4,1-0.8s-0.4-0.8-1-0.8s-1,0.4-1,0.8S9.3,90.6,9.9,90.6L9.9,90.6z"/>
	<path class="st0" d="M40.8,97.5L40.8,97.5L40.8,97.5L40.8,97.5L40.8,97.5L40.8,97.5L40.8,97.5L40.8,97.5L40.8,97.5L40.8,97.5
		L40.8,97.5C40.6,97.3,40.6,97.3,40.8,97.5L40.8,97.5L40.8,97.5L40.8,97.5L40.8,97.5L40.8,97.5L40.8,97.5L40.8,97.5L40.8,97.5z
		 M40.8,97.5L40.8,97.5L40.8,97.5L40.8,97.5L40.8,97.5L40.8,97.5z"/>
	<path class="st0" d="M41,97.5L41,97.5L41,97.5L41,97.5L41,97.5L41,97.5L41,97.5C41,97.5,40.8,97.5,41,97.5L41,97.5L41,97.5L41,97.5
		L41,97.5C40.8,97.5,41,97.5,41,97.5L41,97.5L41,97.5L41,97.5C40.8,97.5,40.8,97.5,41,97.5C40.8,97.5,40.8,97.5,41,97.5L41,97.5
		L41,97.5L41,97.5L41,97.5L41,97.5L41,97.5z"/>
	<path class="st0" d="M41.4,97.5L41.4,97.5L41.4,97.5L41.4,97.5L41.4,97.5L41.4,97.5L41.4,97.5L41.4,97.5L41.4,97.5L41.4,97.5
		L41.4,97.5L41.4,97.5L41.4,97.5C41.2,97.5,41.2,97.5,41.4,97.5L41.4,97.5L41.4,97.5L41.4,97.5L41.4,97.5L41.4,97.5
		C41.2,97.5,41.2,97.5,41.4,97.5L41.4,97.5L41.4,97.5L41.4,97.5C41.2,97.5,41.2,97.5,41.4,97.5L41.4,97.5L41.4,97.5L41.4,97.5
		L41.4,97.5L41.4,97.5L41.4,97.5L41.4,97.5L41.4,97.5L41.4,97.5L41.4,97.5z"/>
	<path class="st0" d="M41.4,97.5L41.4,97.5L41.4,97.5L41.4,97.5L41.4,97.5C41.4,97.5,41.4,97.3,41.4,97.5
		C41.4,97.3,41.4,97.5,41.4,97.5L41.4,97.5L41.4,97.5L41.4,97.5z M41.4,97.5L41.4,97.5L41.4,97.5L41.4,97.5L41.4,97.5L41.4,97.5
		L41.4,97.5z"/>
	<path class="st0" d="M41.6,97.5L41.6,97.5L41.6,97.5L41.6,97.5C41.6,97.5,41.4,97.5,41.6,97.5C41.4,97.5,41.4,97.5,41.6,97.5
		L41.6,97.5L41.6,97.5L41.6,97.5L41.6,97.5L41.6,97.5L41.6,97.5L41.6,97.5L41.6,97.5L41.6,97.5L41.6,97.5z"/>
	<path class="st0" d="M98.3,30.3L98.3,30.3H63.7l0,0l0,0v26.6c0,2.8,1.2,5.1,2.8,5.7l13.4,8.5c0.2,0.4,0.8,0.6,1.2,0.6
		c0.4,0,0.8-0.2,1-0.4l13.6-8.7c1.6-0.8,2.8-3.2,2.8-5.7V30.3H98.3L98.3,30.3z M97.4,57.1c-0.2,2-0.8,3.7-2.2,4.5l-13,8.3l0,0
		c-0.2,0.2-0.6,0.4-1,0.4s-0.8-0.2-1-0.4l-13-8.3c-1.4-1-2-2.6-2.2-4.5V31.3h32.7L97.4,57.1L97.4,57.1z"/>
	<path class="st0" d="M85.5,68.9l0.4-0.2C85.7,68.7,85.7,68.9,85.5,68.9L85.5,68.9z"/>
	<path class="st0" d="M59.3,105.2l-3.3,0.4v-0.2c0.6-0.2,0.8-0.2,0.8-0.4s-0.4-0.8-0.6-1l-2.4,0.2c-0.2,0.6-0.4,1-0.4,1.2
		c0,0.4,0.6,0.2,0.8,0.2v0.2l-2,0.2v-0.2c0.6-0.2,0.6-0.4,0.8-1.2l1.8-4.9H55l2.8,4.1c0.6,0.8,0.8,1.2,1.2,1L59.3,105.2L59.3,105.2z
		 M56.2,103.6l-1.2-2l-0.8,2.2L56.2,103.6L56.2,103.6z"/>
	<path class="st0" d="M116.9,92.8c-0.6-1.6-1.8-2.6-3.3-3.2c-1.6-0.4-3.3-0.2-4.3,1.2c-1.8,1.4-0.6,3.9-0.4,5.9c0,0.4,0,0.8-0.4,1
		c-7.3-0.6-14-2.4-21.1-3.2c-1.6-0.2-3.3-0.2-4.9-0.6l-2-0.2c-6.3,0.2-12.4,0.6-18.3,2c-1.2,0.4-2.6,0.4-3.9,1
		c-1-0.2-1.6,0.4-2.6,0.2L54,97.3c-0.2,0-0.4,0-0.6,0c-0.8-2,1.6-3.3,0.8-5.3c-0.6-1.2-2-2.2-3.3-2c-1.8-0.2-3.2,0.8-3.9,2
		c-1.2,2.6,0.4,5.1,0.8,7.5c-0.2,0.8,0.8,1.8,0,2.4c-1.6-1.2-3.7-1.8-5.7-1.2c-0.6,0.4-1.8-0.2-2,0.6c2.2,1.2,4.9,1,7.3,1
		c0.4-0.2,0.6-0.2,0.8,0c0.2,1.4-0.2,3.2,0.6,4.1c1,1.2,2.4,1.6,3.7,1.6c4.5-0.2,8.7-1.6,12.8-2.6c0.6,0,1.2-0.4,1.8-0.4
		c2.2-0.6,4.7-1,7.1-1c-1,1.4-1.6,3-2.2,4.5c-0.6,1.4,1,1.6,1.6,2.4c-1.6,0.4-2.6,1.6-4.1,2.2c-3.2-0.2-5.9,1.2-8.9,1.4
		c0,0.6,1,0.4,1.2,1.2c-0.2,0.4-0.6,0.6-1,0.8c0,0.4,0,0.4,0.4,0.4c0.4-0.4,1-0.2,1.2-0.4c1,0,1.8-0.4,2.8-0.4
		c0.8-0.4,1.8-0.4,2.6-1c1-0.4,1.8-1,2.8-1.4c1.6,0,2.8-0.6,4.1-0.6v0.4c-1.2,1.8-2.4,3.7-3.5,5.5c-0.2,0.4,0,0.8,0.4,0.8
		c0.8,0.2,1.4,0,2-0.4c1-1.8,2-3.5,2.8-5.3c0.4-1.8,1.6-2.6,2.8-3.7c0.2-0.2,0.4-0.4,0.8-0.2c-1,1.2-1.6,2.4-2.4,3.5
		c-0.4,1.4-0.6,3.2,0.8,4.3c0.6,0.6,1.6,0.4,2.4,0.4c2-1,4.3,0.6,5.9-1.4c1-0.2,1,1,1.6,1.4c0.8,0.2,1.8,1.2,2.6,0.4
		c0-0.6-0.6-1-1-1.6c-0.6-1-1.4-2-2-3c-0.2-0.8-0.8-1.2-0.8-1.8c1,0.4,1.8,1,2.8,1c0.8,0.4,2,0.4,2.8,0.8c0.6,0.8,1.6,1.4,2.6,2
		c1.2,0.6,2.6,0.8,3.9,1.2c0.4,0,1.2,0.4,1.6,0c-0.2-0.2-0.4-0.4-0.8-0.6c-0.2-0.6,1-0.4,1.2-0.8c-0.2-0.2-0.4-0.4-0.6-0.4
		c-0.8-0.4-2.6-0.6-3-0.8c-0.6-0.2-1.2-0.4-1.8-0.6c-3,0-4.7-2.8-7.1-3.7c0.6-0.6,1.4-1,1.8-1.6c0.4-0.8,0.6-1.8,0.2-2.6
		c-0.4-1.6-2.4-1.4-3.5-2.2l0.2-0.2c2-0.2,3.5,0.4,5.3,0.8c4.7,0.6,9.3,2.4,14.2,2.6c2.8,0,6.1,0.2,7.5-2.6c0.2-1.6,0.6-3.2,0.8-4.7
		C115.5,97.9,117.1,95.5,116.9,92.8L116.9,92.8z M63.1,115.6l-0.8-0.6c0.4-0.4,1.2-0.2,1.6-0.6c1.4-0.4,2.8-1,4.1-0.6
		C66.8,115,64.9,115.2,63.1,115.6L63.1,115.6z M94.2,114.8c1.2,0.6,3.5,1,5.3,1.2c-0.2,0.6-1.4,0-1.2,1c-1.6-0.6-3.3-1-4.5-2.2
		C93.8,114.8,94,114.8,94.2,114.8L94.2,114.8z M47.5,93.6c0.2-1,0.4-1.8,1.2-2.6c1.2-0.6,2.8-0.4,3.9,0.2c0.4,0.2,0.6,0.4,0.8,1
		c0.2,0.8-0.2,1.8-0.8,2.4h-0.4c0-0.8,0-1.6,0.4-2.4c0-0.6-0.6-0.6-1-1c-0.8-0.2-1.6,0.2-2.2,0.6c-0.4,0.6-1,1.4-0.6,2.2
		c0.4,0.6,0,1.4,0.2,2l-0.2,0.2C48.1,95.3,47.3,94.7,47.5,93.6L47.5,93.6z M49.9,94.9c0.8,0.6,1.8,0.4,2.8,0.4
		c0.2,0.6,0.2,1.2-0.2,1.8c-0.8-0.2-2-0.2-2.4-1C49.9,95.9,49.7,95.3,49.9,94.9L49.9,94.9z M49.7,93.2c0.2-0.4,0-1,0.6-1.2
		c0.4-0.2,1-0.2,1,0.4s-0.2,1.2-0.2,1.8C50.3,94.3,49.9,93.8,49.7,93.2L49.7,93.2z M72.9,109.3c-0.2-1.8,0.4-3.3,1.6-4.5
		c0.8-0.2,1.6-0.4,2.2,0.2c-1.4,0.4-3,0.6-3.2,2.4c0,0.6-0.2,1,0.2,1.6c0.6,1,1.8,0.6,2.6,1.4c0,0.2-0.2,0.6-0.4,0.6
		C74.9,110.3,73.7,109.9,72.9,109.3L72.9,109.3z M71.2,112.9c1.2-0.6,2.4-1.6,3.7-1.2C74.1,112.5,72.5,112.7,71.2,112.9L71.2,112.9z
		 M75.9,113.3c-0.8,1.6-1.6,3.2-2.4,4.7c-0.2,0.2-0.6,0.4-0.8,0.4c0-0.8,0.8-1.2,1-1.8c1-1.4,1.4-2.8,2.6-4.1
		C76.5,112.7,75.9,112.9,75.9,113.3L75.9,113.3z M77.3,110.5L77.3,110.5L77.3,110.5L77.3,110.5L77.3,110.5L77.3,110.5
		C77.3,110.3,77.1,110.3,77.3,110.5L77.3,110.5L77.3,110.5z M76.7,109.1c-0.8-0.2-1.6-0.4-2.4-0.6c-0.4-0.6,0-1,0-1.6
		c0.8-1.2,2.8-1.6,3.5-0.6C77.9,107.4,77.5,108.3,76.7,109.1L76.7,109.1z M77.9,109.1c0.2-0.6,0.4-1.6,0.8-2.2
		C78.6,107.5,78.3,108.5,77.9,109.1L77.9,109.1z M78.5,105c-0.6-0.2-1-1-1.8-1c0.6-0.2,1.2-0.2,2,0C78.8,104.4,78.5,104.8,78.5,105
		L78.5,105z M79,106.6L79,106.6V106l0,0V106.6L79,106.6z M79,108.7c0-0.2,0.2-0.4,0.2-0.8c0.2-0.2,0.4,0.2,0.6,0.4
		C79.6,108.7,79.2,108.9,79,108.7L79,108.7z M79.8,105.8c0.2-0.8,0.2-1.4,0.8-1.8c0.4,0,1,0,1.4,0.2c0.2,1,1.4,2.4,0,3.2
		c-0.4,0.2-1.2,0.6-1.6,0.2C79.6,107,79.4,106.4,79.8,105.8L79.8,105.8z M83.4,104.2c-0.2-0.4,0.4-0.2,0.6-0.4l1.6,0.2
		C84.8,104,83.8,105.8,83.4,104.2L83.4,104.2z M85.9,105c-0.6,0.2-1,1-1.6,1C84.6,105.4,85.3,105,85.9,105L85.9,105z M83.8,108.1
		L83.8,108.1L83.8,108.1L83.8,108.1L83.8,108.1L83.8,108.1z M84,111.1c0,0.2,0,0.2-0.2,0.4l-1.2-1C83.2,110.5,83.6,110.7,84,111.1
		L84,111.1z M82.6,109.5c0.2-0.2,0.4-0.2,0.4,0H82.6L82.6,109.5z M81.8,108.7c0.2-0.4,0.4-0.8,0.8-0.8c0,0,0,0.2,0.2,0.2
		C82.4,108.5,82.2,108.7,81.8,108.7L81.8,108.7z M80.6,108.7L80.6,108.7l0.2-0.4C81,108.5,80.8,108.5,80.6,108.7L80.6,108.7z
		 M80.8,110.5c0.6-0.8,1.2,0.4,1.6,1c0.8,1.2,2.8,2.2,2,3.5c-1,0.8-2.4,0-3.5,0.8c-0.6,0-1.6,0.2-1.8-0.4
		C79.6,113.9,80,112.1,80.8,110.5L80.8,110.5z M79.4,111.5l0.2-0.4c-0.4,1.2-1,2.4-1.6,3.5C77.9,113.7,79,112.7,79.4,111.5
		L79.4,111.5z M81.6,117.6c-1,0-2.4,0.6-3.3-0.2c0-0.4-0.4-0.6-0.4-1c0.8-0.4,1.6,0.6,2.2,0c1.2,0,2.4-0.2,3.5,0.2
		c0.6,0.2,1.4-1,1.6,0.2C84.8,118.2,82.8,117,81.6,117.6L81.6,117.6z M84.6,110.3L84.6,110.3L84.6,110.3L84.6,110.3L84.6,110.3
		L84.6,110.3z M84.8,113.5c0,0.6,0.6,0.8,0.2,1.2C85,114.4,84.8,114,84.8,113.5L84.8,113.5z M86.3,116.4l-0.2,0.2
		c-0.2-0.2-0.2-0.8-0.2-1C86.1,115.8,86.3,116.2,86.3,116.4L86.3,116.4z M88.7,117.6c0,0.2-0.4,0.2-0.4,0c-1.6-2-2.2-3.9-3.2-6.1
		h0.2C86.5,113.7,87.5,115.8,88.7,117.6L88.7,117.6z M90.7,113.1C90.5,113.1,90.5,113.3,90.7,113.1c-1.6,0.2-2.6-0.6-3.7-1.4v-0.2
		C88.3,111.5,89.3,112.5,90.7,113.1L90.7,113.1z M89.3,106.4c0.6,0.2,0.6,0.8,0.8,1.4c0,1.2-0.6,2-1.8,2.4c-0.6,0.4-1.4,0.4-2,0.2
		c1.2,0,2.6-0.4,3-1.8V106.4L89.3,106.4z M88.1,106.2c0.2,0.8,0.8,1.4,0.4,2.2c-0.4,1-1.6,1-2.4,1.2c-0.4,0-0.8-0.2-1.2-0.4
		c0-0.2,0-0.4-0.2-0.4c0.2-0.6-1.2-1.4-0.2-1.8C85.5,106.2,87.3,104.4,88.1,106.2L88.1,106.2z M113.5,102.6c-0.4,0.4,0,1.4-0.6,1.8
		c0,1-0.8,1.4-1.4,1.8c-5.9,1.4-11.8-0.8-17.5-1.8c-8.1-1.8-17.3-2.2-25.6-0.4c-3.7,0.8-7.5,1.6-11.2,2.6c-2.4,0.4-4.7,0.6-6.9,0
		c-1.8-0.8-1-3.2-1.6-4.7c0.2-1.2-0.4-2.2-0.4-3.5c-0.2-0.4-0.2-1-0.2-1.4c0.8,0.2,1.6,0.6,2.4,0.8c4.1,0.8,7.9-0.6,11.8-1.2
		c3.7-0.8,7.5-1.4,11.4-1.8c4.5,0,9.1-0.4,13.4,0.4c1.4,0,2.6,0.4,3.9,0.4c2.8,0.4,5.3,1.2,8.3,1.4c0.4,0.2,1,0.2,1.6,0.2
		c4.5,0.8,9.5,2,13.8,0C114.5,99.1,113.7,100.8,113.5,102.6L113.5,102.6z M112.1,96.5c0,0.8-0.8,0.6-1.2,1h-1.2
		c-0.2-0.4-0.2-1-0.2-1.4C110.4,96.1,111.4,96.1,112.1,96.5L112.1,96.5z M111.5,95.1c0.6-0.6-0.2-3.7,1.4-1.6c0,0.4,0,1-0.4,1.4
		C112.3,94.9,111.9,95.3,111.5,95.1L111.5,95.1z M115.5,94.7c-0.4,1-1.2,1.6-2.2,1.8c0-1.2,1.2-2,0.8-3.3c-0.6-1-2-1.2-3.2-1
		c-0.4,0.4-0.2,0.8-0.4,1.2l-0.2,1.6c-1,0-1-1-1.4-1.6c0-1,0.6-2.2,1.6-2.6c0.8-0.4,2.2-0.4,3,0.2c0.6,0.2,1.4,0.4,1.6,1
		C115.9,92.6,115.7,93.8,115.5,94.7L115.5,94.7z"/>
</g>
<g class="st1">
	<path class="st0" d="M191.8,69.8h-7.4l-0.9,2c-0.3,0.7-0.4,1.2-0.4,1.7c0,0.6,0.2,1,0.7,1.3c0.3,0.2,1,0.3,2,0.4v0.6h-6.9v-0.6
		c0.7-0.1,1.4-0.4,1.8-0.9s1.1-1.6,1.8-3.1l7.5-16.7h0.3l7.5,17.1c0.7,1.6,1.3,2.6,1.8,3.1c0.3,0.3,0.8,0.5,1.5,0.6v0.6H191v-0.6
		h0.4c0.8,0,1.4-0.1,1.7-0.3c0.2-0.2,0.3-0.4,0.3-0.7c0-0.2,0-0.4-0.1-0.6c0-0.1-0.2-0.5-0.5-1.2L191.8,69.8z M191.3,68.7l-3.1-7.2
		l-3.2,7.2H191.3z"/>
	<path class="st0" d="M216.4,61.4v11.3c0,1.1,0.1,1.8,0.3,2.1c0.2,0.3,0.6,0.4,1.2,0.5v0.6h-5.9v-1.9c-0.7,0.8-1.4,1.4-2.1,1.8
		c-0.7,0.4-1.5,0.6-2.3,0.6c-0.8,0-1.5-0.2-2.2-0.7c-0.6-0.5-1.1-1.1-1.3-1.7c-0.2-0.7-0.3-1.8-0.3-3.5v-5.7c0-1.1-0.1-1.8-0.3-2
		c-0.2-0.3-0.6-0.4-1.3-0.5v-0.6h5.9v9.8c0,1,0,1.7,0.1,2c0.1,0.3,0.3,0.5,0.5,0.7c0.2,0.2,0.5,0.2,0.7,0.2c0.4,0,0.7-0.1,1-0.3
		c0.4-0.3,0.9-0.8,1.5-1.6v-7.7c0-1.1-0.1-1.8-0.3-2c-0.2-0.3-0.6-0.4-1.3-0.5v-0.6H216.4z"/>
	<path class="st0" d="M229.1,61l0.2,4.9h-0.5c-0.6-1.5-1.3-2.5-1.9-3c-0.7-0.5-1.3-0.8-2-0.8c-0.4,0-0.8,0.1-1.1,0.4
		c-0.3,0.3-0.4,0.6-0.4,1c0,0.3,0.1,0.5,0.3,0.8c0.3,0.4,1.2,1.1,2.8,2.2c1.5,1,2.5,1.9,3,2.6c0.5,0.7,0.7,1.5,0.7,2.4
		c0,0.8-0.2,1.6-0.6,2.4s-1,1.4-1.7,1.8c-0.7,0.4-1.5,0.6-2.4,0.6c-0.7,0-1.6-0.2-2.8-0.6c-0.3-0.1-0.5-0.2-0.6-0.2
		c-0.3,0-0.6,0.3-0.8,0.8h-0.5l-0.2-5.2h0.5c0.5,1.4,1.1,2.4,1.9,3c0.8,0.7,1.6,1,2.3,1c0.5,0,0.9-0.2,1.2-0.5
		c0.3-0.3,0.5-0.7,0.5-1.1c0-0.5-0.2-0.9-0.5-1.3c-0.3-0.4-1-0.9-2.1-1.6c-1.6-1.1-2.6-1.9-3-2.5c-0.7-0.8-1-1.8-1-2.8
		c0-1.1,0.4-2.1,1.1-3c0.8-0.9,1.9-1.3,3.3-1.3c0.8,0,1.5,0.2,2.3,0.6c0.3,0.2,0.5,0.2,0.7,0.2c0.2,0,0.3,0,0.4-0.1
		c0.1-0.1,0.3-0.3,0.5-0.7H229.1z"/>
	<path class="st0" d="M238,56.1v5.3h3.4v1.5H238v8.9c0,0.8,0,1.4,0.1,1.6c0.1,0.2,0.2,0.4,0.4,0.6c0.2,0.1,0.4,0.2,0.5,0.2
		c0.7,0,1.3-0.5,1.9-1.5l0.5,0.3c-0.8,2-2.2,3-4,3c-0.9,0-1.7-0.3-2.3-0.8c-0.6-0.5-1-1.1-1.2-1.7c-0.1-0.3-0.2-1.3-0.2-2.8v-7.8
		h-1.9v-0.5c1.3-0.9,2.4-1.9,3.3-2.9c0.9-1,1.7-2.1,2.4-3.4H238z"/>
	<path class="st0" d="M248.8,61.4v3.3c1-1.5,1.8-2.5,2.5-3c0.7-0.5,1.4-0.7,2.1-0.7c0.6,0,1,0.2,1.4,0.5c0.3,0.4,0.5,0.9,0.5,1.5
		c0,0.7-0.2,1.2-0.5,1.6c-0.3,0.4-0.7,0.6-1.2,0.6c-0.5,0-1-0.2-1.4-0.5c-0.4-0.3-0.6-0.5-0.7-0.6c-0.1-0.1-0.2-0.1-0.4-0.1
		c-0.3,0-0.6,0.1-0.8,0.3c-0.4,0.3-0.7,0.8-1,1.5c-0.3,1-0.5,2.1-0.5,3.3v3.3l0,0.9c0,0.6,0,1,0.1,1.1c0.1,0.3,0.3,0.5,0.5,0.6
		c0.2,0.1,0.6,0.2,1.2,0.2v0.6h-7.8v-0.6c0.6-0.1,1-0.2,1.3-0.5c0.2-0.3,0.3-1.1,0.3-2.3v-8c0-0.8,0-1.3-0.1-1.6
		c-0.1-0.3-0.3-0.5-0.4-0.6c-0.2-0.1-0.5-0.2-1-0.3v-0.6H248.8z"/>
	<path class="st0" d="M264.7,73.6c-1.8,1.5-3.3,2.3-4.7,2.3c-0.8,0-1.5-0.3-2-0.8c-0.5-0.5-0.8-1.2-0.8-2c0-1.1,0.5-2.1,1.4-3
		c0.9-0.9,3-2,6.2-3.5v-1.4c0-1.1-0.1-1.8-0.2-2.1s-0.3-0.5-0.7-0.7c-0.3-0.2-0.7-0.3-1.1-0.3c-0.7,0-1.2,0.1-1.6,0.4
		c-0.3,0.2-0.4,0.4-0.4,0.6c0,0.2,0.1,0.5,0.4,0.8c0.4,0.4,0.6,0.9,0.6,1.3c0,0.5-0.2,0.9-0.6,1.3c-0.4,0.4-0.9,0.5-1.5,0.5
		c-0.6,0-1.2-0.2-1.6-0.6c-0.4-0.4-0.7-0.8-0.7-1.4c0-0.7,0.3-1.4,0.9-2.1c0.6-0.7,1.4-1.2,2.4-1.5c1-0.4,2.1-0.5,3.3-0.5
		c1.4,0,2.4,0.3,3.2,0.9c0.8,0.6,1.3,1.2,1.5,1.9c0.1,0.4,0.2,1.4,0.2,3v5.6c0,0.7,0,1.1,0.1,1.2c0.1,0.2,0.1,0.3,0.2,0.4
		c0.1,0.1,0.2,0.1,0.4,0.1c0.3,0,0.5-0.2,0.8-0.6l0.5,0.4c-0.5,0.8-1,1.3-1.6,1.7s-1.2,0.5-1.9,0.5c-0.8,0-1.5-0.2-1.9-0.6
		C265.1,75,264.8,74.4,264.7,73.6z M264.7,72.5v-4.8c-1.2,0.7-2.2,1.5-2.8,2.3c-0.4,0.6-0.6,1.1-0.6,1.7c0,0.5,0.2,0.9,0.5,1.2
		c0.3,0.3,0.6,0.4,1.1,0.4C263.4,73.4,264,73.1,264.7,72.5z"/>
	<path class="st0" d="M278.2,54.9v17.9c0,1,0.1,1.7,0.4,1.9s0.7,0.4,1.4,0.5v0.6h-7.8v-0.6c0.6,0,1.1-0.2,1.4-0.6
		c0.2-0.2,0.3-0.9,0.3-1.9V57.9c0-1-0.1-1.6-0.4-1.9s-0.7-0.4-1.4-0.5v-0.6H278.2z"/>
	<path class="st0" d="M286.9,61.4v11.4c0,1,0.1,1.7,0.4,1.9s0.7,0.4,1.4,0.5v0.6h-7.8v-0.6c0.6,0,1.1-0.2,1.4-0.6
		c0.2-0.2,0.3-0.9,0.3-1.9v-8.4c0-1-0.1-1.7-0.4-1.9s-0.7-0.4-1.4-0.5v-0.6H286.9z M284.8,54.4c0.7,0,1.2,0.2,1.7,0.7
		c0.5,0.5,0.7,1,0.7,1.7c0,0.7-0.2,1.2-0.7,1.7s-1,0.7-1.7,0.7c-0.7,0-1.2-0.2-1.7-0.7c-0.5-0.5-0.7-1-0.7-1.7
		c0-0.7,0.2-1.2,0.7-1.7C283.5,54.6,284.1,54.4,284.8,54.4z"/>
	<path class="st0" d="M298,73.6c-1.8,1.5-3.3,2.3-4.7,2.3c-0.8,0-1.5-0.3-2-0.8c-0.5-0.5-0.8-1.2-0.8-2c0-1.1,0.5-2.1,1.4-3
		c0.9-0.9,3-2,6.2-3.5v-1.4c0-1.1-0.1-1.8-0.2-2.1s-0.3-0.5-0.7-0.7c-0.3-0.2-0.7-0.3-1.1-0.3c-0.7,0-1.2,0.1-1.6,0.4
		c-0.3,0.2-0.4,0.4-0.4,0.6c0,0.2,0.1,0.5,0.4,0.8c0.4,0.4,0.6,0.9,0.6,1.3c0,0.5-0.2,0.9-0.6,1.3c-0.4,0.4-0.9,0.5-1.5,0.5
		c-0.6,0-1.2-0.2-1.6-0.6c-0.4-0.4-0.7-0.8-0.7-1.4c0-0.7,0.3-1.4,0.9-2.1c0.6-0.7,1.4-1.2,2.4-1.5c1-0.4,2.1-0.5,3.3-0.5
		c1.4,0,2.4,0.3,3.2,0.9c0.8,0.6,1.3,1.2,1.5,1.9c0.1,0.4,0.2,1.4,0.2,3v5.6c0,0.7,0,1.1,0.1,1.2c0.1,0.2,0.1,0.3,0.2,0.4
		c0.1,0.1,0.2,0.1,0.4,0.1c0.3,0,0.5-0.2,0.8-0.6l0.5,0.4c-0.5,0.8-1,1.3-1.6,1.7s-1.2,0.5-1.9,0.5c-0.8,0-1.5-0.2-1.9-0.6
		C298.4,75,298.1,74.4,298,73.6z M298,72.5v-4.8c-1.2,0.7-2.2,1.5-2.8,2.3c-0.4,0.6-0.6,1.1-0.6,1.7c0,0.5,0.2,0.9,0.5,1.2
		c0.3,0.3,0.6,0.4,1.1,0.4C296.7,73.4,297.3,73.1,298,72.5z"/>
	<path class="st0" d="M311.7,61.4v1.9c0.7-0.8,1.4-1.4,2.1-1.7s1.4-0.5,2.2-0.5c0.9,0,1.7,0.3,2.3,0.8c0.6,0.5,1,1.2,1.2,1.9
		c0.2,0.6,0.2,1.7,0.2,3.4v5.6c0,1.1,0.1,1.8,0.3,2.1c0.2,0.3,0.6,0.4,1.3,0.5v0.6h-7.3v-0.6c0.5-0.1,0.9-0.3,1.2-0.7
		c0.2-0.3,0.2-0.9,0.2-1.9v-6.4c0-1.2,0-1.9-0.1-2.2c-0.1-0.3-0.2-0.5-0.5-0.7c-0.2-0.2-0.5-0.3-0.7-0.3c-0.9,0-1.7,0.6-2.5,1.9v7.7
		c0,1.1,0.1,1.8,0.3,2s0.6,0.5,1.1,0.5v0.6h-7.3v-0.6c0.6-0.1,1-0.3,1.3-0.6c0.2-0.2,0.3-0.9,0.3-2v-8.1c0-1.1-0.1-1.8-0.3-2
		c-0.2-0.3-0.6-0.4-1.3-0.5v-0.6H311.7z"/>
	<path class="st0" d="M351.9,54.4v7.4h-0.6c-0.7-2-1.7-3.5-3.1-4.6s-2.9-1.6-4.5-1.6c-1.6,0-2.9,0.4-3.9,1.3c-1,0.9-1.8,2.1-2.2,3.7
		c-0.4,1.6-0.6,3.2-0.6,4.8c0,2,0.2,3.8,0.7,5.3c0.5,1.5,1.2,2.6,2.3,3.3s2.3,1.1,3.7,1.1c0.5,0,1-0.1,1.5-0.2s1.1-0.3,1.6-0.5v-4.3
		c0-0.8-0.1-1.4-0.2-1.6c-0.1-0.2-0.3-0.5-0.7-0.7c-0.4-0.2-0.8-0.3-1.3-0.3h-0.5V67h10.1v0.6c-0.8,0.1-1.3,0.2-1.6,0.3
		c-0.3,0.2-0.5,0.4-0.7,0.8c-0.1,0.2-0.1,0.7-0.1,1.4v4.3c-1.3,0.6-2.7,1-4.2,1.3c-1.4,0.3-2.9,0.5-4.5,0.5c-2,0-3.6-0.3-4.9-0.8
		c-1.3-0.5-2.5-1.2-3.5-2.1c-1-0.9-1.8-1.9-2.3-3c-0.7-1.4-1.1-3-1.1-4.8c0-3.1,1.1-5.8,3.3-8c2.2-2.2,5-3.2,8.3-3.2
		c1,0,2,0.1,2.8,0.2c0.5,0.1,1.2,0.3,2.2,0.7c1,0.4,1.6,0.6,1.8,0.6c0.3,0,0.6-0.1,0.8-0.3c0.2-0.2,0.5-0.6,0.7-1.2H351.9z"/>
	<path class="st0" d="M362.5,60.9c1.3,0,2.4,0.3,3.5,1c1.1,0.6,1.9,1.6,2.5,2.8c0.6,1.2,0.8,2.5,0.8,3.9c0,2-0.5,3.8-1.6,5.1
		c-1.3,1.7-3,2.5-5.2,2.5c-2.2,0-3.8-0.8-5-2.3c-1.2-1.5-1.8-3.3-1.8-5.3c0-2.1,0.6-3.9,1.8-5.4S360.5,60.9,362.5,60.9z M362.6,62
		c-0.5,0-1,0.2-1.3,0.6c-0.4,0.4-0.6,1.2-0.7,2.3c-0.1,1.2-0.2,2.8-0.2,4.9c0,1.1,0.1,2.1,0.2,3.1c0.1,0.7,0.4,1.3,0.7,1.7
		c0.4,0.4,0.8,0.6,1.3,0.6c0.5,0,0.8-0.1,1.2-0.4c0.4-0.3,0.7-0.8,0.8-1.5c0.2-1,0.3-2.9,0.3-5.9c0-1.7-0.1-2.9-0.3-3.6
		s-0.5-1.1-0.9-1.4C363.4,62.1,363,62,362.6,62z"/>
	<path class="st0" d="M378,76.2L373.2,65c-0.6-1.3-1-2.2-1.4-2.6c-0.2-0.3-0.6-0.4-1-0.5v-0.6h7.7v0.6c-0.5,0-0.8,0.1-1,0.3
		c-0.2,0.2-0.4,0.5-0.4,0.8c0,0.4,0.2,1.1,0.7,2.1l2.4,5.4l1.9-4.7c0.5-1.3,0.8-2.3,0.8-2.8c0-0.3-0.1-0.6-0.3-0.8s-0.6-0.3-1.2-0.3
		v-0.6h4.7v0.6c-0.5,0.1-0.8,0.2-1.1,0.5c-0.3,0.3-0.7,1.1-1.3,2.4l-4.8,11.3H378z"/>
	<path class="st0" d="M399.5,68.1h-7.9c0.1,1.9,0.6,3.4,1.5,4.5c0.7,0.9,1.6,1.3,2.6,1.3c0.6,0,1.2-0.2,1.7-0.5s1-1,1.6-1.9l0.5,0.3
		c-0.8,1.6-1.6,2.7-2.6,3.4c-0.9,0.7-2,1-3.3,1c-2.1,0-3.8-0.8-4.8-2.5c-0.9-1.3-1.3-3-1.3-4.9c0-2.4,0.6-4.3,1.9-5.7
		c1.3-1.4,2.8-2.1,4.6-2.1c1.5,0,2.7,0.6,3.8,1.8S399.4,65.7,399.5,68.1z M395.7,67c0-1.7-0.1-2.8-0.3-3.4c-0.2-0.6-0.5-1.1-0.8-1.4
		c-0.2-0.2-0.5-0.3-0.9-0.3c-0.5,0-1,0.3-1.3,0.8c-0.6,0.9-0.9,2.2-0.9,3.8V67H395.7z"/>
	<path class="st0" d="M407.2,61.4v3.3c1-1.5,1.8-2.5,2.5-3c0.7-0.5,1.4-0.7,2.1-0.7c0.6,0,1,0.2,1.4,0.5c0.3,0.4,0.5,0.9,0.5,1.5
		c0,0.7-0.2,1.2-0.5,1.6c-0.3,0.4-0.7,0.6-1.2,0.6c-0.5,0-1-0.2-1.4-0.5s-0.6-0.5-0.7-0.6c-0.1-0.1-0.2-0.1-0.4-0.1
		c-0.3,0-0.6,0.1-0.8,0.3c-0.4,0.3-0.7,0.8-1,1.5c-0.3,1-0.5,2.1-0.5,3.3v3.3l0,0.9c0,0.6,0,1,0.1,1.1c0.1,0.3,0.3,0.5,0.5,0.6
		c0.2,0.1,0.6,0.2,1.2,0.2v0.6h-7.8v-0.6c0.6-0.1,1-0.2,1.3-0.5c0.2-0.3,0.3-1.1,0.3-2.3v-8c0-0.8,0-1.3-0.1-1.6
		c-0.1-0.3-0.3-0.5-0.4-0.6c-0.2-0.1-0.5-0.2-1-0.3v-0.6H407.2z"/>
	<path class="st0" d="M421.1,61.4v1.9c0.7-0.8,1.4-1.4,2.1-1.7s1.4-0.5,2.2-0.5c0.9,0,1.7,0.3,2.3,0.8c0.6,0.5,1,1.2,1.2,1.9
		c0.2,0.6,0.2,1.7,0.2,3.4v5.6c0,1.1,0.1,1.8,0.3,2.1c0.2,0.3,0.6,0.4,1.3,0.5v0.6h-7.3v-0.6c0.5-0.1,0.9-0.3,1.2-0.7
		c0.2-0.3,0.2-0.9,0.2-1.9v-6.4c0-1.2,0-1.9-0.1-2.2c-0.1-0.3-0.2-0.5-0.5-0.7c-0.2-0.2-0.5-0.3-0.7-0.3c-0.9,0-1.7,0.6-2.5,1.9v7.7
		c0,1.1,0.1,1.8,0.3,2c0.2,0.3,0.6,0.5,1.1,0.5v0.6h-7.3v-0.6c0.6-0.1,1-0.3,1.3-0.6c0.2-0.2,0.3-0.9,0.3-2v-8.1
		c0-1.1-0.1-1.8-0.3-2c-0.2-0.3-0.6-0.4-1.3-0.5v-0.6H421.1z"/>
	<path class="st0" d="M438.8,61.4v1.9c0.8-0.9,1.5-1.5,2.2-1.8s1.4-0.5,2.2-0.5c0.9,0,1.7,0.2,2.3,0.6c0.6,0.4,1.1,1.1,1.4,2
		c0.8-0.9,1.6-1.6,2.4-2c0.8-0.4,1.5-0.6,2.4-0.6c1,0,1.8,0.2,2.4,0.7c0.6,0.5,1,1,1.2,1.7c0.2,0.7,0.3,1.8,0.3,3.4v5.9
		c0,1.1,0.1,1.8,0.3,2.1c0.2,0.3,0.6,0.4,1.3,0.5v0.6h-7.4v-0.6c0.6-0.1,1-0.3,1.3-0.7c0.2-0.3,0.3-0.9,0.3-1.9v-6.2
		c0-1.3-0.1-2.1-0.2-2.4c-0.1-0.3-0.3-0.6-0.5-0.8c-0.2-0.2-0.5-0.3-0.8-0.3c-0.4,0-0.9,0.2-1.3,0.5s-0.9,0.8-1.4,1.5v7.7
		c0,1,0.1,1.7,0.3,2c0.2,0.4,0.7,0.6,1.4,0.6v0.6h-7.4v-0.6c0.4,0,0.7-0.1,0.9-0.3c0.2-0.2,0.4-0.4,0.5-0.6c0.1-0.3,0.1-0.8,0.1-1.6
		v-6.2c0-1.3-0.1-2.1-0.2-2.4c-0.1-0.3-0.3-0.6-0.5-0.8c-0.2-0.2-0.5-0.3-0.8-0.3c-0.4,0-0.8,0.1-1.1,0.3c-0.5,0.3-1,0.9-1.5,1.6
		v7.7c0,1,0.1,1.7,0.3,2c0.2,0.3,0.6,0.5,1.3,0.6v0.6h-7.4v-0.6c0.6-0.1,1-0.3,1.3-0.6c0.2-0.2,0.3-0.9,0.3-2v-8.1
		c0-1.1-0.1-1.8-0.3-2c-0.2-0.3-0.6-0.4-1.3-0.5v-0.6H438.8z"/>
	<path class="st0" d="M471.2,68.1h-7.9c0.1,1.9,0.6,3.4,1.5,4.5c0.7,0.9,1.6,1.3,2.6,1.3c0.6,0,1.2-0.2,1.7-0.5c0.5-0.3,1-1,1.6-1.9
		l0.5,0.3c-0.8,1.6-1.6,2.7-2.6,3.4c-0.9,0.7-2,1-3.3,1c-2.1,0-3.8-0.8-4.8-2.5c-0.9-1.3-1.3-3-1.3-4.9c0-2.4,0.7-4.3,1.9-5.7
		c1.3-1.4,2.8-2.1,4.6-2.1c1.5,0,2.7,0.6,3.8,1.8S471.2,65.7,471.2,68.1z M467.4,67c0-1.7-0.1-2.8-0.3-3.4c-0.2-0.6-0.5-1.1-0.8-1.4
		c-0.2-0.2-0.5-0.3-0.9-0.3c-0.5,0-1,0.3-1.3,0.8c-0.6,0.9-0.9,2.2-0.9,3.8V67H467.4z"/>
	<path class="st0" d="M478.9,61.4v1.9c0.7-0.8,1.4-1.4,2.1-1.7s1.4-0.5,2.2-0.5c0.9,0,1.7,0.3,2.3,0.8c0.6,0.5,1,1.2,1.2,1.9
		c0.2,0.6,0.2,1.7,0.2,3.4v5.6c0,1.1,0.1,1.8,0.3,2.1c0.2,0.3,0.6,0.4,1.3,0.5v0.6h-7.3v-0.6c0.5-0.1,0.9-0.3,1.2-0.7
		c0.2-0.3,0.2-0.9,0.2-1.9v-6.4c0-1.2,0-1.9-0.1-2.2c-0.1-0.3-0.2-0.5-0.5-0.7c-0.2-0.2-0.5-0.3-0.7-0.3c-0.9,0-1.7,0.6-2.5,1.9v7.7
		c0,1.1,0.1,1.8,0.3,2c0.2,0.3,0.6,0.5,1.1,0.5v0.6H473v-0.6c0.6-0.1,1-0.3,1.3-0.6c0.2-0.2,0.3-0.9,0.3-2v-8.1c0-1.1-0.1-1.8-0.3-2
		c-0.2-0.3-0.6-0.4-1.3-0.5v-0.6H478.9z"/>
	<path class="st0" d="M496.3,56.1v5.3h3.4v1.5h-3.4v8.9c0,0.8,0,1.4,0.1,1.6c0.1,0.2,0.2,0.4,0.4,0.6c0.2,0.1,0.4,0.2,0.5,0.2
		c0.7,0,1.3-0.5,1.9-1.5l0.5,0.3c-0.8,2-2.2,3-4,3c-0.9,0-1.7-0.3-2.3-0.8c-0.6-0.5-1-1.1-1.2-1.7c-0.1-0.3-0.2-1.3-0.2-2.8v-7.8
		h-1.9v-0.5c1.3-0.9,2.4-1.9,3.3-2.9c0.9-1,1.7-2.1,2.4-3.4H496.3z"/>
</g>
</svg>
