<?xml version="1.0" encoding="utf-8"?>
<!-- Generator: Adobe Illustrator 19.1.0, SVG Export Plug-In . SVG Version: 6.00 Build 0)  -->
<svg version="1.1" id="Layer_1" xmlns="http://www.w3.org/2000/svg" xmlns:xlink="http://www.w3.org/1999/xlink" x="0px" y="0px"
	 viewBox="0 0 200 200" style="enable-background:new 0 0 200 200;" xml:space="preserve">
<style type="text/css">
	.st0{fill:none;}
	.st1{fill:none;stroke:#6CC39D;stroke-width:6;stroke-linejoin:round;stroke-miterlimit:10;}
	.st2{enable-background:new;}
	.st3{fill:#36424A;}
</style>
<g>
	<g>
		<path class="st0" d="M57.4,190.4c-25.8,0-46.8-21-46.8-46.8V9.6h132.2c25.8,0,46.7,21,46.7,46.8v134H57.4z"/>
		<path class="st0" d="M142.7,12.6c24.1,0,43.7,19.7,43.7,43.8v131h-129c-24.2,0-43.8-19.7-43.8-43.8v-131L142.7,12.6 M142.7,6.6
			H7.5v137c0,27.4,22.3,49.8,49.8,49.8h135.1v-137C192.5,28.9,170.2,6.6,142.7,6.6L142.7,6.6z"/>
	</g>
	<path class="st1" d="M142.6,9C168.8,9,190,30.3,190,56.4v134.5H57.4c-26.2,0-47.4-21.3-47.4-47.4V9H142.6 M142.6,4.1H5.1v139.4
		c0,28.9,23.5,52.3,52.3,52.3H195V56.4C194.9,27.6,171.5,4.1,142.6,4.1L142.6,4.1z"/>
</g>
<g class="st2">
	<path class="st3" d="M144.2,127.7c0,14.1-4,24.7-11.9,31.6c-7.9,6.9-19.3,10.4-34.1,10.4c-4.7,0-9.5-0.5-14.2-1.4
		c-4.8-1-9.1-2.6-13-4.9c-3.9-2.3-7.2-5.3-9.9-9.1c-2.7-3.7-4.2-8.3-4.7-13.8H77c0.6,2.9,1.6,5.3,3.1,7.1s3.2,3.2,5.2,4.3
		c2,1,4.2,1.7,6.6,2c2.4,0.3,5,0.5,7.6,0.5c8.3,0,14.4-2.1,18.3-6.2c3.9-4.1,5.8-10,5.8-17.8v-14.3h-0.4c-2.9,5.2-6.9,9.2-11.9,12.1
		c-5,2.9-10.4,4.3-16.2,4.3c-7.5,0-13.9-1.3-19.1-3.9c-5.3-2.6-9.6-6.2-13-10.7c-3.4-4.5-5.9-9.8-7.5-15.7c-1.6-5.9-2.4-12.3-2.4-19
		c0-6.3,1-12.3,2.9-17.9c1.9-5.7,4.7-10.7,8.3-14.9c3.6-4.3,8.1-7.7,13.3-10.2s11.2-3.8,17.8-3.8c5.9,0,11.4,1.2,16.3,3.7
		c5,2.5,8.8,6.4,11.4,11.7h0.4V39h20.6V127.7z M98.4,116.3c4.6,0,8.5-0.9,11.7-2.8c3.2-1.9,5.8-4.3,7.8-7.4c2-3.1,3.4-6.6,4.3-10.5
		c0.9-3.9,1.4-7.9,1.4-11.9c0-4-0.5-7.8-1.4-11.6c-1-3.7-2.4-7.1-4.4-10c-2-2.9-4.6-5.2-7.8-6.9c-3.2-1.7-7-2.5-11.5-2.5
		c-4.6,0-8.5,1-11.6,2.9c-3.1,1.9-5.7,4.4-7.6,7.5c-1.9,3.1-3.3,6.6-4.2,10.5c-0.8,3.9-1.3,7.8-1.3,11.7c0,3.9,0.5,7.6,1.4,11.3
		c1,3.7,2.4,7,4.4,9.9c2,2.9,4.5,5.3,7.6,7.1C90.3,115.4,94,116.3,98.4,116.3z"/>
</g>
</svg>
