<svg id="Layer_1" xmlns="http://www.w3.org/2000/svg" viewBox="0 0 320.8 155.3"><style>.st0{fill:#000}</style><path class="st0" d="M134 94.9c-.2.2-.2.4-.4.4m4.4-29.9c.4 0 .8-.4.8-.8s-.5-.8-.8-.8c-.4 0-.8.4-.8.8s.2.8.8.8zm36.6-33.5H146V55c0 2.2 1 4.1 2.2 4.7l11 6.5c.2.2.6.4 1 .4s.6-.2 1-.4l11.2-6.7c1.4-.6 2.2-2.6 2.2-4.7V31.9zm-19.1 6.7h-2.6v-5.9h2.6v5.9zm-1.8 1.9l.4-.4-.2-.3h.4l.2-.4.2.4h.4l-.2.4.4.4h-.4v.4l-.4-.4-.4.4v-.4l-.4-.1zm-6.9 7.5v-5.5h3V48h-3zm.6-8.2h.4l.2-.4.2.4h.4l-.2.4.4.4h-.4v.4l-.4-.4-.4.4v-.4h-.4l.4-.4-.2-.4zm3.4 5.7h.4l.2-.4.2.4h.4l-.2.4.4.4h-.4v.4l-.4-.4-.4.4v-.4h-.4l.4-.4-.2-.4zm1.9-4.6c0-.2-.2-.2-.4-.2s-.4.4-.6.4-.2 0-.2-.2.4-.2.4-.4c-1.8 0-2 .8-2.2.8-.4 0 .4-1 .6-1.2-.4 0-.6-.6-1-.8.2-.2.4-.2.6 0 0-.2.2-.4.6-.4.8 0 .6.8.8.8.2 0 0-.8.6-.8.8 0 1.8 2.2 1 2.2-.6.2-.2 0-.2-.2zm-2.1-6.1l.4-.4-.2-.4h.4l.2-.4.2.4h.4l-.2.4.4.4h-.4v.4l-.5-.4-.4.4v-.4h-.3zm-.8-2.1v5.9h-3v-5.9h3zm5.7 30.5l-6.9-4.1c-1.2-.8-1.8-2.2-1.8-3.7v-6.6h8.7v14.4zM153.1 48v-5.5h2.6V48h-2.6zm11.3 15.6l-3.2 2c-.2.2-.6.2-.8.2s-.6-.2-.8-.4l-3.2-2V48.6h8.1l-.1 15zm0-15.6h-8.1V32.7h8.1V48zm9.4 7.1c-.2 1.6-.8 3-1.8 3.7l-6.9 4.1V48.6h8.7v6.5zm0-7.1h-8.7V32.7h8.7V48z"/><path class="st0" d="M155.1 53.9c0-.2-1 .4-.8.4 0-.4.6-1 .8-1.2 0-.4-.6 0-1 .2 1.6-2.4.6-1.4-.4-1.2 1.4-1.6 1-1.6 0-1 .8-.6 1-1.4 1-1.8-.8 1-1.6.8-1.6 1.8 0 .6-.2 1.8-.6 2-.4.4-.2-1.8-1.2-1.8-.4 0-1.2 0-1.4.4.2 0 .6.6.6.8s.2.8-.2.8-.8-.8-.8-1.2v-.8c0-1-1.6-2.2-2.2-2.2 0 .6.8.8.8 1.6-.4 0-.8-.6-.8-.2 0 .4.6.4.6.8s-.6-.2-.6.2.4.2.4.6h-.6c0 .2 0 .2.2.4 0 0-.2.2-.2.8 0 1.8 1.2 2.8 2 2.8.6 0 .6-.4.6-.6 0 .4.4-.2.4.4 0 .6-.6.4-.6.8 0 .6 1 0 1 .8s-.1.8-.1 1.2c0 .2 1-.4 1-.4.2 0 .2.8.6.8.2 0 .4-.8.6-.8-.2 0 .8.6.8.4 0-.8-.4-.4-.4-1s1.2-.4 1-.8c-.2-.2-.2 0-.4-.4 0 0-1-1.4.2-.6 1.1.8 1.3-1.8 1.3-2zm30.3 6.1c.6 0 1-.4 1-.8s-.4-.8-1-.8-1 .4-1 .8c.2.5.6.8 1 .8zm-3.7 2.2c.6 0 1-.4 1-.8s-.4-.8-1-.8-1 .4-1 .8.6.8 1 .8zm-45.1 5.3c.6 0 1-.4 1-.8s-.4-.8-1-.8-1 .4-1 .8.4.8 1 .8zm2.9.2c.6 0 1-.4 1-.8s-.4-.8-1-.8-1 .4-1 .8.4.8 1 .8zm81.2-39.4c1.4 1.6 1.8 4.3.8 6.3-.6 0-.4-.8-.6-1.2-1-1.8-1.8-4.1-1-6.3.8 0 .4 1 .8 1.2zm-119.2 2.4c-.4 1.2-.4 3 0 3.9-.2.2-.2-.2-.4-.2-2-1.4-1-4.1-1.6-6.1.2-.2.4-.2.4-.2 1 .6 1.4 1.6 1.6 2.6zm123.5.2c.2.6-.2 1.2-.6 1.4-.4.2-1-.2-1.2-.6-.2-.6.2-1 .6-1.4.4 0 .8 0 1.2.6zM98.5 33.1c-.2.4-.2 1-.6 1.2-.4 0-.8 0-1-.2-.4-.2-.4-.8-.2-1 .2-.4.6-.4 1-.4.3-.2.7 0 .8.4zm128.5.7c.2.4.2.6 0 .8-.4.4-.8.6-1.4.4-.4-.2-.4-.6-.6-.8.2-.4.4-.8.8-1 .6.1.8.4 1.2.6zm-3 0c.4.2.2.8 0 1s-.6.6-1 .6c-.2-.2-.6-.2-.6-.6 0-.6.2-1 .8-1.2.5 0 .7 0 .8.2zm-3.5.8c0 .6 0 1.2-.6 1.4s-1-.4-1.2-.8c0-.6.2-1 .8-1.2.4 0 .8.4 1 .6zm-116.6.2c.2.6-.4.8-.6 1-.4.2-.8-.2-1-.6-.4-.4.2-.6.2-1 .6-.2 1.2.2 1.4.6zm-3 .2c0 .4-.2.8-.6 1s-.8-.2-1-.4c-.2-.4 0-1 .4-1.2.6-.2 1 .2 1.2.6zm107.6.2c.4 1 1 2.4 1 3.5-.2 1 .2 2.2-.6 3-.8-.2-.8-1.2-1.2-1.6-1-1.8-.2-3.7.2-5.5.4-.2.4.4.6.6zm-110 .6c.2.6-.2 1-.6 1.2-.6.2-1-.4-1.2-.8 0-.4.2-1 .6-1.2.7.2 1.1.4 1.2.8zm117.9 1.6c.6 1.4.8 3.2.2 4.7l-.4.2c-.8-1.4-1.8-2.6-2-4.1 0-1 .2-2 .6-3 .4-.2.6 0 .8.4 0 .8.2 1.4.8 1.8zm6.3-1c0 .6-.2 1-.8 1.2-.4.2-1 0-1.2-.6s.2-1 .6-1.2c.6-.4 1 .2 1.4.6zM101.1 38c0 .4-.4.8-.8 1-.4.4-.8-.2-1-.4-.2-.4-.2-.8 0-1.2.2-.4.4-.4.8-.4.4.2.8.4 1 1zm2.2-.2c.2.4-.4.8-.6 1-.6.2-1-.2-1.2-.6-.2-.6.2-.8.6-1.2.6-.2.8.2 1.2.8zm120.7-.2c0 .6-1 1.4-1.2 2-.6 1.4-1.8 2.4-3.2 2.8-.2.2-.8.6-1.2.6-.2-1 .8-2 1.4-2.8 1.3-1.4 2.7-2.2 4.2-2.6zm-123.9 2.2c.8.8 1.2 1.6 2 2.4 0 .2-.2.6-.4.6-2.4-.2-4.1-2.6-5.3-4.3.2-.6.8-.2 1.2-.2.8.3 1.7.5 2.5 1.5zm124.5.5c-.2 2.2-1.2 4.3-3.2 5.3-.6.2-1.2.8-1.8.4 1-2.2 2.6-3.9 4.3-5.9h.6l.1.2zm-9.4 1.4c.2.8-.2 1.2-.8 1.4-.6 0-1-.4-1.2-.8 0-.4.2-1 .8-1.2.2-.2.4-.2.6-.2.2.4.2.6.6.8zm-117.8.6c1 .6 1.8 1.6 2.8 2.4-.6.4-1.4 0-2.2 0-1.8-.6-2.8-2-4.5-2.6 0-.6.8-.4 1-.6.9 0 1.7.4 2.9.8z"/><path class="st0" d="M150.6 27.3c-2.8-1.2-4.7 1.8-7.5 1.4-.4.2-.2.6-.4.8-.2.2-.4 0-.6 0-.2-1.2-.6-2.4-.8-3.5-.2-.4-.2-1.2-.4-1.8-1.6-4.3 3.9-1 4.9-3.5 1-2.2-1.8-2.4-2.8-3.9v-.6c-.8-.8-1.6-1-2.2-2.2.4-1.2.4-2.6.2-3.9 0-.4-.2-.8-.8-.6-1 1.4-1.6 2.4-2.6 3.5-1-.8-1.8-1.6-3-2.2-.8-.2-1.4-.8-2.4-.6-.2.4 0 .6.2.8 0 2 1 3.5 2.4 4.9l.2.8c-1 2-.6 4.3-1 6.7-2.2 5.7-5.9 11.2-10.8 15.2-2.8 3.2-6.3 6.3-6.7 10.6-.2.8.2 1.6-.4 2-1.6-.6-3.3-1.4-4.7-2.4-2.4-1.6-5.5-1.4-7.1-4.3-.6-1.2.2-2.4.8-3.2 1.8-1.6 1.4-4.5.6-6.5-.2 0-.2.2-.4.2-.2 3-2.6 4.9-1.6 8.3.2 1 .8 1.6 1 2.4-.4-.2-.8-.2-1.2-.2-1.2-.2-2.2-.6-3.3-.4-2.4 1-5.5-.2-7.3 1.8-.4 0-.8.2-.6.6 1.2 0 2.2.4 3.2.2 1.8.4 3-1.2 4.1-1.8h.4c.4-.6 1.4-.2 2-.4 3.2.4 5.5 1.8 8.1 3.3v.2c-1 .4-2.2.8-3.2 1.4-1.2.8-2.4 2-2.8 3.3-.8 1.2.2 2.4.8 3.3 0 .6.2 1.2.6 1.4 1.6-1.8.2-3.7.4-5.7.4-1.6 1.8-2.2 3.2-2.6 2.8-1.2 4.9 1.2 7.1 2.4 0 2.4.2 4.5-.2 6.7-.8.2-1.6.4-2.4.4-3.9.4-7.1 2.4-10.6 3.7-1.6.6-3.5.6-5.1 1.2 1.2.4 2.6-.2 3.7-.2 4.9-.8 8.7-4.5 13.8-3.7l.2.2c-.6 1.2-1.4 2.4-2.4 3.3-.2-.6-.2-1-.8-1.4-.4-.2-.8 0-1.2.4-.2.2-.2.6 0 .8.2.4.6.6 1 .8-.2.4-.6.6-1 1-1.4 2.4-4.3 1.4-5.9 3.2-.2.4-1.2.6-.8 1.2 2 .2 3.7-.4 5.1-1.4 1.8-2 3.7-3.9 5.7-5.9.4 1.6-.2 3.3-1.2 4.5-.4-.2-.8-.6-1.4-.8-.6.2-.8.6-1 1 .2.4.4.8.8 1-1.8 1.2-3.7 1.4-5.7 1.8-3.5.4-7.1.8-10.8.8-1.8-.2-3.7.6-5.3 0-2 .4-3.9-.2-5.5.8-.2.2 0 .6 0 .8 2.4 1.6 5.5.4 8.1.8H113c1.4 0 3-.2 4.1-.8 2.6-1.4 3.9-4.1 5.3-6.7.4-1 .8-2 1-3 .4-1.8 2-3 3.7-3.2.2 2.6-.2 5.1-.8 7.7-.4 1.6-1.4 3.2-.8 4.9.2.8 1 .8 1.6 1 6.1-.2 12-.4 18.3.2 1.2.2 2.2.6 3.3.6.2-.2.4-.2.4-.6-.2-.6-.6-1.2-1.2-1.4-.2-.4-.6-.2-.8-.4-3.2-1.8-7.1-.8-10.8-.8-2 .2-3.9.6-5.5-.6-.8-1-.2-3.7-.2-3.7 0-1.2 2.8-9.1 3.2-9.7.2-.8.4-1.4.4-2.4 1.4-1 1.4-2.2 1.4-3.3.2-1.6 1-3.2 1.6-4.7.2-.8.6-1.6.8-2.4.4-1 .4-1.8 1-2.6 1.6 1 3.2 1 3.9 2.8l.8 4.1c0 .2.2.8.6.4 1.4-.8 1-2.8 1-4.1.2-1.6-.8-2.4-1.2-3.7-.4-.2-1-1.4-1-1.4-.2-1.2-2.6-1.8-2-3.2.4-1.2.6-2.2 1.8-3 .2.2.2.2.2.4h.4v-4.1c1.6 0 3.9.2 5.7.2.4.2.8.6 1.4.6l.4-.6 3.9-.8c-1.6.1-2.8-1.9-4.3-1.9zm4.3 1.8h.4-.4z"/><path class="st0" d="M111.6 43.1c0 .6-.4 1-.8 1.2-.4-.2-.8-.2-1-.6-.2-.6.4-1 .8-1.2.4.2 1 .2 1 .6zm-3.2 0c.4.4.4.8.2 1.2-.4.4-1 .6-1.2.2-.4-.4-.6-.6-.4-1 .4-.4 1-.8 1.4-.4zm107.2 1.4c.2.6-.2 1-.6 1.2-.6-.2-1.2-.2-1.2-1 0-.4.4-.6.8-.8.4 0 .8.4 1 .6zm2.7 0c.2.2.4.6.2 1-.2.2-.4.2-.4.4-.6.2-1-.2-1.2-.6-.2-.6.4-.8.8-1 0-.2.2 0 .6.2zm-122.5.6c-.2.6-.8.8-1.4.6-.2-.2-.4-.4-.4-.6 0-.4.2-.8.6-.8.6 0 1.2.2 1.2.8zm16.9.8c0 .4-.6.8-.8 1-.6 0-.8-.4-1.2-.8 0-.4.2-1 .6-1 .6-.2 1.2.4 1.4.8zm-2.9-.2c.2.2.4.6.2.8-.4.2-.8.8-1.2.4-.4-.2-.6-.4-.6-1 .2-.2.4-.6.8-.6.2-.2.4.2.8.4zm116 .6c0 .4-.4.8-.6 1-.4.2-.8 0-1.2-.2-.2-.2-.2-.6-.2-.8.2-.4.6-.6 1-.6.6 0 .8.2 1 .6zm3.4.4c-.2.4-.4.8-1 1-.4 0-.8-.2-.8-.6 0-.4.2-.8.4-.8.6-.4 1.2-.2 1.4.4zm-127.7.5c.2.6-.2 1-.6 1.2-.4.2-.8 0-1-.2-.2-.2-.4-.6-.2-1s.6-.4.8-.6c.6.2.8.4 1 .6zm2.6.6c.2.4-.4.6-.4.8-.2.2-.6.4-1 .2-.4-.4-.8-.8-.4-1.2.4-.8 1.4-.4 1.8.2zm118.8-.2c0 .4-.4.8-.8 1.2-.4.2-1-.2-1-.6 0-.4.2-.8.6-1 .6-.2 1-.2 1.2.4zm4.1.8c-.2.4 0 1-.6 1.2-.4.2-1 0-1.2-.2s-.4-.8-.2-1c.2-.4.8-.8 1.2-.6.4 0 .6.4.8.6zm-127.3 1c.2.4-.2.6-.4.8-.4.2-.8 0-1-.2-.4-.2-.2-.8-.2-1 .4-.8 1.4-.2 1.6.4zm124.2 1c.2 0 .2.4 0 .4-1.2.6-3 .8-3.9-.2-.6-.6-1.4-.8-2-1.2.2-.6 1.2-.6 1.8-.8 1.3.4 2.5 1.8 4.1 1.8zm-121.8-.6c.2.4-.2.6-.4.8-.2.4-.6.2-.8.2-.4-.4-.6-.8-.4-1.2.6-.6 1.2-.2 1.6.2zm4.3.4c.2.4-.2.8-.4 1.2-.4.2-.6-.2-1-.2-.2-.4-.8-.8-.2-1.2.4-.8 1.2-.4 1.6.2zm57.6 2.2c-.2 1-1.8-.2-1.6 1.2.2 1 .4 2.2 1 2.8.4.6.2 1.8.2 2.6-.4.8-1.2 1.2-2 1.6-1.4-.2-3.5.8-4.1-1-.2-.8-.8-1.6-.8-2.4.2-.2.4-.2.4-.2 0-.4-.4-.6-.4-.8 1.6-.2-.6-1.8.8-1.8 1.2 1.2 3 .8 3.9 2.2.2.2.4.4.8.6-.2-1.2-.8-2.4-1-3.7-.2-.7.2-1.5.6-1.7 1-1 1.8 0 2.2.6zm-53.2-.4c.2.6-.2.8-.6 1s-.8-.4-1-.6c-.2-.6.2-.8.6-1 .4.2.8.2 1 .6zm30.7.6c.6 2 .4 3.9-.6 5.7 0 .4.2 1-.4 1-1.4-1.8-.4-4.5.2-6.5 0-.6.8-.8.8-.2zm42.8.8c.8 1.4.8 3.3.2 4.7l-.4.4c-.6-1.2-1-2.4-1.2-3.5.2-1 .6-1.8.6-2.6.6-.2.6.8.8 1zm-69.6.5c-.4.6-1.2.8-1.8 1.2-1.2 1-3 1.2-4.3.8 1.4-1.8 3.3-3 5.7-2.4 0 .4.4.2.4.4zm-20.5 1.8c1.8 1.4 2.4 3.2 3.3 4.9.2.2.6.2.4.6-.4.4-.8-.4-1.4-.2-2-.8-3.2-3-3-5.1.3-.2.5-.2.7-.2zm88.1 1.6c0 .6 0 1-.4 1.2-.6.2-1-.2-1.2-.6-.2-.4.2-.6.2-.8.4-.4 1-.2 1.4.2z"/><path class="st0" d="M203.2 60c0-1 .2-1.8.4-2.8.2-.4.2-.6.2-1 1.2-1.6 3.5-1.2 5.5-1 .8.4 1.8.4 2.6.6.4-.2.8-.4 1.2-.2 1.6-.8.6-2.8.6-4.1l-.6-1.6c-.2-.4-.4-.6-.4-1-.2-.4-.4-1-.8-1.4-.8-2.2-2.6-3.5-3.9-5.1-2.6-3.3-6.5-5.1-10.4-6.5-3.9-1.4-7.9.4-11.4 1.6-1-.4-1.6-1.2-2-2.2-.2-2 .2-3.7 1-5.3.2-1.2 1-2.2 1.4-3.3 1-2.8 1.8-5.5 2-8.7.2-1.8-1.4-3.2-2.8-3.9-1-.2-2-.2-2.8.6-.6 1.4-2 2.4-3.2 3-.2.8 1 .4 1.4.6 1.2.2 2.4-.2 3.2.6.2 2-1 3.7-2.2 5.1-1.8 2.6-3.5 5.1-4.5 7.9l-.3-.2.2 12.2c1.6 2.6 3.5 5.7 6.5 6.7 1.6 1.4 3.5 3 5.7 1.8 1.2-.4 1.2 1.2 1.8 2 .6 1.8-.8 3.2-.8 4.9l-1.4 2.8c-1.6 3-2.8 6.1-5.1 8.5-.8 0-1.2.8-2 .8-.4.6-1.2.2-1.8.4-1.6.6-3.7.2-4.7 1.8.2.2.2.2.4.2 3 0 6.5.2 9.7.2.4-.2.8-.6.8-1-.4-.8.2-1.6.6-2.2.2-1.2 1-2 1.4-3.2 1-2 2.2-4.1 3.3-6.1l1.6-2.6c.4-.8 1-2 1.6-2.8.4-.4.6-.8 1-1.4 0-.6-.2-.8-.4-1 .4-.4 1-.2 1.4-.4 1.2.8 2.6 2 2.8 3.3l.4 1.4.2.6-.2 1.6v1.6c.2 2.4-.2 4.9-.4 7.3-.8 3-4.1 2.6-6.5 3.3-.6.4-1.8.2-1.8 1.2 3 .6 6.3.2 9.3.2.4-.2.6-.6.8-1.2s.8-1.2.6-2c-.6-.8 0-1.8-.2-2.8.2-.2.2-.6 0-1 .4-1.4.4-3.2.6-4.5l.4-2.3zm24.6-1.9c-1.6 2.2-3.3 4.7-6.1 5.7-.2 0-.4.2-.4-.2 1.8-1.8 2.6-4.5 5.3-5.3.2-.2.8-.4 1.2-.2zM91.9 60.4c-.2.2 0 .6-.4.8-.4.2-.8 0-1-.4-.2-.6.2-1 .6-1.2.2.3.6.4.8.8zm14.3.8c.2.4-.4.4-.6.6-2.2.8-4.1 0-5.7-1.4 0-.2 0-.4.2-.4 2 .4 4.4 0 6.1 1.2zm-11.6-.6c.2.2.2.6.2.8-.4.4-.8.6-1.2.4s-.4-.4-.6-.6c0-.6.4-.8.8-1 .2 0 .4 0 .8.4zm46.5.2c.2.4-.4.8-.6 1-.4.2-.8-.2-1-.4-.2-.4 0-.8.4-1 .4-.2 1.2 0 1.2.4zm88.5.2c.2.4-.2.8-.6 1-.4.2-.6 0-1-.2 0-.2-.4-.4-.2-.8s.6-.6 1.2-.6l.6.6zm3.3-.2c.4.4 0 .8-.2 1.2s-.6.4-1 .4c-.4-.4-.8-.4-.8-1 0-.4.4-.8.8-.8.6-.4.8.2 1.2.2zM89.7 62.2c0 .4-.2.6-.4.8-.2.2-.4.4-.8.2s-.6-.4-.8-.8c.2-.4.4-.8 1-1 .4.2.8.4 1 .8z"/><path class="st0" d="M194.5 62.2c.2.2 0 .4 0 .6-.4.4-.8.8-1.2.4s-.6-.6-.4-1c.4-.4 1.2-.6 1.6 0zm-96.7.8c-.2.4-.2.8-.8.8s-.6-.4-.8-.6c0-.4 0-1 .4-1.2.6-.2 1.2.4 1.2 1zm-4.8.2c.2.6-.2.8-.4 1.2-.6.2-1.2-.2-1.4-.8 0-.4.4-1 1-1.2.2 0 .4.4.8.8zm104.8-.2c.2.4 0 1-.6 1.2-.6.2-1.2-.4-1.4-.8.2-.4.4-1 1-1 .5 0 .8.2 1 .6zm-102.6.2c.2.4-.2.6-.2.8-.2 0-.4.4-.8.2-.2-.2-.6-.4-.6-.8 0-.6.4-.8.6-1 .6 0 1 .4 1 .8zm131.6.4c-.2.4-.4.6-.8.8-.4.2-.6-.2-1-.4-.2-.2-.2-.6 0-1 .4-.8 1.8-.4 1.8.6zm3.8.2c-.2.6-.8.8-1.2.8-.4-.2-1-.6-.6-1.2.2-.2.2-.4.6-.4.6-.2 1.2.4 1.2.8zm-23.5.4c.2.6-.4.8-.8 1.2-.4 0-.6-.2-1-.4-.2-.6.2-1 .8-1.4.4 0 .6.2 1 .6zm-13.8.6c.2.2.2.4.2.6-.4.2-.8.8-1.2.4-.4-.2-.6-.6-.6-1 .2-.4 1.4-.6 1.6 0zm2.8.4c0 .4 0 .6-.4.8-.4.4-.8 0-1.2-.2-.2-.2-.2-.6 0-.8s.4-.4.6-.4c.4.2.8.2 1 .6zm-84.5 0c.4.4 0 .6-.2 1s-.8.6-1.2.2c-.4-.2-.4-.8-.4-1.2.4-.2.4-.4.8-.4.6 0 .8.2 1 .4zm100.8.2c.2.6-.4.8-.8.8-.6.2-1-.2-1.2-.6 0-.4.2-.4.4-.8.6-.2 1.2.2 1.6.6zm-2.7 0c.2.6-.4.8-.6 1-.4.2-.8.2-1.2-.2-.2-.2-.2-.4-.2-.8.4-.2.4-.6.8-.6.6 0 1 .2 1.2.6zm22.4.6c.2.8-.8.4-1.2.6-2.2 1.2-4.7.4-6.7-.4.2-.6 1-.4 1.4-.6 2-1.6 4.2.2 6.5.4zm-136.3-.6l-.2.4c-1.8 1.2-4.1 1.8-6.5 1.2l-.2-.4c2-1.4 4.3-1.6 6.9-1.2zm121.6.4c0 .4-.2.8-.4 1-.4.2-1.2 0-1.4-.6-.2-.4.2-.8.6-1 .4 0 1 0 1.2.6zm-112.7.2c-.2.4-.2.8-.6 1-.4.2-1.2-.2-1.2-.6-.2-.6.2-.8.4-1 .8-.4 1.2.2 1.4.6zm-3.4.2c.2.4-.2.6-.2.8-.2.4-.8.2-1 .2-.4-.4-.8-.6-.6-1.2.4-.2.4-.4.8-.6.4.2.8.4 1 .8zm119.6 1.1c0 .4-.4.8-.8 1-.4 0-.8-.2-1-.6s-.2-.8.2-1c.2-.2.4-.2.6-.2.6.1 1 .4 1 .8zm-123.3-.6c.2.4-.2.6-.2.8-.2.8-.8 1.4-1 2.2-1 1.2-2.4 1.2-3.5 1.6l-.2-.4c1.1-1.8 2.7-3.4 4.9-4.2zm120.7 1.2c.2.6-.4.8-.8 1-.4 0-.8-.2-1-.6-.2-.6.4-.8.6-1 .6-.2 1.2.2 1.2.6zm-115 0c0 .2 0 .2 0 0 .2.8-.2 1-.6 1.2-.4 0-.8-.2-1.2-.4-.2-.4 0-1 .4-1.2.6-.2 1.2-.2 1.4.4zm124.3 1.4c.4 0 .6-.6 1.2-.8.4-.2 1 .2 1.2.6.2.6-.2 1-.6 1.2-.4.2-1.2-.4-1 .4.4.2.6.6.8 1-.2.2-.4.2-.6 0-1.4-.6-3-1.6-3.5-3.2-.2-.4-1.2-.8-.6-1.2 1.1 0 2.3 1.2 3.1 2zm4.7-1.4c.2.2.2.8 0 1-.2.6-1 .4-1.4.2-.2-.2-.4-.6-.4-1 .2-.4.4-.4.8-.6.4-.2.6 0 1 .4zm-18.1 2.6c.4.6 1 1.4 1.2 2-.2.2-.4.2-.4.2-1.8-1-3.9-2-4.5-3.9-.2-.2-.6-.4-.4-.8 1.4-.2 2.6.8 3.3 1.4.2.3.6.7.8 1.1zm-113.7-1.8c.2.4-.2.8-.4 1-.6.2-.8-.2-1.2-.4-.4-.6.4-1 .8-1.2.2-.2.4.2.8.6zm120 1.2c0 .4-.4.6-.4.8-.4 0-.8.2-1.2-.2-.2-.2-.4-.6 0-1 .4-.8 1.2-.2 1.6.4zm12.4.6c.2.6-.4 1-.8 1.2s-1-.2-1.2-.4c-.2-.4 0-.6 0-1 .4-.4.8-.6 1.4-.4l.6.6zm-34.5 6.9c0 .6-1.2.4-1.6 1-1.6.8-3.3.8-5.3.8v-.4c2-1.6 4.6-2 6.9-1.4zm-72.7 2.2c0 .4-.4.8-.8.8s-.8-.2-.8-.4c-.2-.6.4-.8.6-1.2.6.2 1 .4 1 .8zm71.9.5c-.2.4-.2 1-.8 1.2-.4.2-.8-.2-1.2-.4-.2-.2-.2-.6-.2-.8.5-.9 1.9-.9 2.2 0zm9.9.2c-1.2.8-2.6 1.8-4.3 1.8h-2.8l-.2-.2c1.6-2 4.7-2 7.3-1.6zm-95.4 1.2c0 .4-.2.8-.6 1-.4.2-.8-.2-1-.4-.2-.4 0-1 .4-1.2.5-.4 1 .2 1.2.6zm2.6.6c.2.2-.2.4-.2.6-.2.2-.8.2-1 0-.4-.2-.4-.6-.4-.8.2-.4.4-.2.6-.4.4 0 .8.2 1 .6zM95.6 87c-.4.6-1.4-.2-1.8-.4-1.8-1-1.8-3-3.3-4.1.2-.6.6 0 1 0 .4.2.8.4 1 .6 1.5 1 1.9 2.6 3.1 3.9z"/><path class="st0" d="M240.8 67.7c-.8-1.4-2.2-2-3.7-2-1.4.2-2.2 1-2.8 2-.4 1.2.2 2.2 1 2.8.4.2.8.2 1-.2.2-.6-.4-.6-.6-1.2-.2-.8 0-1.4.6-1.8.4-.6 1.4-.2 2-.2.6.4 1.2.8 1.6 1.4.4.8.4 1.8 0 2.6-.6 1.2-1.8 2.2-3.2 2.6-4.1.6-49.5.4-49.5.4-5.3.6-11.4-1-16 1.8-2.2 1-3.2 3.3-3.7 5.3-1.4 1.2-2.8 2.6-3.9 3.9l-.2-.2c.2-1.2.8-2.4 1-3.5.8-1 .8-2.4 1.4-3.5 2-3.2 3.7-6.1 6.7-8.3 1.2-1.6 3.3-1.4 5.3-1.4 2 1 4.3 1.2 6.9 1 .2-.2.2-.2.2-.4-.8-.6-1.8-1-2.6-1.6-2-1-3.9.4-5.9.2-.2-.2-.2-.2-.2-.4 2-1.4 4.1-2.4 6.1-3.3 1.8-1 3.5-1.4 5.5-2.2.8 0 1.4-.6 2.2-.2l2.6-.8c.2 0 .2.2.4.2 2.2-.8 5.1 0 7.7-.2l.4.4 2.4.6c1 .2 1.4 1.2 2.2 1.2.4-.8-.6-1-.8-1.4 1.2-.2 2.4 0 3.3.6l-.4.6c-.2.6.2 1 .6 1.2.4.2.6-.2.8-.2.6-.4 0-1 .2-1.4 3.7.6 7.3 1.6 10.6 3 1 .4 1.8 1 3 1-1-1-2.6-1.4-3.7-2-.8-.6-2-.6-2.8-1.2.2-.2.4-.2.6-.4 1.8-.2 3.2-1.4 4.3-2.8.2-.4.6-.2.6-.6-.4-.6-1.2.2-1.8.2-2.2.4-3 3-5.1 3.3-2.6-.6-5.1-1.2-7.7-1.8-1.2-.2-2.6-.4-3.7-.8l-2.8-.2h-5.1c0-.2-.2-.2-.2-.4 1.8-.4 3.3-1.6 5.1-2l13.4-6.1c1.4-1.2 2.6-2.6 3.7-4.1 0-.4-.2-.8-.6-1-.4-.2-.8-.2-1 .2-.6.4 0 1 0 1.6-.6.8-1.6 1.6-2.4 2-.2 0-13.8 6.1-13.8 6.1-2 .8-3.9 1.8-6.1 2.2l-3 .4c-.2.6-.8 1-1.2 1.2-.8.2-1.4.6-2.4.6-6.5 2.6-13.2 5.1-18.3 10.2.4-.6.4-1.4.4-2.2-.2-.8 0-1.6-.6-2.2-.2-.2-.4-1-.4-1.4l-.8.4c-.4 1.2-.8 3.2-.4 4.3.2 1 1 2 .2 2.8-2.4 3-3.7 6.5-5.3 9.7-.6-.2-1-.6-1.2-1.2 1.8-2.2 3-4.5 3.5-7.3.4-.2.2-1 .4-1.2-.2-.8.4-1.6 0-2.4.4-1-1.4-2.2-.4-2.8l-1 .4c-2.2 2.8 1.2 7.1-1.4 9.7v.2c-.8 1-1 1.8-2 2.4-1.2-.4-1.6-1.8-2.4-3-1.2-1-1.2-3.2-.4-4.7.4-1.4-.4-2.8-.4-3.9l-.4-.4c-1.2 1.6-1.6 3.9-.8 5.9.4 1 .6 2.2 1.4 3 .4 1.4 1.4 2.4 2.2 3.7.2.6-.4.6-.6.8-.6-.4-.4-1.2-1-1.6-1.6-3.5-3.7-6.3-6.3-9.3-.2-.4-.6-.8-.4-1.4 1-1 1.2-2.6.6-3.7-.2-.2-.4-.6-.4-.8l-.8-.6c.2 1.8-1 3.3-.6 5.1v.2c-5.1-3.9-10.8-7.3-16.5-10l-.4 1.2c1.4.4 5.3 2.8 5.3 2.8 1.8.6 3.3 1.8 4.9 2.6 6.7 3.7 11.2 10 14.4 16.9 0 .6.6 1.2.2 1.8-1-1.6-2.6-2.6-3.7-3.7-.4-2.4-1.8-4.5-3.7-5.5-.8-1.2-2.4-1.2-3.5-1.6l-18.1-.2c-14.7-.3-28.1.3-42.7.1-2-.2-4.5-1-5.1-3.2-.4-.8-.4-2 0-2.8.6-.9 1.6-1 2.6-1.2.8.2 1.4.8 1.8 1.4 0 .6-.6 1.2-.8 1.8 0 .2.2.6.6.4.6-.2 1.2-1 1.4-1.6 0-.4.2-.8-.2-1.2-.4-1-1.4-1.8-2.4-2-1.2-.2-2.6.2-3.3 1.2-1.2 1-1.2 2.8-.8 4.1.8 2.2 3.2 3.7 5.3 4.1l48.4.2c4.7.2 10-.6 14.8.4 1.8.6 3.5 1.8 4.1 3.7 0 .2-.2 0-.4 0-3.9-2.6-9.1-3.5-14.2-3-2-.2-3.7.6-5.5 1.2-1 .2-1.8-.2-2.4-.8-1.8-1.6-4.9-1.6-7.3-1v.4c2.4-.2 3.9 2 6.1 2.2.4.2 1-.4 1.4 0-2.4 1.2-4.5 2.4-6.9 3.2-.8-.2-1.2-.8-1.8-1.2-1-1-2.8-.6-3.9-.8-.4.2-.8-.2-1.2 0 .4.8 1.4 1.2 2.2 1.6 1.2.6 2.8 0 3.7.8-.4.4-.8.4-1 .8-2.4 1-4.3 3-6.9 3-2.8.4-5.5-.6-7.3-2.4-.8-2-2.8-3-4.9-3-.2.2-.4.2-.4.4 1.2.6 2 2 3 2.8.8.8 2 0 2.8 1 1 .6 2.2 1.2 3.2 1.4.8.4 1.8.6 2.6.8l-.4.2c-4.5 1.6-9.9 1.6-14.8 1.4-1.6 0-3-.4-4.3-.4.2.4.8.6 1.2.8-.4.2-.8.4-1.4.4-.6.2-1.4.2-2 .6-.8 0-1.6.2-2.2.4-.8 1-1.8 1.8-2.8 2.4 0 .2 0 .6.2.6 1-.4 2.2-.2 3.2-.6 1.6-.2 2.6-2 3.9-2.8 1.4-1.2 3.3-.8 5.1-.6 1 .2-.2.6.2 1.4.4.4.8.8 1.4.6.2-.2.2-.2.4-.2.4-.4.2-.8 0-1.2.8-.4 1.6 0 2.4-.2 2 0 3.7-.4 5.7-.6.4 0 .6-.4 1 0-.2.4-.6.4-.4 1 .2.4.6.6 1 .8.4-.2 1-.6.8-1.2-.2-.4-.4-.4-.8-.6 1-.6 2.2-.6 3.3-1.2.8-.2 1.4-.4 2.2-.8.6 0 1.2-.6 1.8-.4-.2.8-.6 1.6-1 2.4-.8 2.6-1.4 6.1 0 8.7.2 0 .2 0 .4-.2-1-2.6-.4-5.7.4-8.3.8-4.3 5.1-5.5 8.3-7.1l.2.2c-.8 2.2-2.2 4.3-2 6.9.2.4-.2 1 0 1.2.8-.4 1.4-1.4 1.8-2.4.4-2.2-1-5.1 1.4-6.7 4.1-1.6 7.9-3.7 12.6-3.7.2.2.4-.2.6.2-1 1.2-2.4 2.2-3 3.5-1.6 2.2-1.6 5.9-.8 8.7.4 1.6-1 2.4-1.6 3.5-.4.4-.4 1.2-.6 1.6l1 .2c.8-1 1.6-2 1.8-3.3.2.6.6 1 1 1 .4-.6-.4-1-.4-1.6.8-.4 1.2.6 1.8.8 1 .2 2 .8 3 .8l.4-.4c-1.2-1.8-3.3-2-5.1-2.2-1-1.6-1-3.7-1-5.7.2-1 .4-2.2 1-3.2.2-.8 1-1.4 1.4-2 1-.8 2-1.4 3.2-1.8h.2v.2c-1.4 1-1.6 2.6-2.4 3.7-.8 1.2-1.2 3-.4 4.3.4.6.2 1.6.8 2.2.6-1 .8-2 1-3.2-.2-1.6-1.2-3.2-.2-4.7.4-1.2 1.6-1.8 2.8-2.2 2.8-.2 5.1 1.2 7.5 2.2.4.4 1.4.6 1.4 1.4 0 1.4-.8 2.8-1.8 3.3-1.4.8-3.3 1-4.5 0-.8-.8-1-2-.8-3.2.6-.6 1.4-1.2 2.2-.8.6.2 1 .8 1.6.4.2-.2.4-.6.2-.8-.6-.4-.8-1-1.6-1.2-1-.2-2.2-.2-2.8.6-1 1-1.4 2.4-1.2 3.5.4 1.6 1.6 2.8 3.2 3.2 2.4.6 4.7-.2 6.1-2.2.6-.6.8-1.4 1.2-2.2 2.4 1.4 4.1 3.9 5.1 6.7 0 .8.2 1.8 0 2.6l1.8.2c-.2-.4 0-.8.2-1.2.6-3.3 2.8-6.1 5.1-8.3.8-.6.6.6.8 1 .8 2 2.6 3.3 4.3 3.7 2.2.4 4.1-.2 5.3-1.8.6-1.2 1.4-3 .4-4.1-.8-.8-1.6-1.4-2.8-1.4-1.4 0-2.2 1-2.8 1.8 0 .4 0 .8.4 1 .2 0 .6 0 .8-.2.2-.8.8-1.2 1.4-1.6.6-.4 1.2 0 1.6.4.6.4.6 1.2.8 2-.2 1-.8 2-1.6 2.4-1.4.8-3.5.4-4.7-.4-.6-.6-1-1.4-1.4-2.2-.2-.8-.4-1.6 0-2.4 2.2-1.4 4.5-2.2 7.1-2.6 1 .2 2 1 2.6 1.6 2.4 2.4-.4 5.7 1.2 8.3.6-.2.6-1 .8-1.4.8-1.8-.2-3.7-.6-5.5-.6-1.2-1-2-2-3 .2-.2.4-.2.6-.2 1 .8 2.2 1.6 3 2.6 1.4 2.4 2.2 5.1 2 8.3-.4 1.6-2 2.2-3.2 2.8-.4.4-1.2 1-1.4 1.6.6.4 1.4 0 2-.2 1-.4 1.6-1.6 2.2-2.2.2 0 0 .2.2.4 0 .6-.2 1.4.2 1.4.2-.8.4-1.8.4-2.6.6.8.8 1.6 1 2.6.4 1 1.2 2.2 2.4 2.2.4-.4 0-1-.2-1.4-.2-1.2-1.2-2-2-2.8-1.8-2.4-1-6.1-2.4-8.9-.4-1.4-1.6-2.6-2.8-3.7l.2-.2c2.4 0 4.5.8 6.7 1.2 2.8 1.4 6.7 1 8.1 4.5.6 2 1.4 3.9 2.8 5.3l.2-.2c.4-.4.4-1.4 0-1.8-.4-2.6-2.6-3.2-3.5-5.1l.2-.2c1.2.4 2.4.6 3.5 1.2 3.9 1.2 6.7 4.9 7.3 9.1 0 3.2-.6 5.9-1.8 8.7-.2.4-.8.8-.4 1.2.6-.4.6-1 1-1.6 1.6-2.8 2.6-6.5 1.6-10 0-.6-.8-1.2-.4-1.8.2.4.6.4.8.4.4-.2.8-.2 1-.6 0-.4.2-.6 0-1-.4-.4-1-.4-1.4-.4-.2.4-.6.8-.6 1.2-.4-.8-1-2-1.8-2.6l.2-.2c2.2.8 4.3 1.8 6.5 2.4.4.4 1 .6 1.8.6 2 .8 4.1 1 6.1 1.6 1.6-.2 2.8.6 4.1.2v-.2c-.6-.8-1.8 0-2.4-.6-3.3-.4-6.7-1.2-9.9-2.4 0-.2.2-.2.4-.2.4-.2.8-.8.8-1.2-.2-.4-.6-.6-1.2-.6-.4.2-.8.4-.8.8s.4.8.8 1c-.2.2-.4 0-.4 0-1.6-.8-3-1.4-4.5-2-.6-.2-1-.6-1.6-.6-1.2-.6-2.4-1.2-3.3-1.6-3.2-1.6-6.7-2.6-10-3.7-.8-.2-1.4-.4-2.2-.6-1.2-.4-2.6-.6-3.7-1-4.1-1-9.9-1.2-13.6 1.2-.6-.2-1 .8-1.2.2 1-2.8 4.1-3.7 6.9-3.7 19.9-.2 38.6-.4 58.3-.6 2.4 0 4.5-.8 5.7-3-.1.8.1-1.4-.5-2.6zm-79.2 18.4c-.2.6-.6 1.2-.6 1.8l-.2.2c.2-.8-.6-1.2-.4-2-.4-.6-.4-1.4-.8-2-.4-.8.4-1.2.8-1.8.8.4 1 1 1.4 1.6.4.8-.2 1.4-.2 2.2z"/><path class="st0" d="M215.6 82.9c0 .2.4.2.2.4-1.8 1.6-4.1 2-6.7 2.2-.2 0-.4.2-.6.2-.2-.2-.2-.2-.2-.4 1.8-2 4.5-3 7.3-2.4zm-8.1 1c.2.8-.2 1.2-.8 1.4-.6 0-.8-.4-1.2-.8-.2-.4.2-.6.4-.8.4-.6 1.4-.6 1.6.2zm-94.6 0c.2.4 0 .8-.2 1-.2.2-.6.4-1 .2-.4 0-.6-.4-.6-.8s.2-.8.6-1c.4.2.8.2 1.2.6zm-8.8 3.3v.4c-1.2.2-2.4 0-3.2-.8-.8-1-1.6-2-2.6-2.6 0-.2-.4-.4 0-.4 2.4.1 3.8 2.1 5.8 3.4zm119-3.3c-1.2 1.8-2.2 3.7-4.1 4.5-.4 0-.6.6-1 .2.8-2 2.6-3.9 4.3-4.7.4 0 .6-.2.8 0zm-107.2.6c0 .6-.4.6-.8 1-.4 0-.6-.2-.8-.6-.2-.6.2-.8.6-1 .2 0 .8.2 1 .6zm113.5.2c-.4.6-.2 1.6-.8 2.4-1 1.2-1.8 2.4-3.3 2.8-.2-.4.4-1 .6-1.4.8-1.6 1.8-3.2 3.3-3.9l.2.1zm-140.9.6c.2.4.4.8 0 1.2-.2.2-.8.4-1.2.2-.4-.2-.6-.8-.4-1.2.4-.6 1.4-.8 1.6-.2zm-2.8.6c0 .2.2.4.2.8-.2.2-.4.6-.8.6-.6.2-1-.2-1.2-.6 0-.4.2-.8.4-1 .7-.4 1.2-.2 1.4.2zm6 .2c.2.4.2 1.2-.4 1.2-.8.4-1.2-.2-1.6-.6 0-.4.2-.8.6-1 .6 0 1 0 1.4.4zm8 .7c0 .4 0 .8-.4 1-.2.2-.8.2-1 .2-.2-.4-.6-.6-.4-1 .2-.2.4-.4.8-.6.4 0 .8-.1 1 .4zm134.6.2c-.2.4-.4.8-.8.8s-1-.2-1.2-.6c-.2-.6.2-.8.6-1 .6.1 1.2.4 1.4.8zm-9.3.4c0 .4-.4.8-.6.8-.8.4-1.4-.2-1.6-.8.2-.4.4-.8.8-1 .8 0 1.2.4 1.4 1zm6.3-.2c0 .4-.2.8-.4.8-.4.2-1 .2-1.2-.2-.4-.4-.2-.8.2-1 .5-.2 1.2-.2 1.4.4zm-144 .8c.2.6-.2 1-.6 1.2-.4 0-1-.2-1.2-.8 0-.4.2-1 .4-1 .6 0 1 .4 1.4.6zm135.4.6c.2.6-.2 1-.8 1.4-.4.2-.6-.2-1-.4-.2-.2-.4-.8 0-1 .4-.8 1.4-.6 1.8 0zm-108.6.6c.2.6-.4.6-.6 1-.2.2-.6.2-.8 0-.2-.4-.6-.6-.4-1 .2-.2.4-.4.6-.4.6-.4.8 0 1.2.4zm119.2.4c.2.4-.2.6-.2.8-.4.2-.8.4-1.2.2-.4-.2-.4-.6-.4-1.2.2-.2.4-.4.8-.6.2 0 .8.2 1 .8zm-3.1.2c.2.6-.4 1-.8 1-.2 0-.4-.2-.6.2 1.4.6 2.2 1.8 3.2 2.6v.4c-1.8 0-3.5-.4-4.9-2-.4-.2-1-.2-1.4-.6.6-.6 1.8-.4 2.8-.4.6-.8-.8-1.2.2-1.8.4 0 .4-.4 1-.2.1.2.3.4.5.8zm-20.3 0c.2.2-.2.6-.2.8-.4.4-.8.4-1.2.2-.2-.4-.6-.6-.4-1.2.4-.8 1.6-.6 1.8.2zM98.5 91.6c-.2.4-.4.8-.8.8s-.8-.2-1-.6c0-.4.2-.6.2-.8.7-.6 1.6-.2 1.6.6zm4-.8c0 .8-.8 1.2-1 1.8-.8 1.6-2.2 3.2-3.9 3.3-.2-.4.6-1 .8-1.4.8-1.8 2.4-2.6 3.7-3.7h.4zm106.2.8c0 .6-.4 1-.8 1.2-.4.2-.8-.2-1-.4-.4-.4-.2-.8 0-1.2.6-.6 1.4-.2 1.8.4zm3.1.4c0 .6-.4 1-1 1.2-.2-.2-.4 0-.4-.2-.4-.2-.6-.6-.6-1 .2-.2.4-.6.8-.8.2 0 1 .2 1.2.8zm-101.4-.2c0 .6-.4.8-.8 1-.4 0-.8-.2-1-.6-.2-.4.4-.8.6-1 .6 0 .8.4 1.2.6zm3.3.2c-.2.4-.4.8-1 .8-.4-.2-.8-.2-1-.6 0-.6.4-.8.8-1 .6.2 1 .4 1.2.8zm108.8 3.5c.2.2.8.4.6.8-.8.4-1.4-.6-2.2-.8-1.2-1.2-2.2-2.6-2.6-3.9.4-.4 1 .2 1.4.2 1 1.2 2.2 2.3 2.8 3.7zm1.7-3.5c.2.4.2.8-.2 1.2-.4.6-1 .4-1.4.4-.2-.4-.8-.8-.4-1.2.2-.4.6-.6 1-.6.5-.2.7.2 1 .2zm-105.9 1.3c0 .4.2 1-.4 1.2-.4.2-1 0-1.2-.6-.2-.6.2-.8.6-1 .4.1.8.2 1 .4zm93.3 3.4c.8 1 1.2 2.2 1.4 3.5-.2.4.2.8 0 1h-.4c-2.2-1.6-2.8-3.9-3.5-6.1-.2-.2-.2-.4-.2-.6.4-.4.8.4 1.4.6l1.3 1.6zm-86.8-1.8s0 .2 0 0c-2 1.6-4.7 2.4-7.1 1 0-.2 0-.4.2-.4 1.4-.4 2.8-1.2 4.3-1l2.6.4zm-11.5.2c-1.8 1-3.2 3.2-5.3 3.5-.4.2-.6.8-1.2.4 1-2.8 3.7-4.1 6.5-4.3v.4zm95.4 2.4c.2.4 0 1-.4 1-.2.2-.8.2-1 0-.4-.2-.4-.6-.4-1 .2-.4.4-.4.8-.6.4.2.8.2 1 .6zm-4.2.2c-.4.8-1.2 1.2-1.8 1.4-1.8.6-3.2-.2-4.7-.6 0-.4.6-.2.8-.4 1.6-.4 3.3-.8 5.1-.2.1-.4.4-.4.6-.2zm-91.2 1.4c-.2.2-.2.6-.6.8-.4.2-.8 0-1-.2-.2-.4-.4-.6-.2-1s.4-.4.8-.6c.6.2 1 .6 1 1zm3 .5c-.2.4-.4.8-.8 1-.4.2-.8-.2-1-.4-.2-.4-.4-.6-.2-1 .2-.2.4-.4.8-.4.6-.1 1 .5 1.2.8zm91.4.4c0 .4-.2.6-.4 1s-.8.4-1.2.2c-.4 0-.4-.4-.6-.8-.4-.4.2-.6.4-1 .6-.3 1.6-.1 1.8.6zm2.2 0c0 .2.2.4.2.8-.4.2-.4 1-1.2.6-.2.2-.4-.4-.6-.4-.2-.6 0-1.2.6-1.4.4-.1.8.2 1 .4zm-95.4 1.4c.2.6-.2 1-.4 1.4-.6.2-1.2.2-1.4-.6 0-.4 0-1.2.6-1.4.4 0 1 0 1.2.6zm3-.2c-.2 1.4-.4 3.2-1.8 3.9-.8.2-1.6 1-2.4.4v-.2c1-1.5 2.8-2.7 4.2-4.1zm82.3 1.2c.2.4-.2.6-.2.8-.2.4-.8.2-1.2 0s-.4-.6-.2-1 .4-.4.6-.6c.4 0 .8.4 1 .8zm-77.4 2.4c.8 1.2.4 2.8.8 3.9-.8.2-1.2-.8-1.8-1.4-1.2-1.6-1-3.5-1.4-5.3.2-.2.2-.2.4-.2.8.4 1.4 1.4 2 2.2-.4.4 0 .4 0 .8zm80-2c0 .4-.4.6-.8.8-.4 0-.6-.2-1-.4-.2-.4.2-.6.4-1 .8-.2 1.2 0 1.4.6zm5.9 4.5c0 .2 0 .4-.4.4h-.2c-1.4-1.4-3-2.8-2.8-4.7h.4c1.4 1 3 2.2 3 4.3zm-3.8-1.7c0 .4-.2.8-.4 1-.6.2-1.4.2-1.6-.6 0-.6.6-.8.8-1 .7-.2 1 .2 1.2.6zm-3.3 1.1c-.8 1.8-2.6 2.8-3.9 4.1-.2-.2-.2-.6-.2-.8.4-2 2-3.7 3.7-4.5 1.2.3.4.8.4 1.2zm3.7 1.4c0 .4-.4.6-.8 1-.4 0-.8-.2-1.2-.6 0-.6.4-.6.6-1 .8 0 1.2.2 1.4.6zm-37-91c.6 0 1.2.6 1.2 1.2s-.6 1.2-1.2 1.2h-14.8c-.6 0-1.2-.6-1.2-1.2s.6-1.2 1.2-1.2h14.8zm-10.4 2.2c1.4 0 0-1.8-.8-1.8h-1.2c-1.4 0 0 1.8.8 1.8h1.2zm6.1 0c1.4 0 0-1.8-.8-1.8h-1.4c-1.4 0 0 1.8.8 1.8h1.4zm4.5-1.8h-.6c-1.4 0-.2 1.8.6 1.8 1 0 1-1.8 0-1.8zM166.7 34l2.8 1 2.8-1-1.2 4.1 2.2-.4-.9 2.6.8 2.4-2-.6.8 4.5-2.8-1-2.8 1 1.2-4.5-2.2.6.6-2.6-.5-2.3 2.2.4-1-4.2zm4.2 7.5c.6 0 .8-.8.8-1.6 0-1.8-1.4 0-2-1.6-.6 1.4-2 .2-2 1.6 0 1 0 1.6 1 1.6h2.2zm-2.8-1.3c0 .6.8.2 1.6.2.6 0 1.6.4 1.6-.2 0-1-.8-.6-1.6-.6-.8-.2-1.6-.4-1.6.6zm-8.1 0v-.4l-.4-.2.4-.4-.2-.4h.4l.4-.4.2.4h.4l-.2.4.4.4-.4.2v.4l-.4-.2zm-2.1 2.9v-.6l-.4-.2.4-.2-.2-.6.3.2.2-.6.4.6.4-.2-.2.6.4.2-.4.2v.6l-.6-.4zm3.7-.4v-.6h-.4l.4-.4-.4-.4h.6l.2-.6.4.6h.4l-.2.4.4.4h-.4v.6l-.6-.4zm.4 2.2v-.4h-.2l.2-.2-.2-.4.4.2.2-.4v.4l.4-.2-.2.4.2.2h-.2v.4l-.2-.2zm-3.4 2.3v-.9l-.7-.2.5-.6-.4-.8.8.2.6-1 .4 1 .8-.2-.4.8.8.6-.8.2v.9l-.8-.5zM160.4 0l1.8 4.3 4.3-1.4-2.1 4.2 3.7 2.5-4.5.8.2 4.7-3.4-3.1-3.5 3.1.4-4.7-4.8-.8 4-2.5-2.4-4.2 4.5 1.4zm-16.1 96.5c-.6.2-.8.4-.6 1l.6 2.6c.2.4.2 1.2-.2 1.8s-1.2 1-1.8 1c-.4.2-1.4.2-2.2 0-.4-.2-.8-.4-1-1.4l-.6-2.8c-.2-.8-.4-.6-1-.6v-.2l3.3-.8v.2c-.6.2-1 .2-.8 1l.6 2.8c.2.4.4 1.6 1.8 1.2 1.8-.4 1.4-1.8 1.4-2.2l-.6-2.6c-.2-.6-.4-.8-1.2-.6v-.2l2.2-.6.1.4zm4.9.6c-.4-.6-1.2-1.4-2.4-1.2-.6.2-1 .4-.8 1 .2.4.4.6 1.2.8l1.6.2c.4 0 1.2.4 1.4 1.4.2.8-.2 2-2.2 2.4-1 .2-1.4 0-1.8.2-.2 0-.2.2-.2.4h-.2l-.4-2h.2c.4.8 1.2 1.6 2.4 1.4s1-1.2 1-1.2c-.2-.6-.6-.6-1.4-.8l-.8-.2c-1.8-.4-2-1-2.2-1.4-.2-.6 0-1.8 1.8-2.2.8-.2 1.4 0 1.6 0s.2-.2.2-.4h.4l.4 1.8.2-.2zm6.7 3.3l-3.5.4v-.2c.8-.2 1-.2 1-.8l-.4-4.5c-.8.2-1.8.2-1.8 1.6h-.2l-.2-1.8 6.1-.6.2 1.8h-.2c-.4-1.4-1.4-1.4-2.2-1.2l.4 4.5c0 .8.4.8 1 .8h-.2zm8.3 0H162l-2-2.8h-.2v1.6c0 .6.2.8.8.8v.2h-3.3v-.2c.8 0 1 0 1-.8v-3.7c0-.8-.4-.8-.8-.8v-.2h3.3c.8 0 3 .2 2.8 1.6 0 1-1 1.4-1.6 1.4l2 2.6c.2.2.2.2.4.2l-.2.1zm-4.4-2.9c1.4 0 1.8-.2 2-1.2 0-.8-.4-1.2-1.2-1.2-.6 0-.6 0-.6.4l-.2 2z"/><path class="st0" d="M170.9 101.2l-3.3-.4v-.2c.6 0 .8 0 .8-.2s-.2-1-.4-1.2l-2.4-.2c-.4.6-.6 1-.6 1 0 .4.4.4.8.4v.2l-2-.2v-.2c.6 0 .8-.2 1.2-.8l2.8-4.3h.2l1.8 4.7c.5 1 .7 1.2 1.1 1.4zm-2.8-2.3l-.8-2.2-1.2 2 2 .2zm8.7 3.5l-5.7-1v-.2c.6 0 .8 0 1-.4l.8-4.1c.2-.6-.4-.6-.8-.8v-.2l3.5.6v.2c-.8-.2-1-.2-1.2.6l-.8 3.9c0 .4.2.6.8.6 1.6.2 2.2-.4 2.8-1.2h.2l-.6 2zm3.9 1l-3.5-.8v-.2c.6 0 1 .2 1-.4l.8-4.1c.2-.6-.4-.6-.8-.8v-.2l3.5.8v.2c-.4 0-1-.2-1 .4l-.8 4.1c-.2.6.2.6.8 1z"/><path class="st0" d="M187.8 104.2l-3.4-.4v-.2c.6 0 .8 0 .8-.2s-.2-1-.4-1.2l-2.4-.2c-.4.6-.6 1-.6 1 0 .4.4.4.8.4v.2l-2-.2v-.2c.6 0 .8-.2 1-1l2.8-4.3h.2l1.8 4.7c.4 1 .4 1.2 1 1.4l.4.2zm-3-2.2l-.8-2.2-1.2 2 2 .2zm-23-66.6c0-2-1.2-.2-1.8-1.8-.4 1.4-1.8.2-1.8 1.8 0 .6.2 1 .4 1.2v.6c0 .2.2.2.2.2h2.2c.2 0 .2-.2.2-.2v-.6c.4-.2.6-.6.6-1.2zm-1.8.4c-.6 0-1.4.4-1.4-.2 0-1 .6-.8 1.4-.8.6 0 1.6-.2 1.6.8-.2.6-1 .2-1.6.2zm19.5 24.8c.6 0 1-.4 1-.8s-.4-.8-1-.8-1 .4-1 .8.6.8 1 .8zm-4.3-30.3l-.4.8c0 .2.2.4.4.4s.4-.2.4-.4l-.4-.8zm-30.2 0l-.4.8c0 .2.2.4.4.4s.4-.2.4-.4l-.4-.8zm7.5 0l-.4.8c0 .2.2.4.4.4s.4-.2.4-.4c.2 0-.4-.8-.4-.8zm7.5 0l-.4.8c0 .2.2.4.4.4s.4-.2.4-.4c.2 0-.4-.8-.4-.8zm7.7 0l-.4.8c0 .2.2.4.4.4s.4-.2.4-.4l-.4-.8zM145 40.5l.4.8c0 .2-.2.4-.4.4s-.4-.2-.4-.4c.1.2.4-.8.4-.8zm0 10.1l.4.8c0 .2-.2.4-.4.4s-.4-.2-.4-.4c.1.2.4-.8.4-.8zm1.2 7.9l.4.8c0 .2-.2.4-.4.4s-.4-.2-.4-.4c0 .2.4-.8.4-.8zm6.3 4.3l.4.8c0 .2-.2.4-.4.4s-.4-.2-.4-.4l.4-.8zm23.1-22.3l-.4.8c0 .2.2.4.4.4s.4-.2.4-.4c0 .2-.4-.8-.4-.8zm0 10.1l-.4.8c0 .2.2.4.4.4s.4-.2.4-.4c0 .2-.4-.8-.4-.8zm-1.2 7.9l-.4.8c0 .2.2.4.4.4s.4-.2.4-.4c0 .2-.4-.8-.4-.8zm-6.3 4.3l-.4.8c0 .2.2.4.4.4s.4-.2.4-.4l-.4-.8zm-7.7 4.5l-.4.8c0 .2.2.4.4.4s.4-.2.4-.4l-.4-.8zm12.2-14.9c.2.2.4.2.6 0l.2-.8s-.4-.4-.6-.4c-.8.2-1.6.2-2.2 1 0 .6.4 1 .8 1.2.2-.2.4.2.6.4 0 .2-.2.4-.4.4-.6-.6-1.6.2-2-.6.2-.8.6-1.6 0-2.2 0-.2.2-.2.2-.4-.2-.6-1-.2-1.4-.2-.8-.2-1.4.2-1.8.8 0 .2.2.4.4.8.2 0 .2 0 .4.2l-.3.2c.2.2.2.4.2.6-.4.2-.6-.4-.8-.6 0-.4 0-1-.4-1.2-.2 0-.4.2-.4.2-.2.2-.2.4-.2.8s.2.8.2.8 1.4 1 1.8 1.8c-.4.8-.4 2-1.4 2.6-.2.2-.2.4-.2.8l.2.2c.6-.4 1.8-.4 1.8-1.4.2-.4.4-1 1-1.2.4-.2 1 .2 1 .6-.2.8-.6 1.2-1.2 1.4v.4c.2.4.8.2 1 .2.8-.6 1.2-1.4 1.8-1.8.2.4-1 .6-.2 1.2.4-.2 1 0 1.4-.6-.4-.8 1.2-1.2.2-2 0-.8.8-1 .8-1.8-.2-.8-1.2-.8-1.4-1.4-.5-.2-.1-.2.3 0zM138 61c.6 0 1-.4 1-.8s-.4-.8-1-.8-1 .4-1 .8c.2.4.6.8 1 .8zM89.3 89.4c.6 0 1-.4 1-.8s-.4-.8-1-.8-1 .4-1 .8.4.8 1 .8zm30.9 6.9c-.2-.2-.2-.2 0 0zm0 0zm.2 0s-.2 0 0 0c-.2 0 0 0 0 0-.2 0-.2 0 0 0-.2 0-.2 0 0 0zm.4 0c-.2 0-.2 0 0 0-.2 0-.2 0 0 0-.2 0-.2 0 0 0zm0 0s0-.2 0 0c0-.2 0 0 0 0zm0 0zm.2 0s-.2 0 0 0c-.2 0-.2 0 0 0z"/><path class="st0" d="M177.7 29.1h-34.6v26.6c0 2.8 1.2 5.1 2.8 5.7l13.4 8.5c.2.4.8.6 1.2.6.4 0 .8-.2 1-.4l13.6-8.7c1.6-.8 2.8-3.2 2.8-5.7V29.1h-.2zm-.9 26.8c-.2 2-.8 3.7-2.2 4.5l-13 8.3c-.2.2-.6.4-1 .4s-.8-.2-1-.4l-13-8.3c-1.4-1-2-2.6-2.2-4.5V30.1h32.7l-.3 25.8z"/><path class="st0" d="M164.9 67.7l.4-.2c-.2 0-.2.2-.4.2zM138.7 104l-3.3.4v-.2c.6-.2.8-.2.8-.4s-.4-.8-.6-1l-2.4.2c-.2.6-.4 1-.4 1.2 0 .4.6.2.8.2v.2l-2 .2v-.2c.6-.2.6-.4.8-1.2l1.8-4.9h.2l2.8 4.1c.6.8.8 1.2 1.2 1l.3.4zm-3.1-1.6l-1.2-2-.8 2.2 2-.2z"/><path class="st0" d="M196.3 91.6c-.6-1.6-1.8-2.6-3.3-3.2-1.6-.4-3.3-.2-4.3 1.2-1.8 1.4-.6 3.9-.4 5.9 0 .4 0 .8-.4 1-7.3-.6-14-2.4-21.1-3.2-1.6-.2-3.3-.2-4.9-.6l-2-.2c-6.3.2-12.4.6-18.3 2-1.2.4-2.6.4-3.9 1-1-.2-1.6.4-2.6.2l-1.7.4h-.6c-.8-2 1.6-3.3.8-5.3-.6-1.2-2-2.2-3.3-2-1.8-.2-3.2.8-3.9 2-1.2 2.6.4 5.1.8 7.5-.2.8.8 1.8 0 2.4-1.6-1.2-3.7-1.8-5.7-1.2-.6.4-1.8-.2-2 .6 2.2 1.2 4.9 1 7.3 1 .4-.2.6-.2.8 0 .2 1.4-.2 3.2.6 4.1 1 1.2 2.4 1.6 3.7 1.6 4.5-.2 8.7-1.6 12.8-2.6.6 0 1.2-.4 1.8-.4 2.2-.6 4.7-1 7.1-1-1 1.4-1.6 3-2.2 4.5-.6 1.4 1 1.6 1.6 2.4-1.6.4-2.6 1.6-4.1 2.2-3.2-.2-5.9 1.2-8.9 1.4 0 .6 1 .4 1.2 1.2-.2.4-.6.6-1 .8 0 .4 0 .4.4.4.4-.4 1-.2 1.2-.4 1 0 1.8-.4 2.8-.4.8-.4 1.8-.4 2.6-1 1-.4 1.8-1 2.8-1.4 1.6 0 2.8-.6 4.1-.6v.4c-1.2 1.8-2.4 3.7-3.5 5.5-.2.4 0 .8.4.8.8.2 1.4 0 2-.4 1-1.8 2-3.5 2.8-5.3.4-1.8 1.6-2.6 2.8-3.7.2-.2.4-.4.8-.2-1 1.2-1.6 2.4-2.4 3.5-.4 1.4-.6 3.2.8 4.3.6.6 1.6.4 2.4.4 2-1 4.3.6 5.9-1.4 1-.2 1 1 1.6 1.4.8.2 1.8 1.2 2.6.4 0-.6-.6-1-1-1.6-.6-1-1.4-2-2-3-.2-.8-.8-1.2-.8-1.8 1 .4 1.8 1 2.8 1 .8.4 2 .4 2.8.8.6.8 1.6 1.4 2.6 2 1.2.6 2.6.8 3.9 1.2.4 0 1.2.4 1.6 0-.2-.2-.4-.4-.8-.6-.2-.6 1-.4 1.2-.8-.2-.2-.4-.4-.6-.4-.8-.4-2.6-.6-3-.8l-1.8-.6c-3 0-4.7-2.8-7.1-3.7.6-.6 1.4-1 1.8-1.6.4-.8.6-1.8.2-2.6-.4-1.6-2.4-1.4-3.5-2.2l.2-.2c2-.2 3.5.4 5.3.8 4.7.6 9.3 2.4 14.2 2.6 2.8 0 6.1.2 7.5-2.6.2-1.6.6-3.2.8-4.7.3-2.1 1.9-4.5 1.7-7.2zm-53.8 22.8l-.8-.6c.4-.4 1.2-.2 1.6-.6 1.4-.4 2.8-1 4.1-.6-1.2 1.2-3.1 1.4-4.9 1.8zm31.1-.8c1.2.6 3.5 1 5.3 1.2-.2.6-1.4 0-1.2 1-1.6-.6-3.3-1-4.5-2.2h.4zm-46.7-21.2c.2-1 .4-1.8 1.2-2.6 1.2-.6 2.8-.4 3.9.2.4.2.6.4.8 1 .2.8-.2 1.8-.8 2.4h-.4c0-.8 0-1.6.4-2.4 0-.6-.6-.6-1-1-.8-.2-1.6.2-2.2.6-.4.6-1 1.4-.6 2.2.4.6 0 1.4.2 2l-.2.2c-.7-.9-1.5-1.5-1.3-2.6zm2.4 1.3c.8.6 1.8.4 2.8.4.2.6.2 1.2-.2 1.8-.8-.2-2-.2-2.4-1-.2-.2-.4-.8-.2-1.2zm-.2-1.7c.2-.4 0-1 .6-1.2.4-.2 1-.2 1 .4s-.2 1.2-.2 1.8c-.8.1-1.2-.4-1.4-1zm23.2 16.1c-.2-1.8.4-3.3 1.6-4.5.8-.2 1.6-.4 2.2.2-1.4.4-3 .6-3.2 2.4 0 .6-.2 1 .2 1.6.6 1 1.8.6 2.6 1.4 0 .2-.2.6-.4.6-1-.7-2.2-1.1-3-1.7zm-1.7 3.6c1.2-.6 2.4-1.6 3.7-1.2-.8.8-2.4 1-3.7 1.2zm4.7.4c-.8 1.6-1.6 3.2-2.4 4.7-.2.2-.6.4-.8.4 0-.8.8-1.2 1-1.8 1-1.4 1.4-2.8 2.6-4.1.2.2-.4.4-.4.8zm1.4-2.8c0-.2-.2-.2 0 0zm-.6-1.4l-2.4-.6c-.4-.6 0-1 0-1.6.8-1.2 2.8-1.6 3.5-.6.1 1.1-.3 2-1.1 2.8zm1.2 0c.2-.6.4-1.6.8-2.2-.1.6-.4 1.6-.8 2.2zm.6-4.1c-.6-.2-1-1-1.8-1 .6-.2 1.2-.2 2 0 .1.4-.2.8-.2 1zm.5 1.6v-.6.6zm0 2.1c0-.2.2-.4.2-.8.2-.2.4.2.6.4-.2.4-.6.6-.8.4zm.8-2.9c.2-.8.2-1.4.8-1.8.4 0 1 0 1.4.2.2 1 1.4 2.4 0 3.2-.4.2-1.2.6-1.6.2-.8-.6-1-1.2-.6-1.8zm3.6-1.6c-.2-.4.4-.2.6-.4l1.6.2c-.8 0-1.8 1.8-2.2.2zm2.5.8c-.6.2-1 1-1.6 1 .3-.6 1-1 1.6-1zm-2.1 3.1zm.2 3c0 .2 0 .2-.2.4l-1.2-1c.6 0 1 .2 1.4.6zm-1.4-1.6c.2-.2.4-.2.4 0h-.4zm-.8-.8c.2-.4.4-.8.8-.8 0 0 0 .2.2.2-.4.4-.6.6-1 .6zm-1.2 0l.2-.4c.2.2 0 .2-.2.4zm.2 1.8c.6-.8 1.2.4 1.6 1 .8 1.2 2.8 2.2 2 3.5-1 .8-2.4 0-3.5.8-.6 0-1.6.2-1.8-.4.5-1.5.9-3.3 1.7-4.9zm-1.4 1l.2-.4c-.4 1.2-1 2.4-1.6 3.5-.1-.9 1-1.9 1.4-3.1zm2.2 6.1c-1 0-2.4.6-3.3-.2 0-.4-.4-.6-.4-1 .8-.4 1.6.6 2.2 0 1.2 0 2.4-.2 3.5.2.6.2 1.4-1 1.6.2-.4 1.4-2.4.2-3.6.8zm3-7.3zm.2 3.2c0 .6.6.8.2 1.2 0-.3-.2-.7-.2-1.2zm1.5 2.9l-.2.2c-.2-.2-.2-.8-.2-1 .2.2.4.6.4.8zm2.4 1.2c0 .2-.4.2-.4 0-1.6-2-2.2-3.9-3.2-6.1h.2c1.2 2.2 2.2 4.3 3.4 6.1zm2-4.5c-.2 0-.2.2 0 0-1.6.2-2.6-.6-3.7-1.4v-.2c1.3 0 2.3 1 3.7 1.6zm-1.4-6.7c.6.2.6.8.8 1.4 0 1.2-.6 2-1.8 2.4-.6.4-1.4.4-2 .2 1.2 0 2.6-.4 3-1.8v-2.2zm-1.2-.2c.2.8.8 1.4.4 2.2-.4 1-1.6 1-2.4 1.2-.4 0-.8-.2-1.2-.4 0-.2 0-.4-.2-.4.2-.6-1.2-1.4-.2-1.8 1-.8 2.8-2.6 3.6-.8zm25.4-3.6c-.4.4 0 1.4-.6 1.8 0 1-.8 1.4-1.4 1.8-5.9 1.4-11.8-.8-17.5-1.8-8.1-1.8-17.3-2.2-25.6-.4-3.7.8-7.5 1.6-11.2 2.6-2.4.4-4.7.6-6.9 0-1.8-.8-1-3.2-1.6-4.7.2-1.2-.4-2.2-.4-3.5-.2-.4-.2-1-.2-1.4.8.2 1.6.6 2.4.8 4.1.8 7.9-.6 11.8-1.2 3.7-.8 7.5-1.4 11.4-1.8 4.5 0 9.1-.4 13.4.4 1.4 0 2.6.4 3.9.4 2.8.4 5.3 1.2 8.3 1.4.4.2 1 .2 1.6.2 4.5.8 9.5 2 13.8 0-.2 1.9-1 3.6-1.2 5.4zm-1.4-6.1c0 .8-.8.6-1.2 1h-1.2c-.2-.4-.2-1-.2-1.4.9 0 1.9 0 2.6.4zm-.6-1.4c.6-.6-.2-3.7 1.4-1.6 0 .4 0 1-.4 1.4-.2 0-.6.4-1 .2zm4-.4c-.4 1-1.2 1.6-2.2 1.8 0-1.2 1.2-2 .8-3.3-.6-1-2-1.2-3.2-1-.4.4-.2.8-.4 1.2l-.2 1.6c-1 0-1-1-1.4-1.6 0-1 .6-2.2 1.6-2.6.8-.4 2.2-.4 3 .2.6.2 1.4.4 1.6 1 .8.6.6 1.8.4 2.7zm-182 55.8H5.5l-.9 2c-.3.7-.4 1.2-.4 1.7 0 .6.2 1 .7 1.3.3.2 1 .3 2 .4v.6H0v-.6c.7-.1 1.4-.4 1.8-.9s1.1-1.6 1.8-3.1l7.5-16.7h.3l7.5 17.1c.7 1.6 1.3 2.6 1.8 3.1.3.3.8.5 1.5.6v.6H12.1v-.6h.4c.8 0 1.4-.1 1.7-.3.2-.2.3-.4.3-.7 0-.2 0-.4-.1-.6 0-.1-.2-.5-.5-1.2l-1-2.7zm-.5-1.1L9.3 141l-3.2 7.2h6.3zm25.1-7.3v11.3c0 1.1.1 1.8.3 2.1s.6.4 1.2.5v.6h-5.9v-1.9c-.7.8-1.4 1.4-2.1 1.8-.7.4-1.5.6-2.3.6s-1.5-.2-2.2-.7c-.6-.5-1.1-1.1-1.3-1.7-.2-.7-.3-1.8-.3-3.5v-5.7c0-1.1-.1-1.8-.3-2-.2-.3-.6-.4-1.3-.5v-.6h5.9v9.8c0 1 0 1.7.1 2s.3.5.5.7.5.2.7.2c.4 0 .7-.1 1-.3.4-.3.9-.8 1.5-1.6v-7.7c0-1.1-.1-1.8-.3-2-.2-.3-.6-.4-1.3-.5v-.6h6.1v-.3zm12.7-.4l.2 4.9h-.5c-.6-1.5-1.3-2.5-1.9-3-.7-.5-1.3-.8-2-.8-.4 0-.8.1-1.1.4s-.4.6-.4 1c0 .3.1.5.3.8.3.4 1.2 1.1 2.8 2.2 1.5 1 2.5 1.9 3 2.6s.7 1.5.7 2.4c0 .8-.2 1.6-.6 2.4s-1 1.4-1.7 1.8c-.7.4-1.5.6-2.4.6-.7 0-1.6-.2-2.8-.6-.3-.1-.5-.2-.6-.2-.3 0-.6.3-.8.8h-.5l-.2-5.2h.5c.5 1.4 1.1 2.4 1.9 3 .8.7 1.6 1 2.3 1 .5 0 .9-.2 1.2-.5s.5-.7.5-1.1c0-.5-.2-.9-.5-1.3s-1-.9-2.1-1.6c-1.6-1.1-2.6-1.9-3-2.5-.7-.8-1-1.8-1-2.8 0-1.1.4-2.1 1.1-3 .8-.9 1.9-1.3 3.3-1.3.8 0 1.5.2 2.3.6.3.2.5.2.7.2s.3 0 .4-.1c.1-.1.3-.3.5-.7h.4zm8.9-4.9v5.3h3.4v1.5h-3.4v8.9c0 .8 0 1.4.1 1.6s.2.4.4.6c.2.1.4.2.5.2.7 0 1.3-.5 1.9-1.5l.5.3c-.8 2-2.2 3-4 3-.9 0-1.7-.3-2.3-.8s-1-1.1-1.2-1.7c-.1-.3-.2-1.3-.2-2.8v-7.8h-1.9v-.5c1.3-.9 2.4-1.9 3.3-2.9.9-1 1.7-2.1 2.4-3.4h.5zm10.8 5.3v3.3c1-1.5 1.8-2.5 2.5-3s1.4-.7 2.1-.7c.6 0 1 .2 1.4.5.3.4.5.9.5 1.5 0 .7-.2 1.2-.5 1.6-.3.4-.7.6-1.2.6s-1-.2-1.4-.5-.6-.5-.7-.6c-.1-.1-.2-.1-.4-.1-.3 0-.6.1-.8.3-.4.3-.7.8-1 1.5-.3 1-.5 2.1-.5 3.3v4.2c0 .6 0 1 .1 1.1.1.3.3.5.5.6.2.1.6.2 1.2.2v.6h-7.8v-.6c.6-.1 1-.2 1.3-.5.2-.3.3-1.1.3-2.3v-8c0-.8 0-1.3-.1-1.6-.1-.3-.3-.5-.4-.6-.2-.1-.5-.2-1-.3v-.6l5.9.1zm15.9 12.2c-1.8 1.5-3.3 2.3-4.7 2.3-.8 0-1.5-.3-2-.8s-.8-1.2-.8-2c0-1.1.5-2.1 1.4-3 .9-.9 3-2 6.2-3.5v-1.4c0-1.1-.1-1.8-.2-2.1-.1-.3-.3-.5-.7-.7-.3-.2-.7-.3-1.1-.3-.7 0-1.2.1-1.6.4-.3.2-.4.4-.4.6 0 .2.1.5.4.8.4.4.6.9.6 1.3 0 .5-.2.9-.6 1.3-.4.4-.9.5-1.5.5s-1.2-.2-1.6-.6c-.4-.4-.7-.8-.7-1.4 0-.7.3-1.4.9-2.1s1.4-1.2 2.4-1.5c1-.4 2.1-.5 3.3-.5 1.4 0 2.4.3 3.2.9.8.6 1.3 1.2 1.5 1.9.1.4.2 1.4.2 3v5.6c0 .7 0 1.1.1 1.2.1.2.1.3.2.4.1.1.2.1.4.1.3 0 .5-.2.8-.6l.5.4c-.5.8-1 1.3-1.6 1.7s-1.2.5-1.9.5c-.8 0-1.5-.2-1.9-.6-.4-.4-.7-1-.8-1.8zm0-1.1v-4.8c-1.2.7-2.2 1.5-2.8 2.3-.4.6-.6 1.1-.6 1.7 0 .5.2.9.5 1.2s.6.4 1.1.4c.5.1 1.1-.2 1.8-.8zm13.5-17.6v17.9c0 1 .1 1.7.4 1.9.3.2.7.4 1.4.5v.6h-7.8v-.6c.6 0 1.1-.2 1.4-.6.2-.2.3-.9.3-1.9v-14.8c0-1-.1-1.6-.4-1.9s-.7-.4-1.4-.5v-.6h6.1zm8.7 6.5v11.4c0 1 .1 1.7.4 1.9.3.2.7.4 1.4.5v.6H102v-.6c.6 0 1.1-.2 1.4-.6.2-.2.3-.9.3-1.9v-8.4c0-1-.1-1.7-.4-1.9-.3-.2-.7-.4-1.4-.5v-.6l6.1.1zm-2.1-7c.7 0 1.2.2 1.7.7s.7 1 .7 1.7-.2 1.2-.7 1.7-1 .7-1.7.7-1.2-.2-1.7-.7-.7-1-.7-1.7.2-1.2.7-1.7c.4-.5 1-.7 1.7-.7zm13.2 19.2c-1.8 1.5-3.3 2.3-4.7 2.3-.8 0-1.5-.3-2-.8s-.8-1.2-.8-2c0-1.1.5-2.1 1.4-3 .9-.9 3-2 6.2-3.5v-1.4c0-1.1-.1-1.8-.2-2.1-.1-.3-.3-.5-.7-.7-.3-.2-.7-.3-1.1-.3-.7 0-1.2.1-1.6.4-.3.2-.4.4-.4.6 0 .2.1.5.4.8.4.4.6.9.6 1.3 0 .5-.2.9-.6 1.3-.4.4-.9.5-1.5.5s-1.2-.2-1.6-.6c-.4-.4-.7-.8-.7-1.4 0-.7.3-1.4.9-2.1s1.4-1.2 2.4-1.5c1-.4 2.1-.5 3.3-.5 1.4 0 2.4.3 3.2.9.8.6 1.3 1.2 1.5 1.9.1.4.2 1.4.2 3v5.6c0 .7 0 1.1.1 1.2.1.2.1.3.2.4.1.1.2.1.4.1.3 0 .5-.2.8-.6l.5.4c-.5.8-1 1.3-1.6 1.7s-1.2.5-1.9.5c-.8 0-1.5-.2-1.9-.6-.4-.4-.7-1-.8-1.8zm0-1.1v-4.8c-1.2.7-2.2 1.5-2.8 2.3-.4.6-.6 1.1-.6 1.7 0 .5.2.9.5 1.2s.6.4 1.1.4c.5.1 1.1-.2 1.8-.8zm13.7-11.1v1.9c.7-.8 1.4-1.4 2.1-1.7.7-.3 1.4-.5 2.2-.5.9 0 1.7.3 2.3.8.6.5 1 1.2 1.2 1.9.2.6.2 1.7.2 3.4v5.6c0 1.1.1 1.8.3 2.1.2.3.6.4 1.3.5v.6h-7.3v-.6c.5-.1.9-.3 1.2-.7.2-.3.2-.9.2-1.9v-6.4c0-1.2 0-1.9-.1-2.2-.1-.3-.2-.5-.5-.7-.2-.2-.5-.3-.7-.3-.9 0-1.7.6-2.5 1.9v7.7c0 1.1.1 1.8.3 2s.6.5 1.1.5v.6h-7.3v-.6c.6-.1 1-.3 1.3-.6.2-.2.3-.9.3-2v-8.1c0-1.1-.1-1.8-.3-2-.2-.3-.6-.4-1.3-.5v-.6h6v-.1zm40.2-7v7.4h-.6c-.7-2-1.7-3.5-3.1-4.6-1.4-1.1-2.9-1.6-4.5-1.6s-2.9.4-3.9 1.3-1.8 2.1-2.2 3.7c-.4 1.6-.6 3.2-.6 4.8 0 2 .2 3.8.7 5.3s1.2 2.6 2.3 3.3c1.1.7 2.3 1.1 3.7 1.1.5 0 1-.1 1.5-.2s1.1-.3 1.6-.5v-4.3c0-.8-.1-1.4-.2-1.6s-.3-.5-.7-.7c-.4-.2-.8-.3-1.3-.3h-.5v-.5h10.1v.6c-.8.1-1.3.2-1.6.3-.3.2-.5.4-.7.8-.1.2-.1.7-.1 1.4v4.3c-1.3.6-2.7 1-4.2 1.3-1.4.3-2.9.5-4.5.5-2 0-3.6-.3-4.9-.8s-2.5-1.2-3.5-2.1c-1-.9-1.8-1.9-2.3-3-.7-1.4-1.1-3-1.1-4.8 0-3.1 1.1-5.8 3.3-8 2.2-2.2 5-3.2 8.3-3.2 1 0 2 .1 2.8.2.5.1 1.2.3 2.2.7 1 .4 1.6.6 1.8.6.3 0 .6-.1.8-.3.2-.2.5-.6.7-1.2l.7.1zm10.6 6.5c1.3 0 2.4.3 3.5 1 1.1.6 1.9 1.6 2.5 2.8s.8 2.5.8 3.9c0 2-.5 3.8-1.6 5.1-1.3 1.7-3 2.5-5.2 2.5s-3.8-.8-5-2.3-1.8-3.3-1.8-5.3c0-2.1.6-3.9 1.8-5.4s3-2.3 5-2.3zm.1 1.1c-.5 0-1 .2-1.3.6-.4.4-.6 1.2-.7 2.3-.1 1.2-.2 2.8-.2 4.9 0 1.1.1 2.1.2 3.1.1.7.4 1.3.7 1.7.4.4.8.6 1.3.6s.8-.1 1.2-.4c.4-.3.7-.8.8-1.5.2-1 .3-2.9.3-5.9 0-1.7-.1-2.9-.3-3.6s-.5-1.1-.9-1.4c-.3-.3-.7-.4-1.1-.4zm15.4 14.2l-4.8-11.2c-.6-1.3-1-2.2-1.4-2.6-.2-.3-.6-.4-1-.5v-.6h7.7v.6c-.5 0-.8.1-1 .3s-.4.5-.4.8c0 .4.2 1.1.7 2.1l2.4 5.4 1.9-4.7c.5-1.3.8-2.3.8-2.8 0-.3-.1-.6-.3-.8-.2-.2-.6-.3-1.2-.3v-.6h4.7v.6c-.5.1-.8.2-1.1.5-.3.3-.7 1.1-1.3 2.4l-4.8 11.3-.9.1zm21.5-8.1h-7.9c.1 1.9.6 3.4 1.5 4.5.7.9 1.6 1.3 2.6 1.3.6 0 1.2-.2 1.7-.5s1-1 1.6-1.9l.5.3c-.8 1.6-1.6 2.7-2.6 3.4-.9.7-2 1-3.3 1-2.1 0-3.8-.8-4.8-2.5-.9-1.3-1.3-3-1.3-4.9 0-2.4.6-4.3 1.9-5.7 1.3-1.4 2.8-2.1 4.6-2.1 1.5 0 2.7.6 3.8 1.8s1.6 2.9 1.7 5.3zm-3.8-1.1c0-1.7-.1-2.8-.3-3.4-.2-.6-.5-1.1-.8-1.4-.2-.2-.5-.3-.9-.3-.5 0-1 .3-1.3.8-.6.9-.9 2.2-.9 3.8v.5h4.2zm11.5-5.6v3.3c1-1.5 1.8-2.5 2.5-3s1.4-.7 2.1-.7c.6 0 1 .2 1.4.5.3.4.5.9.5 1.5 0 .7-.2 1.2-.5 1.6-.3.4-.7.6-1.2.6s-1-.2-1.4-.5-.6-.5-.7-.6c-.1-.1-.2-.1-.4-.1-.3 0-.6.1-.8.3-.4.3-.7.8-1 1.5-.3 1-.5 2.1-.5 3.3v4.2c0 .6 0 1 .1 1.1.1.3.3.5.5.6.2.1.6.2 1.2.2v.6h-7.8v-.6c.6-.1 1-.2 1.3-.5.2-.3.3-1.1.3-2.3v-8c0-.8 0-1.3-.1-1.6-.1-.3-.3-.5-.4-.6-.2-.1-.5-.2-1-.3v-.6l5.9.1zm13.9 0v1.9c.7-.8 1.4-1.4 2.1-1.7.7-.3 1.4-.5 2.2-.5.9 0 1.7.3 2.3.8.6.5 1 1.2 1.2 1.9.2.6.2 1.7.2 3.4v5.6c0 1.1.1 1.8.3 2.1.2.3.6.4 1.3.5v.6h-7.3v-.6c.5-.1.9-.3 1.2-.7.2-.3.2-.9.2-1.9v-6.4c0-1.2 0-1.9-.1-2.2-.1-.3-.2-.5-.5-.7-.2-.2-.5-.3-.7-.3-.9 0-1.7.6-2.5 1.9v7.7c0 1.1.1 1.8.3 2 .2.3.6.5 1.1.5v.6h-7.3v-.6c.6-.1 1-.3 1.3-.6.2-.2.3-.9.3-2v-8.1c0-1.1-.1-1.8-.3-2-.2-.3-.6-.4-1.3-.5v-.6h6v-.1zm17.7 0v1.9c.8-.9 1.5-1.5 2.2-1.8s1.4-.5 2.2-.5c.9 0 1.7.2 2.3.6.6.4 1.1 1.1 1.4 2 .8-.9 1.6-1.6 2.4-2 .8-.4 1.5-.6 2.4-.6 1 0 1.8.2 2.4.7s1 1 1.2 1.7c.2.7.3 1.8.3 3.4v5.9c0 1.1.1 1.8.3 2.1.2.3.6.4 1.3.5v.6h-7.4v-.6c.6-.1 1-.3 1.3-.7.2-.3.3-.9.3-1.9V146c0-1.3-.1-2.1-.2-2.4s-.3-.6-.5-.8-.5-.3-.8-.3c-.4 0-.9.2-1.3.5s-.9.8-1.4 1.5v7.7c0 1 .1 1.7.3 2 .2.4.7.6 1.4.6v.6h-7.4v-.6c.4 0 .7-.1.9-.3.2-.2.4-.4.5-.6.1-.3.1-.8.1-1.6v-6.2c0-1.3-.1-2.1-.2-2.4-.1-.3-.3-.6-.5-.8-.2-.2-.5-.3-.8-.3-.4 0-.8.1-1.1.3-.5.3-1 .9-1.5 1.6v7.7c0 1 .1 1.7.3 2 .2.3.6.5 1.3.6v.6h-7.4v-.6c.6-.1 1-.3 1.3-.6.2-.2.3-.9.3-2v-8.1c0-1.1-.1-1.8-.3-2-.2-.3-.6-.4-1.3-.5v-.6h5.7v-.1zm32.4 6.7h-7.9c.1 1.9.6 3.4 1.5 4.5.7.9 1.6 1.3 2.6 1.3.6 0 1.2-.2 1.7-.5s1-1 1.6-1.9l.5.3c-.8 1.6-1.6 2.7-2.6 3.4-.9.7-2 1-3.3 1-2.1 0-3.8-.8-4.8-2.5-.9-1.3-1.3-3-1.3-4.9 0-2.4.7-4.3 1.9-5.7 1.3-1.4 2.8-2.1 4.6-2.1 1.5 0 2.7.6 3.8 1.8s1.7 2.9 1.7 5.3zm-3.8-1.1c0-1.7-.1-2.8-.3-3.4-.2-.6-.5-1.1-.8-1.4-.2-.2-.5-.3-.9-.3-.5 0-1 .3-1.3.8-.6.9-.9 2.2-.9 3.8v.5h4.2zm11.5-5.6v1.9c.7-.8 1.4-1.4 2.1-1.7.7-.3 1.4-.5 2.2-.5.9 0 1.7.3 2.3.8.6.5 1 1.2 1.2 1.9.2.6.2 1.7.2 3.4v5.6c0 1.1.1 1.8.3 2.1.2.3.6.4 1.3.5v.6h-7.3v-.6c.5-.1.9-.3 1.2-.7.2-.3.2-.9.2-1.9v-6.4c0-1.2 0-1.9-.1-2.2-.1-.3-.2-.5-.5-.7-.2-.2-.5-.3-.7-.3-.9 0-1.7.6-2.5 1.9v7.7c0 1.1.1 1.8.3 2 .2.3.6.5 1.1.5v.6h-7.2v-.6c.6-.1 1-.3 1.3-.6.2-.2.3-.9.3-2v-8.1c0-1.1-.1-1.8-.3-2-.2-.3-.6-.4-1.3-.5v-.6h5.9v-.1zm17.4-5.3v5.3h3.4v1.5h-3.4v8.9c0 .8 0 1.4.1 1.6s.2.4.4.6c.2.1.4.2.5.2.7 0 1.3-.5 1.9-1.5l.5.3c-.8 2-2.2 3-4 3-.9 0-1.7-.3-2.3-.8-.6-.5-1-1.1-1.2-1.7-.1-.3-.2-1.3-.2-2.8v-7.8h-1.9v-.5c1.3-.9 2.4-1.9 3.3-2.9s1.7-2.1 2.4-3.4h.5z"/></svg>