<svg xmlns="http://www.w3.org/2000/svg" viewBox="0 0 66.9 79.5"><path d="M0 50.9V0h66.9c0 17-.1 33.9 0 50.9.1 5.4-2 9.2-6.7 12C51.7 68 43.3 73.1 35 78.4c-1.2.7-2.1.8-3.4 0-7.8-4.9-15.5-9.7-23.3-14.4C4.6 61.9 0 58.4 0 50.9zm33.5-15c2.1 1.9 4.2 3.7 6.4 5.7-.2-3.2-.3-5.7-.5-8.5 2.7-.5 5.3-.9 8.4-1.4-2.7-1.8-4.8-3.3-7.1-4.9 1.3-2.4 2.6-4.6 4.2-7.5-3.2.9-5.6 1.6-8.3 2.4-1-2.6-2-5-3.3-8-1.2 3.1-2.3 5.4-3.3 8-2.7-.7-5.1-1.4-8.2-2.4 1.6 2.9 3 5.2 4.3 7.5-2.4 1.6-4.5 3.1-7.2 4.9 3.3.5 5.8 1 8.5 1.4-.2 2.8-.3 5.3-.5 8.6 2.6-2.2 4.6-4 6.6-5.8zm0 10.5H20.4c-1.6 0-3.2.2-3.2 2.3s1.5 2.4 3.2 2.4h26.3c1.5 0 3.2-.2 3.2-2.4 0-2-1.5-2.4-3.2-2.4-4.4.1-8.8.1-13.2.1z" fill="#fff"/></svg>