<?xml version="1.0" standalone="no"?>
<!DOCTYPE svg PUBLIC "-//W3C//DTD SVG 20010904//EN"
 "http://www.w3.org/TR/2001/REC-SVG-20010904/DTD/svg10.dtd">
<svg version="1.0" xmlns="http://www.w3.org/2000/svg"
 width="700.000000pt" height="700.000000pt" viewBox="0 0 700.000000 700.000000"
 preserveAspectRatio="xMidYMid meet">
<metadata>
Created by potrace 1.11, written by Peter Selinger 2001-2013
</metadata>
<g transform="translate(0.000000,700.000000) scale(0.100000,-0.100000)"
fill="#000000" stroke="none">
<path d="M191 6958 c-68 -8 -94 -24 -109 -66 -9 -29 -8 -5048 2 -5117 5 -39
26 -165 31 -195 12 -63 51 -192 83 -280 144 -385 409 -715 757 -942 77 -50
276 -155 340 -179 137 -51 281 -90 430 -116 93 -16 283 -17 2605 -19 2113 -2
2510 0 2538 11 68 29 63 -183 59 2633 -3 1871 -7 2562 -15 2602 -6 30 -14 70
-17 89 -11 72 -56 233 -89 317 -156 407 -406 716 -778 961 -114 76 -341 182
-453 213 -16 5 -64 18 -105 29 -100 28 -240 49 -379 57 -154 9 -4819 11 -4900
2z m4964 -388 c28 -4 72 -11 99 -14 222 -30 516 -164 716 -325 193 -155 376
-406 465 -636 39 -102 80 -254 90 -335 4 -30 10 -64 12 -75 3 -11 6 -1087 7
-2390 l1 -2371 -2350 1 c-1292 0 -2354 3 -2360 7 -5 3 -35 9 -65 13 -30 3 -82
13 -115 22 -33 8 -68 16 -77 18 -9 2 -50 15 -90 30 -336 121 -629 362 -817
673 -90 150 -175 389 -196 552 -3 25 -9 59 -12 75 -4 17 -7 1095 -7 2398 l-1
2367 2325 -1 c1279 0 2348 -4 2375 -9z"/>
<path d="M3268 5725 c-2 -1 -37 -5 -78 -9 -196 -16 -378 -70 -539 -158 -375
-205 -634 -563 -741 -1023 -38 -166 -45 -245 -44 -500 2 -233 4 -253 60 -550
13 -66 87 -275 128 -360 179 -368 481 -621 856 -714 123 -31 290 -48 441 -45
284 5 547 112 754 306 67 62 183 208 192 241 3 9 11 17 18 17 9 0 12 -70 9
-322 -2 -178 -5 -334 -7 -348 -3 -14 -7 -41 -10 -60 -18 -108 -77 -247 -142
-335 -94 -126 -271 -223 -455 -250 -25 -4 -58 -9 -75 -12 -82 -14 -334 -4
-459 18 -231 41 -414 200 -467 410 -10 38 -17 49 -33 50 -103 4 -677 1 -690
-4 -10 -4 -15 -11 -12 -15 3 -5 8 -31 11 -58 7 -50 39 -177 57 -223 69 -173
201 -332 381 -459 51 -36 168 -97 272 -142 37 -17 190 -60 245 -70 92 -16 124
-22 150 -25 174 -26 578 -26 730 1 14 2 41 7 60 10 31 5 128 26 184 39 56 13
191 63 266 98 235 109 428 288 547 507 62 115 132 340 148 475 3 28 8 70 12
95 6 43 12 3294 6 3315 -2 7 -130 10 -361 10 l-357 0 -1 -218 c-2 -194 -8
-257 -21 -220 -11 31 -84 140 -128 191 -139 162 -377 284 -630 322 -62 9 -270
20 -277 15z m317 -580 c77 -8 208 -46 260 -75 134 -75 247 -184 314 -304 43
-76 105 -226 114 -276 3 -14 12 -59 20 -100 71 -347 15 -782 -136 -1050 -107
-191 -279 -328 -480 -382 -66 -18 -109 -22 -222 -22 -77 0 -160 3 -184 8 -126
22 -271 100 -372 200 -91 91 -112 119 -168 226 -100 193 -145 390 -145 640 0
101 10 256 18 269 2 3 6 29 10 56 3 28 10 65 15 83 5 17 8 32 6 32 -5 0 49
156 74 213 40 92 106 192 171 258 136 140 283 211 465 226 39 3 71 6 72 7 5 4
98 -1 168 -9z"/>
</g>
</svg>
